%TF.GenerationSoftware,KiCad,Pcbnew,7.0.11+dfsg-1build4*%
%TF.CreationDate,2026-10-07T10:43:53+03:00*%
%TF.ProjectId,guitar_preamp,67756974-6172-45f7-9072-65616d702e6b,3*%
%TF.SameCoordinates,Original*%
%TF.FileFunction,Legend,Top*%
%TF.FilePolarity,Positive*%
%FSLAX46Y46*%
G04 Gerber Fmt 4.6, Leading zero omitted, Abs format (unit mm)*
G04 Created by KiCad (PCBNEW 7.0.11+dfsg-1build4) date 2026-10-07 10:43:53*
%MOMM*%
%LPD*%
G01*
G04 APERTURE LIST*
%ADD10C,0.150000*%
%ADD11C,0.140000*%
%ADD12C,0.160000*%
%ADD13C,0.120000*%
G04 APERTURE END LIST*
D10*
X165238095Y-134502438D02*
X165142857Y-134454819D01*
X165142857Y-134454819D02*
X165000000Y-134454819D01*
X165000000Y-134454819D02*
X164857143Y-134502438D01*
X164857143Y-134502438D02*
X164761905Y-134597676D01*
X164761905Y-134597676D02*
X164714286Y-134692914D01*
X164714286Y-134692914D02*
X164666667Y-134883390D01*
X164666667Y-134883390D02*
X164666667Y-135026247D01*
X164666667Y-135026247D02*
X164714286Y-135216723D01*
X164714286Y-135216723D02*
X164761905Y-135311961D01*
X164761905Y-135311961D02*
X164857143Y-135407200D01*
X164857143Y-135407200D02*
X165000000Y-135454819D01*
X165000000Y-135454819D02*
X165095238Y-135454819D01*
X165095238Y-135454819D02*
X165238095Y-135407200D01*
X165238095Y-135407200D02*
X165285714Y-135359580D01*
X165285714Y-135359580D02*
X165285714Y-135026247D01*
X165285714Y-135026247D02*
X165095238Y-135026247D01*
X165714286Y-135454819D02*
X165714286Y-134454819D01*
X165714286Y-134454819D02*
X166285714Y-135454819D01*
X166285714Y-135454819D02*
X166285714Y-134454819D01*
X166761905Y-135454819D02*
X166761905Y-134454819D01*
X166761905Y-134454819D02*
X167000000Y-134454819D01*
X167000000Y-134454819D02*
X167142857Y-134502438D01*
X167142857Y-134502438D02*
X167238095Y-134597676D01*
X167238095Y-134597676D02*
X167285714Y-134692914D01*
X167285714Y-134692914D02*
X167333333Y-134883390D01*
X167333333Y-134883390D02*
X167333333Y-135026247D01*
X167333333Y-135026247D02*
X167285714Y-135216723D01*
X167285714Y-135216723D02*
X167238095Y-135311961D01*
X167238095Y-135311961D02*
X167142857Y-135407200D01*
X167142857Y-135407200D02*
X167000000Y-135454819D01*
X167000000Y-135454819D02*
X166761905Y-135454819D01*
X155838095Y-127054819D02*
X156409523Y-127054819D01*
X156123809Y-128054819D02*
X156123809Y-127054819D01*
X157266666Y-128054819D02*
X156695238Y-128054819D01*
X156980952Y-128054819D02*
X156980952Y-127054819D01*
X156980952Y-127054819D02*
X156885714Y-127197676D01*
X156885714Y-127197676D02*
X156790476Y-127292914D01*
X156790476Y-127292914D02*
X156695238Y-127340533D01*
D11*
X162264286Y-108409077D02*
X161835714Y-108409077D01*
X161835714Y-108409077D02*
X161835714Y-107509077D01*
X162564285Y-107937648D02*
X162864285Y-107937648D01*
X162992857Y-108409077D02*
X162564285Y-108409077D01*
X162564285Y-108409077D02*
X162564285Y-107509077D01*
X162564285Y-107509077D02*
X162992857Y-107509077D01*
X163378571Y-108409077D02*
X163378571Y-107509077D01*
X163378571Y-107509077D02*
X163592857Y-107509077D01*
X163592857Y-107509077D02*
X163721428Y-107551934D01*
X163721428Y-107551934D02*
X163807143Y-107637648D01*
X163807143Y-107637648D02*
X163850000Y-107723362D01*
X163850000Y-107723362D02*
X163892857Y-107894791D01*
X163892857Y-107894791D02*
X163892857Y-108023362D01*
X163892857Y-108023362D02*
X163850000Y-108194791D01*
X163850000Y-108194791D02*
X163807143Y-108280505D01*
X163807143Y-108280505D02*
X163721428Y-108366220D01*
X163721428Y-108366220D02*
X163592857Y-108409077D01*
X163592857Y-108409077D02*
X163378571Y-108409077D01*
X164278571Y-108066220D02*
X164964286Y-108066220D01*
X164621428Y-108409077D02*
X164621428Y-107723362D01*
D10*
X108761905Y-105454819D02*
X109285714Y-104788152D01*
X108761905Y-104788152D02*
X109285714Y-105454819D01*
X109619048Y-104550057D02*
X109666667Y-104502438D01*
X109666667Y-104502438D02*
X109761905Y-104454819D01*
X109761905Y-104454819D02*
X110000000Y-104454819D01*
X110000000Y-104454819D02*
X110095238Y-104502438D01*
X110095238Y-104502438D02*
X110142857Y-104550057D01*
X110142857Y-104550057D02*
X110190476Y-104645295D01*
X110190476Y-104645295D02*
X110190476Y-104740533D01*
X110190476Y-104740533D02*
X110142857Y-104883390D01*
X110142857Y-104883390D02*
X109571429Y-105454819D01*
X109571429Y-105454819D02*
X110190476Y-105454819D01*
X102476191Y-117554819D02*
X102476191Y-116554819D01*
X102952381Y-117554819D02*
X102952381Y-116554819D01*
X102952381Y-116554819D02*
X103523809Y-117554819D01*
X103523809Y-117554819D02*
X103523809Y-116554819D01*
D11*
X162278571Y-105837648D02*
X162407143Y-105880505D01*
X162407143Y-105880505D02*
X162450000Y-105923362D01*
X162450000Y-105923362D02*
X162492857Y-106009077D01*
X162492857Y-106009077D02*
X162492857Y-106137648D01*
X162492857Y-106137648D02*
X162450000Y-106223362D01*
X162450000Y-106223362D02*
X162407143Y-106266220D01*
X162407143Y-106266220D02*
X162321428Y-106309077D01*
X162321428Y-106309077D02*
X161978571Y-106309077D01*
X161978571Y-106309077D02*
X161978571Y-105409077D01*
X161978571Y-105409077D02*
X162278571Y-105409077D01*
X162278571Y-105409077D02*
X162364286Y-105451934D01*
X162364286Y-105451934D02*
X162407143Y-105494791D01*
X162407143Y-105494791D02*
X162450000Y-105580505D01*
X162450000Y-105580505D02*
X162450000Y-105666220D01*
X162450000Y-105666220D02*
X162407143Y-105751934D01*
X162407143Y-105751934D02*
X162364286Y-105794791D01*
X162364286Y-105794791D02*
X162278571Y-105837648D01*
X162278571Y-105837648D02*
X161978571Y-105837648D01*
X162835714Y-106051934D02*
X163264286Y-106051934D01*
X162750000Y-106309077D02*
X163050000Y-105409077D01*
X163050000Y-105409077D02*
X163350000Y-106309077D01*
X163521429Y-105409077D02*
X164035715Y-105409077D01*
X163778572Y-106309077D02*
X163778572Y-105409077D01*
X164335714Y-105966220D02*
X165021429Y-105966220D01*
X164678571Y-106309077D02*
X164678571Y-105623362D01*
D12*
X109180953Y-145952941D02*
X109076191Y-145900560D01*
X109076191Y-145900560D02*
X108919048Y-145900560D01*
X108919048Y-145900560D02*
X108761905Y-145952941D01*
X108761905Y-145952941D02*
X108657143Y-146057703D01*
X108657143Y-146057703D02*
X108604762Y-146162465D01*
X108604762Y-146162465D02*
X108552381Y-146371989D01*
X108552381Y-146371989D02*
X108552381Y-146529132D01*
X108552381Y-146529132D02*
X108604762Y-146738656D01*
X108604762Y-146738656D02*
X108657143Y-146843418D01*
X108657143Y-146843418D02*
X108761905Y-146948180D01*
X108761905Y-146948180D02*
X108919048Y-147000560D01*
X108919048Y-147000560D02*
X109023810Y-147000560D01*
X109023810Y-147000560D02*
X109180953Y-146948180D01*
X109180953Y-146948180D02*
X109233334Y-146895799D01*
X109233334Y-146895799D02*
X109233334Y-146529132D01*
X109233334Y-146529132D02*
X109023810Y-146529132D01*
X109704762Y-145900560D02*
X109704762Y-146791037D01*
X109704762Y-146791037D02*
X109757143Y-146895799D01*
X109757143Y-146895799D02*
X109809524Y-146948180D01*
X109809524Y-146948180D02*
X109914286Y-147000560D01*
X109914286Y-147000560D02*
X110123810Y-147000560D01*
X110123810Y-147000560D02*
X110228572Y-146948180D01*
X110228572Y-146948180D02*
X110280953Y-146895799D01*
X110280953Y-146895799D02*
X110333334Y-146791037D01*
X110333334Y-146791037D02*
X110333334Y-145900560D01*
X110857143Y-147000560D02*
X110857143Y-145900560D01*
X111223810Y-145900560D02*
X111852382Y-145900560D01*
X111538096Y-147000560D02*
X111538096Y-145900560D01*
X112166667Y-146686275D02*
X112690477Y-146686275D01*
X112061905Y-147000560D02*
X112428572Y-145900560D01*
X112428572Y-145900560D02*
X112795239Y-147000560D01*
X113790477Y-147000560D02*
X113423810Y-146476751D01*
X113161905Y-147000560D02*
X113161905Y-145900560D01*
X113161905Y-145900560D02*
X113580953Y-145900560D01*
X113580953Y-145900560D02*
X113685715Y-145952941D01*
X113685715Y-145952941D02*
X113738096Y-146005322D01*
X113738096Y-146005322D02*
X113790477Y-146110084D01*
X113790477Y-146110084D02*
X113790477Y-146267227D01*
X113790477Y-146267227D02*
X113738096Y-146371989D01*
X113738096Y-146371989D02*
X113685715Y-146424370D01*
X113685715Y-146424370D02*
X113580953Y-146476751D01*
X113580953Y-146476751D02*
X113161905Y-146476751D01*
X115100000Y-147000560D02*
X115100000Y-145900560D01*
X115100000Y-145900560D02*
X115519048Y-145900560D01*
X115519048Y-145900560D02*
X115623810Y-145952941D01*
X115623810Y-145952941D02*
X115676191Y-146005322D01*
X115676191Y-146005322D02*
X115728572Y-146110084D01*
X115728572Y-146110084D02*
X115728572Y-146267227D01*
X115728572Y-146267227D02*
X115676191Y-146371989D01*
X115676191Y-146371989D02*
X115623810Y-146424370D01*
X115623810Y-146424370D02*
X115519048Y-146476751D01*
X115519048Y-146476751D02*
X115100000Y-146476751D01*
X116828572Y-147000560D02*
X116461905Y-146476751D01*
X116200000Y-147000560D02*
X116200000Y-145900560D01*
X116200000Y-145900560D02*
X116619048Y-145900560D01*
X116619048Y-145900560D02*
X116723810Y-145952941D01*
X116723810Y-145952941D02*
X116776191Y-146005322D01*
X116776191Y-146005322D02*
X116828572Y-146110084D01*
X116828572Y-146110084D02*
X116828572Y-146267227D01*
X116828572Y-146267227D02*
X116776191Y-146371989D01*
X116776191Y-146371989D02*
X116723810Y-146424370D01*
X116723810Y-146424370D02*
X116619048Y-146476751D01*
X116619048Y-146476751D02*
X116200000Y-146476751D01*
X117300000Y-146424370D02*
X117666667Y-146424370D01*
X117823810Y-147000560D02*
X117300000Y-147000560D01*
X117300000Y-147000560D02*
X117300000Y-145900560D01*
X117300000Y-145900560D02*
X117823810Y-145900560D01*
X119028571Y-146267227D02*
X119290476Y-147000560D01*
X119290476Y-147000560D02*
X119552381Y-146267227D01*
X119866666Y-145900560D02*
X120547619Y-145900560D01*
X120547619Y-145900560D02*
X120180952Y-146319608D01*
X120180952Y-146319608D02*
X120338095Y-146319608D01*
X120338095Y-146319608D02*
X120442857Y-146371989D01*
X120442857Y-146371989D02*
X120495238Y-146424370D01*
X120495238Y-146424370D02*
X120547619Y-146529132D01*
X120547619Y-146529132D02*
X120547619Y-146791037D01*
X120547619Y-146791037D02*
X120495238Y-146895799D01*
X120495238Y-146895799D02*
X120442857Y-146948180D01*
X120442857Y-146948180D02*
X120338095Y-147000560D01*
X120338095Y-147000560D02*
X120023809Y-147000560D01*
X120023809Y-147000560D02*
X119919047Y-146948180D01*
X119919047Y-146948180D02*
X119866666Y-146895799D01*
X123271428Y-147000560D02*
X122642856Y-147000560D01*
X122957142Y-147000560D02*
X122957142Y-145900560D01*
X122957142Y-145900560D02*
X122852380Y-146057703D01*
X122852380Y-146057703D02*
X122747618Y-146162465D01*
X122747618Y-146162465D02*
X122642856Y-146214846D01*
X123690475Y-146948180D02*
X123847618Y-147000560D01*
X123847618Y-147000560D02*
X124109523Y-147000560D01*
X124109523Y-147000560D02*
X124214285Y-146948180D01*
X124214285Y-146948180D02*
X124266666Y-146895799D01*
X124266666Y-146895799D02*
X124319047Y-146791037D01*
X124319047Y-146791037D02*
X124319047Y-146686275D01*
X124319047Y-146686275D02*
X124266666Y-146581513D01*
X124266666Y-146581513D02*
X124214285Y-146529132D01*
X124214285Y-146529132D02*
X124109523Y-146476751D01*
X124109523Y-146476751D02*
X123899999Y-146424370D01*
X123899999Y-146424370D02*
X123795237Y-146371989D01*
X123795237Y-146371989D02*
X123742856Y-146319608D01*
X123742856Y-146319608D02*
X123690475Y-146214846D01*
X123690475Y-146214846D02*
X123690475Y-146110084D01*
X123690475Y-146110084D02*
X123742856Y-146005322D01*
X123742856Y-146005322D02*
X123795237Y-145952941D01*
X123795237Y-145952941D02*
X123899999Y-145900560D01*
X123899999Y-145900560D02*
X124161904Y-145900560D01*
X124161904Y-145900560D02*
X124319047Y-145952941D01*
X126152380Y-147000560D02*
X125628570Y-147000560D01*
X125628570Y-147000560D02*
X125628570Y-145900560D01*
X126519046Y-147000560D02*
X126519046Y-146267227D01*
X126519046Y-145900560D02*
X126466665Y-145952941D01*
X126466665Y-145952941D02*
X126519046Y-146005322D01*
X126519046Y-146005322D02*
X126571427Y-145952941D01*
X126571427Y-145952941D02*
X126519046Y-145900560D01*
X126519046Y-145900560D02*
X126519046Y-146005322D01*
X127042856Y-146581513D02*
X127880952Y-146581513D01*
X128404761Y-147000560D02*
X128404761Y-146267227D01*
X128404761Y-145900560D02*
X128352380Y-145952941D01*
X128352380Y-145952941D02*
X128404761Y-146005322D01*
X128404761Y-146005322D02*
X128457142Y-145952941D01*
X128457142Y-145952941D02*
X128404761Y-145900560D01*
X128404761Y-145900560D02*
X128404761Y-146005322D01*
X129085714Y-147000560D02*
X128980952Y-146948180D01*
X128980952Y-146948180D02*
X128928571Y-146895799D01*
X128928571Y-146895799D02*
X128876190Y-146791037D01*
X128876190Y-146791037D02*
X128876190Y-146476751D01*
X128876190Y-146476751D02*
X128928571Y-146371989D01*
X128928571Y-146371989D02*
X128980952Y-146319608D01*
X128980952Y-146319608D02*
X129085714Y-146267227D01*
X129085714Y-146267227D02*
X129242857Y-146267227D01*
X129242857Y-146267227D02*
X129347619Y-146319608D01*
X129347619Y-146319608D02*
X129400000Y-146371989D01*
X129400000Y-146371989D02*
X129452381Y-146476751D01*
X129452381Y-146476751D02*
X129452381Y-146791037D01*
X129452381Y-146791037D02*
X129400000Y-146895799D01*
X129400000Y-146895799D02*
X129347619Y-146948180D01*
X129347619Y-146948180D02*
X129242857Y-147000560D01*
X129242857Y-147000560D02*
X129085714Y-147000560D01*
X129923809Y-146267227D02*
X129923809Y-147000560D01*
X129923809Y-146371989D02*
X129976190Y-146319608D01*
X129976190Y-146319608D02*
X130080952Y-146267227D01*
X130080952Y-146267227D02*
X130238095Y-146267227D01*
X130238095Y-146267227D02*
X130342857Y-146319608D01*
X130342857Y-146319608D02*
X130395238Y-146424370D01*
X130395238Y-146424370D02*
X130395238Y-147000560D01*
D10*
X102238095Y-126002438D02*
X102142857Y-125954819D01*
X102142857Y-125954819D02*
X102000000Y-125954819D01*
X102000000Y-125954819D02*
X101857143Y-126002438D01*
X101857143Y-126002438D02*
X101761905Y-126097676D01*
X101761905Y-126097676D02*
X101714286Y-126192914D01*
X101714286Y-126192914D02*
X101666667Y-126383390D01*
X101666667Y-126383390D02*
X101666667Y-126526247D01*
X101666667Y-126526247D02*
X101714286Y-126716723D01*
X101714286Y-126716723D02*
X101761905Y-126811961D01*
X101761905Y-126811961D02*
X101857143Y-126907200D01*
X101857143Y-126907200D02*
X102000000Y-126954819D01*
X102000000Y-126954819D02*
X102095238Y-126954819D01*
X102095238Y-126954819D02*
X102238095Y-126907200D01*
X102238095Y-126907200D02*
X102285714Y-126859580D01*
X102285714Y-126859580D02*
X102285714Y-126526247D01*
X102285714Y-126526247D02*
X102095238Y-126526247D01*
X102714286Y-126954819D02*
X102714286Y-125954819D01*
X102714286Y-125954819D02*
X103285714Y-126954819D01*
X103285714Y-126954819D02*
X103285714Y-125954819D01*
X103761905Y-126954819D02*
X103761905Y-125954819D01*
X103761905Y-125954819D02*
X104000000Y-125954819D01*
X104000000Y-125954819D02*
X104142857Y-126002438D01*
X104142857Y-126002438D02*
X104238095Y-126097676D01*
X104238095Y-126097676D02*
X104285714Y-126192914D01*
X104285714Y-126192914D02*
X104333333Y-126383390D01*
X104333333Y-126383390D02*
X104333333Y-126526247D01*
X104333333Y-126526247D02*
X104285714Y-126716723D01*
X104285714Y-126716723D02*
X104238095Y-126811961D01*
X104238095Y-126811961D02*
X104142857Y-126907200D01*
X104142857Y-126907200D02*
X104000000Y-126954819D01*
X104000000Y-126954819D02*
X103761905Y-126954819D01*
X146638095Y-127054819D02*
X147209523Y-127054819D01*
X146923809Y-128054819D02*
X146923809Y-127054819D01*
X147447619Y-127054819D02*
X148066666Y-127054819D01*
X148066666Y-127054819D02*
X147733333Y-127435771D01*
X147733333Y-127435771D02*
X147876190Y-127435771D01*
X147876190Y-127435771D02*
X147971428Y-127483390D01*
X147971428Y-127483390D02*
X148019047Y-127531009D01*
X148019047Y-127531009D02*
X148066666Y-127626247D01*
X148066666Y-127626247D02*
X148066666Y-127864342D01*
X148066666Y-127864342D02*
X148019047Y-127959580D01*
X148019047Y-127959580D02*
X147971428Y-128007200D01*
X147971428Y-128007200D02*
X147876190Y-128054819D01*
X147876190Y-128054819D02*
X147590476Y-128054819D01*
X147590476Y-128054819D02*
X147495238Y-128007200D01*
X147495238Y-128007200D02*
X147447619Y-127959580D01*
X142995238Y-144531009D02*
X143138095Y-144578628D01*
X143138095Y-144578628D02*
X143185714Y-144626247D01*
X143185714Y-144626247D02*
X143233333Y-144721485D01*
X143233333Y-144721485D02*
X143233333Y-144864342D01*
X143233333Y-144864342D02*
X143185714Y-144959580D01*
X143185714Y-144959580D02*
X143138095Y-145007200D01*
X143138095Y-145007200D02*
X143042857Y-145054819D01*
X143042857Y-145054819D02*
X142661905Y-145054819D01*
X142661905Y-145054819D02*
X142661905Y-144054819D01*
X142661905Y-144054819D02*
X142995238Y-144054819D01*
X142995238Y-144054819D02*
X143090476Y-144102438D01*
X143090476Y-144102438D02*
X143138095Y-144150057D01*
X143138095Y-144150057D02*
X143185714Y-144245295D01*
X143185714Y-144245295D02*
X143185714Y-144340533D01*
X143185714Y-144340533D02*
X143138095Y-144435771D01*
X143138095Y-144435771D02*
X143090476Y-144483390D01*
X143090476Y-144483390D02*
X142995238Y-144531009D01*
X142995238Y-144531009D02*
X142661905Y-144531009D01*
X143566667Y-144054819D02*
X144185714Y-144054819D01*
X144185714Y-144054819D02*
X143852381Y-144435771D01*
X143852381Y-144435771D02*
X143995238Y-144435771D01*
X143995238Y-144435771D02*
X144090476Y-144483390D01*
X144090476Y-144483390D02*
X144138095Y-144531009D01*
X144138095Y-144531009D02*
X144185714Y-144626247D01*
X144185714Y-144626247D02*
X144185714Y-144864342D01*
X144185714Y-144864342D02*
X144138095Y-144959580D01*
X144138095Y-144959580D02*
X144090476Y-145007200D01*
X144090476Y-145007200D02*
X143995238Y-145054819D01*
X143995238Y-145054819D02*
X143709524Y-145054819D01*
X143709524Y-145054819D02*
X143614286Y-145007200D01*
X143614286Y-145007200D02*
X143566667Y-144959580D01*
X151238095Y-127054819D02*
X151809523Y-127054819D01*
X151523809Y-128054819D02*
X151523809Y-127054819D01*
X152095238Y-127150057D02*
X152142857Y-127102438D01*
X152142857Y-127102438D02*
X152238095Y-127054819D01*
X152238095Y-127054819D02*
X152476190Y-127054819D01*
X152476190Y-127054819D02*
X152571428Y-127102438D01*
X152571428Y-127102438D02*
X152619047Y-127150057D01*
X152619047Y-127150057D02*
X152666666Y-127245295D01*
X152666666Y-127245295D02*
X152666666Y-127340533D01*
X152666666Y-127340533D02*
X152619047Y-127483390D01*
X152619047Y-127483390D02*
X152047619Y-128054819D01*
X152047619Y-128054819D02*
X152666666Y-128054819D01*
X152195238Y-144531009D02*
X152338095Y-144578628D01*
X152338095Y-144578628D02*
X152385714Y-144626247D01*
X152385714Y-144626247D02*
X152433333Y-144721485D01*
X152433333Y-144721485D02*
X152433333Y-144864342D01*
X152433333Y-144864342D02*
X152385714Y-144959580D01*
X152385714Y-144959580D02*
X152338095Y-145007200D01*
X152338095Y-145007200D02*
X152242857Y-145054819D01*
X152242857Y-145054819D02*
X151861905Y-145054819D01*
X151861905Y-145054819D02*
X151861905Y-144054819D01*
X151861905Y-144054819D02*
X152195238Y-144054819D01*
X152195238Y-144054819D02*
X152290476Y-144102438D01*
X152290476Y-144102438D02*
X152338095Y-144150057D01*
X152338095Y-144150057D02*
X152385714Y-144245295D01*
X152385714Y-144245295D02*
X152385714Y-144340533D01*
X152385714Y-144340533D02*
X152338095Y-144435771D01*
X152338095Y-144435771D02*
X152290476Y-144483390D01*
X152290476Y-144483390D02*
X152195238Y-144531009D01*
X152195238Y-144531009D02*
X151861905Y-144531009D01*
X153385714Y-145054819D02*
X152814286Y-145054819D01*
X153100000Y-145054819D02*
X153100000Y-144054819D01*
X153100000Y-144054819D02*
X153004762Y-144197676D01*
X153004762Y-144197676D02*
X152909524Y-144292914D01*
X152909524Y-144292914D02*
X152814286Y-144340533D01*
X161600000Y-127454819D02*
X161790476Y-127454819D01*
X161790476Y-127454819D02*
X161885714Y-127502438D01*
X161885714Y-127502438D02*
X161980952Y-127597676D01*
X161980952Y-127597676D02*
X162028571Y-127788152D01*
X162028571Y-127788152D02*
X162028571Y-128121485D01*
X162028571Y-128121485D02*
X161980952Y-128311961D01*
X161980952Y-128311961D02*
X161885714Y-128407200D01*
X161885714Y-128407200D02*
X161790476Y-128454819D01*
X161790476Y-128454819D02*
X161600000Y-128454819D01*
X161600000Y-128454819D02*
X161504762Y-128407200D01*
X161504762Y-128407200D02*
X161409524Y-128311961D01*
X161409524Y-128311961D02*
X161361905Y-128121485D01*
X161361905Y-128121485D02*
X161361905Y-127788152D01*
X161361905Y-127788152D02*
X161409524Y-127597676D01*
X161409524Y-127597676D02*
X161504762Y-127502438D01*
X161504762Y-127502438D02*
X161600000Y-127454819D01*
X162457143Y-127454819D02*
X162457143Y-128264342D01*
X162457143Y-128264342D02*
X162504762Y-128359580D01*
X162504762Y-128359580D02*
X162552381Y-128407200D01*
X162552381Y-128407200D02*
X162647619Y-128454819D01*
X162647619Y-128454819D02*
X162838095Y-128454819D01*
X162838095Y-128454819D02*
X162933333Y-128407200D01*
X162933333Y-128407200D02*
X162980952Y-128359580D01*
X162980952Y-128359580D02*
X163028571Y-128264342D01*
X163028571Y-128264342D02*
X163028571Y-127454819D01*
X163361905Y-127454819D02*
X163933333Y-127454819D01*
X163647619Y-128454819D02*
X163647619Y-127454819D01*
D11*
X162264286Y-112809077D02*
X161835714Y-112809077D01*
X161835714Y-112809077D02*
X161835714Y-111909077D01*
X162564285Y-112337648D02*
X162864285Y-112337648D01*
X162992857Y-112809077D02*
X162564285Y-112809077D01*
X162564285Y-112809077D02*
X162564285Y-111909077D01*
X162564285Y-111909077D02*
X162992857Y-111909077D01*
X163378571Y-112809077D02*
X163378571Y-111909077D01*
X163378571Y-111909077D02*
X163592857Y-111909077D01*
X163592857Y-111909077D02*
X163721428Y-111951934D01*
X163721428Y-111951934D02*
X163807143Y-112037648D01*
X163807143Y-112037648D02*
X163850000Y-112123362D01*
X163850000Y-112123362D02*
X163892857Y-112294791D01*
X163892857Y-112294791D02*
X163892857Y-112423362D01*
X163892857Y-112423362D02*
X163850000Y-112594791D01*
X163850000Y-112594791D02*
X163807143Y-112680505D01*
X163807143Y-112680505D02*
X163721428Y-112766220D01*
X163721428Y-112766220D02*
X163592857Y-112809077D01*
X163592857Y-112809077D02*
X163378571Y-112809077D01*
X164278571Y-112466220D02*
X164964286Y-112466220D01*
D10*
X147595238Y-144531009D02*
X147738095Y-144578628D01*
X147738095Y-144578628D02*
X147785714Y-144626247D01*
X147785714Y-144626247D02*
X147833333Y-144721485D01*
X147833333Y-144721485D02*
X147833333Y-144864342D01*
X147833333Y-144864342D02*
X147785714Y-144959580D01*
X147785714Y-144959580D02*
X147738095Y-145007200D01*
X147738095Y-145007200D02*
X147642857Y-145054819D01*
X147642857Y-145054819D02*
X147261905Y-145054819D01*
X147261905Y-145054819D02*
X147261905Y-144054819D01*
X147261905Y-144054819D02*
X147595238Y-144054819D01*
X147595238Y-144054819D02*
X147690476Y-144102438D01*
X147690476Y-144102438D02*
X147738095Y-144150057D01*
X147738095Y-144150057D02*
X147785714Y-144245295D01*
X147785714Y-144245295D02*
X147785714Y-144340533D01*
X147785714Y-144340533D02*
X147738095Y-144435771D01*
X147738095Y-144435771D02*
X147690476Y-144483390D01*
X147690476Y-144483390D02*
X147595238Y-144531009D01*
X147595238Y-144531009D02*
X147261905Y-144531009D01*
X148214286Y-144150057D02*
X148261905Y-144102438D01*
X148261905Y-144102438D02*
X148357143Y-144054819D01*
X148357143Y-144054819D02*
X148595238Y-144054819D01*
X148595238Y-144054819D02*
X148690476Y-144102438D01*
X148690476Y-144102438D02*
X148738095Y-144150057D01*
X148738095Y-144150057D02*
X148785714Y-144245295D01*
X148785714Y-144245295D02*
X148785714Y-144340533D01*
X148785714Y-144340533D02*
X148738095Y-144483390D01*
X148738095Y-144483390D02*
X148166667Y-145054819D01*
X148166667Y-145054819D02*
X148785714Y-145054819D01*
D13*
%TO.C,R10*%
X158460000Y-104370000D02*
X151920000Y-104370000D01*
X158460000Y-104040000D02*
X158460000Y-104370000D01*
X158460000Y-101960000D02*
X158460000Y-101630000D01*
X158460000Y-101630000D02*
X151920000Y-101630000D01*
X151920000Y-104370000D02*
X151920000Y-104040000D01*
X151920000Y-101630000D02*
X151920000Y-101960000D01*
%TO.C,C7*%
X159380000Y-131220000D02*
X162620000Y-131220000D01*
X159380000Y-131220000D02*
X159380000Y-123780000D01*
X162620000Y-131220000D02*
X162620000Y-123780000D01*
X159380000Y-123780000D02*
X162620000Y-123780000D01*
%TO.C,R1*%
X118040000Y-121710000D02*
X124580000Y-121710000D01*
X118040000Y-122040000D02*
X118040000Y-121710000D01*
X118040000Y-124120000D02*
X118040000Y-124450000D01*
X118040000Y-124450000D02*
X124580000Y-124450000D01*
X124580000Y-121710000D02*
X124580000Y-122040000D01*
X124580000Y-124450000D02*
X124580000Y-124120000D01*
%TO.C,C5*%
X153780000Y-141380000D02*
X153780000Y-144620000D01*
X153780000Y-141380000D02*
X161220000Y-141380000D01*
X153780000Y-144620000D02*
X161220000Y-144620000D01*
X161220000Y-141380000D02*
X161220000Y-144620000D01*
%TO.C,C8*%
X141880000Y-120630000D02*
X141880000Y-120945000D01*
X141880000Y-120630000D02*
X147120000Y-120630000D01*
X141880000Y-123055000D02*
X141880000Y-123370000D01*
X141880000Y-123370000D02*
X147120000Y-123370000D01*
X147120000Y-120630000D02*
X147120000Y-120945000D01*
X147120000Y-123055000D02*
X147120000Y-123370000D01*
%TO.C,R6*%
X137540000Y-136630000D02*
X144080000Y-136630000D01*
X137540000Y-136960000D02*
X137540000Y-136630000D01*
X137540000Y-139040000D02*
X137540000Y-139370000D01*
X137540000Y-139370000D02*
X144080000Y-139370000D01*
X144080000Y-136630000D02*
X144080000Y-136960000D01*
X144080000Y-139370000D02*
X144080000Y-139040000D01*
%TO.C,R3*%
X107370000Y-127540000D02*
X107370000Y-134080000D01*
X107040000Y-127540000D02*
X107370000Y-127540000D01*
X104960000Y-127540000D02*
X104630000Y-127540000D01*
X104630000Y-127540000D02*
X104630000Y-134080000D01*
X107370000Y-134080000D02*
X107040000Y-134080000D01*
X104630000Y-134080000D02*
X104960000Y-134080000D01*
%TO.C,C9*%
X150445225Y-112725000D02*
X150945225Y-112725000D01*
X150695225Y-112475000D02*
X150695225Y-112975000D01*
X153250000Y-111620000D02*
X153250000Y-116780000D01*
X153290000Y-111620000D02*
X153290000Y-116780000D01*
X153330000Y-111621000D02*
X153330000Y-116779000D01*
X153370000Y-111622000D02*
X153370000Y-116778000D01*
X153410000Y-111624000D02*
X153410000Y-116776000D01*
X153450000Y-111627000D02*
X153450000Y-116773000D01*
X153490000Y-111631000D02*
X153490000Y-113160000D01*
X153490000Y-115240000D02*
X153490000Y-116769000D01*
X153530000Y-111635000D02*
X153530000Y-113160000D01*
X153530000Y-115240000D02*
X153530000Y-116765000D01*
X153570000Y-111639000D02*
X153570000Y-113160000D01*
X153570000Y-115240000D02*
X153570000Y-116761000D01*
X153610000Y-111644000D02*
X153610000Y-113160000D01*
X153610000Y-115240000D02*
X153610000Y-116756000D01*
X153650000Y-111650000D02*
X153650000Y-113160000D01*
X153650000Y-115240000D02*
X153650000Y-116750000D01*
X153690000Y-111657000D02*
X153690000Y-113160000D01*
X153690000Y-115240000D02*
X153690000Y-116743000D01*
X153730000Y-111664000D02*
X153730000Y-113160000D01*
X153730000Y-115240000D02*
X153730000Y-116736000D01*
X153770000Y-111672000D02*
X153770000Y-113160000D01*
X153770000Y-115240000D02*
X153770000Y-116728000D01*
X153810000Y-111680000D02*
X153810000Y-113160000D01*
X153810000Y-115240000D02*
X153810000Y-116720000D01*
X153850000Y-111689000D02*
X153850000Y-113160000D01*
X153850000Y-115240000D02*
X153850000Y-116711000D01*
X153890000Y-111699000D02*
X153890000Y-113160000D01*
X153890000Y-115240000D02*
X153890000Y-116701000D01*
X153930000Y-111709000D02*
X153930000Y-113160000D01*
X153930000Y-115240000D02*
X153930000Y-116691000D01*
X153971000Y-111720000D02*
X153971000Y-113160000D01*
X153971000Y-115240000D02*
X153971000Y-116680000D01*
X154011000Y-111732000D02*
X154011000Y-113160000D01*
X154011000Y-115240000D02*
X154011000Y-116668000D01*
X154051000Y-111745000D02*
X154051000Y-113160000D01*
X154051000Y-115240000D02*
X154051000Y-116655000D01*
X154091000Y-111758000D02*
X154091000Y-113160000D01*
X154091000Y-115240000D02*
X154091000Y-116642000D01*
X154131000Y-111772000D02*
X154131000Y-113160000D01*
X154131000Y-115240000D02*
X154131000Y-116628000D01*
X154171000Y-111786000D02*
X154171000Y-113160000D01*
X154171000Y-115240000D02*
X154171000Y-116614000D01*
X154211000Y-111802000D02*
X154211000Y-113160000D01*
X154211000Y-115240000D02*
X154211000Y-116598000D01*
X154251000Y-111818000D02*
X154251000Y-113160000D01*
X154251000Y-115240000D02*
X154251000Y-116582000D01*
X154291000Y-111835000D02*
X154291000Y-113160000D01*
X154291000Y-115240000D02*
X154291000Y-116565000D01*
X154331000Y-111852000D02*
X154331000Y-113160000D01*
X154331000Y-115240000D02*
X154331000Y-116548000D01*
X154371000Y-111871000D02*
X154371000Y-113160000D01*
X154371000Y-115240000D02*
X154371000Y-116529000D01*
X154411000Y-111890000D02*
X154411000Y-113160000D01*
X154411000Y-115240000D02*
X154411000Y-116510000D01*
X154451000Y-111910000D02*
X154451000Y-113160000D01*
X154451000Y-115240000D02*
X154451000Y-116490000D01*
X154491000Y-111932000D02*
X154491000Y-113160000D01*
X154491000Y-115240000D02*
X154491000Y-116468000D01*
X154531000Y-111953000D02*
X154531000Y-113160000D01*
X154531000Y-115240000D02*
X154531000Y-116447000D01*
X154571000Y-111976000D02*
X154571000Y-113160000D01*
X154571000Y-115240000D02*
X154571000Y-116424000D01*
X154611000Y-112000000D02*
X154611000Y-113160000D01*
X154611000Y-115240000D02*
X154611000Y-116400000D01*
X154651000Y-112025000D02*
X154651000Y-113160000D01*
X154651000Y-115240000D02*
X154651000Y-116375000D01*
X154691000Y-112051000D02*
X154691000Y-113160000D01*
X154691000Y-115240000D02*
X154691000Y-116349000D01*
X154731000Y-112078000D02*
X154731000Y-113160000D01*
X154731000Y-115240000D02*
X154731000Y-116322000D01*
X154771000Y-112105000D02*
X154771000Y-113160000D01*
X154771000Y-115240000D02*
X154771000Y-116295000D01*
X154811000Y-112135000D02*
X154811000Y-113160000D01*
X154811000Y-115240000D02*
X154811000Y-116265000D01*
X154851000Y-112165000D02*
X154851000Y-113160000D01*
X154851000Y-115240000D02*
X154851000Y-116235000D01*
X154891000Y-112196000D02*
X154891000Y-113160000D01*
X154891000Y-115240000D02*
X154891000Y-116204000D01*
X154931000Y-112229000D02*
X154931000Y-113160000D01*
X154931000Y-115240000D02*
X154931000Y-116171000D01*
X154971000Y-112263000D02*
X154971000Y-113160000D01*
X154971000Y-115240000D02*
X154971000Y-116137000D01*
X155011000Y-112299000D02*
X155011000Y-113160000D01*
X155011000Y-115240000D02*
X155011000Y-116101000D01*
X155051000Y-112336000D02*
X155051000Y-113160000D01*
X155051000Y-115240000D02*
X155051000Y-116064000D01*
X155091000Y-112374000D02*
X155091000Y-113160000D01*
X155091000Y-115240000D02*
X155091000Y-116026000D01*
X155131000Y-112415000D02*
X155131000Y-113160000D01*
X155131000Y-115240000D02*
X155131000Y-115985000D01*
X155171000Y-112457000D02*
X155171000Y-113160000D01*
X155171000Y-115240000D02*
X155171000Y-115943000D01*
X155211000Y-112501000D02*
X155211000Y-113160000D01*
X155211000Y-115240000D02*
X155211000Y-115899000D01*
X155251000Y-112547000D02*
X155251000Y-113160000D01*
X155251000Y-115240000D02*
X155251000Y-115853000D01*
X155291000Y-112595000D02*
X155291000Y-113160000D01*
X155291000Y-115240000D02*
X155291000Y-115805000D01*
X155331000Y-112646000D02*
X155331000Y-113160000D01*
X155331000Y-115240000D02*
X155331000Y-115754000D01*
X155371000Y-112700000D02*
X155371000Y-113160000D01*
X155371000Y-115240000D02*
X155371000Y-115700000D01*
X155411000Y-112757000D02*
X155411000Y-113160000D01*
X155411000Y-115240000D02*
X155411000Y-115643000D01*
X155451000Y-112817000D02*
X155451000Y-113160000D01*
X155451000Y-115240000D02*
X155451000Y-115583000D01*
X155491000Y-112881000D02*
X155491000Y-113160000D01*
X155491000Y-115240000D02*
X155491000Y-115519000D01*
X155531000Y-112949000D02*
X155531000Y-113160000D01*
X155531000Y-115240000D02*
X155531000Y-115451000D01*
X155571000Y-113022000D02*
X155571000Y-115378000D01*
X155611000Y-113102000D02*
X155611000Y-115298000D01*
X155651000Y-113189000D02*
X155651000Y-115211000D01*
X155691000Y-113285000D02*
X155691000Y-115115000D01*
X155731000Y-113395000D02*
X155731000Y-115005000D01*
X155771000Y-113523000D02*
X155771000Y-114877000D01*
X155811000Y-113682000D02*
X155811000Y-114718000D01*
X155851000Y-113916000D02*
X155851000Y-114484000D01*
X155870000Y-114200000D02*
G75*
G03*
X150630000Y-114200000I-2620000J0D01*
G01*
X150630000Y-114200000D02*
G75*
G03*
X155870000Y-114200000I2620000J0D01*
G01*
%TO.C,R15*%
X153540000Y-107430000D02*
X160080000Y-107430000D01*
X153540000Y-107760000D02*
X153540000Y-107430000D01*
X153540000Y-109840000D02*
X153540000Y-110170000D01*
X153540000Y-110170000D02*
X160080000Y-110170000D01*
X160080000Y-107430000D02*
X160080000Y-107760000D01*
X160080000Y-110170000D02*
X160080000Y-109840000D01*
%TO.C,C2*%
X107780000Y-121460000D02*
X107780000Y-124700000D01*
X107780000Y-121460000D02*
X115220000Y-121460000D01*
X107780000Y-124700000D02*
X115220000Y-124700000D01*
X115220000Y-121460000D02*
X115220000Y-124700000D01*
%TO.C,R5*%
X117460000Y-110370000D02*
X110920000Y-110370000D01*
X117460000Y-110040000D02*
X117460000Y-110370000D01*
X117460000Y-107960000D02*
X117460000Y-107630000D01*
X117460000Y-107630000D02*
X110920000Y-107630000D01*
X110920000Y-110370000D02*
X110920000Y-110040000D01*
X110920000Y-107630000D02*
X110920000Y-107960000D01*
%TO.C,R13*%
X163130000Y-123460000D02*
X163130000Y-116920000D01*
X163460000Y-123460000D02*
X163130000Y-123460000D01*
X165540000Y-123460000D02*
X165870000Y-123460000D01*
X165870000Y-123460000D02*
X165870000Y-116920000D01*
X163130000Y-116920000D02*
X163460000Y-116920000D01*
X165870000Y-116920000D02*
X165540000Y-116920000D01*
%TO.C,C10*%
X145161000Y-110250241D02*
X145161000Y-109620241D01*
X144846000Y-109935241D02*
X145476000Y-109935241D01*
X143770000Y-106750000D02*
X150230000Y-106750000D01*
X143770000Y-106710000D02*
X150230000Y-106710000D01*
X143770000Y-106670000D02*
X150230000Y-106670000D01*
X143772000Y-106630000D02*
X150228000Y-106630000D01*
X143773000Y-106590000D02*
X150227000Y-106590000D01*
X143776000Y-106550000D02*
X150224000Y-106550000D01*
X143778000Y-106510000D02*
X145960000Y-106510000D01*
X148040000Y-106510000D02*
X150222000Y-106510000D01*
X143782000Y-106470000D02*
X145960000Y-106470000D01*
X148040000Y-106470000D02*
X150218000Y-106470000D01*
X143785000Y-106430000D02*
X145960000Y-106430000D01*
X148040000Y-106430000D02*
X150215000Y-106430000D01*
X143789000Y-106390000D02*
X145960000Y-106390000D01*
X148040000Y-106390000D02*
X150211000Y-106390000D01*
X143794000Y-106350000D02*
X145960000Y-106350000D01*
X148040000Y-106350000D02*
X150206000Y-106350000D01*
X143799000Y-106310000D02*
X145960000Y-106310000D01*
X148040000Y-106310000D02*
X150201000Y-106310000D01*
X143805000Y-106270000D02*
X145960000Y-106270000D01*
X148040000Y-106270000D02*
X150195000Y-106270000D01*
X143811000Y-106230000D02*
X145960000Y-106230000D01*
X148040000Y-106230000D02*
X150189000Y-106230000D01*
X143818000Y-106190000D02*
X145960000Y-106190000D01*
X148040000Y-106190000D02*
X150182000Y-106190000D01*
X143825000Y-106150000D02*
X145960000Y-106150000D01*
X148040000Y-106150000D02*
X150175000Y-106150000D01*
X143833000Y-106110000D02*
X145960000Y-106110000D01*
X148040000Y-106110000D02*
X150167000Y-106110000D01*
X143841000Y-106070000D02*
X145960000Y-106070000D01*
X148040000Y-106070000D02*
X150159000Y-106070000D01*
X143850000Y-106029000D02*
X145960000Y-106029000D01*
X148040000Y-106029000D02*
X150150000Y-106029000D01*
X143859000Y-105989000D02*
X145960000Y-105989000D01*
X148040000Y-105989000D02*
X150141000Y-105989000D01*
X143869000Y-105949000D02*
X145960000Y-105949000D01*
X148040000Y-105949000D02*
X150131000Y-105949000D01*
X143879000Y-105909000D02*
X145960000Y-105909000D01*
X148040000Y-105909000D02*
X150121000Y-105909000D01*
X143890000Y-105869000D02*
X145960000Y-105869000D01*
X148040000Y-105869000D02*
X150110000Y-105869000D01*
X143902000Y-105829000D02*
X145960000Y-105829000D01*
X148040000Y-105829000D02*
X150098000Y-105829000D01*
X143914000Y-105789000D02*
X145960000Y-105789000D01*
X148040000Y-105789000D02*
X150086000Y-105789000D01*
X143926000Y-105749000D02*
X145960000Y-105749000D01*
X148040000Y-105749000D02*
X150074000Y-105749000D01*
X143939000Y-105709000D02*
X145960000Y-105709000D01*
X148040000Y-105709000D02*
X150061000Y-105709000D01*
X143953000Y-105669000D02*
X145960000Y-105669000D01*
X148040000Y-105669000D02*
X150047000Y-105669000D01*
X143967000Y-105629000D02*
X145960000Y-105629000D01*
X148040000Y-105629000D02*
X150033000Y-105629000D01*
X143982000Y-105589000D02*
X145960000Y-105589000D01*
X148040000Y-105589000D02*
X150018000Y-105589000D01*
X143998000Y-105549000D02*
X145960000Y-105549000D01*
X148040000Y-105549000D02*
X150002000Y-105549000D01*
X144014000Y-105509000D02*
X145960000Y-105509000D01*
X148040000Y-105509000D02*
X149986000Y-105509000D01*
X144030000Y-105469000D02*
X145960000Y-105469000D01*
X148040000Y-105469000D02*
X149970000Y-105469000D01*
X144048000Y-105429000D02*
X145960000Y-105429000D01*
X148040000Y-105429000D02*
X149952000Y-105429000D01*
X144066000Y-105389000D02*
X145960000Y-105389000D01*
X148040000Y-105389000D02*
X149934000Y-105389000D01*
X144084000Y-105349000D02*
X145960000Y-105349000D01*
X148040000Y-105349000D02*
X149916000Y-105349000D01*
X144104000Y-105309000D02*
X145960000Y-105309000D01*
X148040000Y-105309000D02*
X149896000Y-105309000D01*
X144124000Y-105269000D02*
X145960000Y-105269000D01*
X148040000Y-105269000D02*
X149876000Y-105269000D01*
X144144000Y-105229000D02*
X145960000Y-105229000D01*
X148040000Y-105229000D02*
X149856000Y-105229000D01*
X144166000Y-105189000D02*
X145960000Y-105189000D01*
X148040000Y-105189000D02*
X149834000Y-105189000D01*
X144188000Y-105149000D02*
X145960000Y-105149000D01*
X148040000Y-105149000D02*
X149812000Y-105149000D01*
X144210000Y-105109000D02*
X145960000Y-105109000D01*
X148040000Y-105109000D02*
X149790000Y-105109000D01*
X144234000Y-105069000D02*
X145960000Y-105069000D01*
X148040000Y-105069000D02*
X149766000Y-105069000D01*
X144258000Y-105029000D02*
X145960000Y-105029000D01*
X148040000Y-105029000D02*
X149742000Y-105029000D01*
X144284000Y-104989000D02*
X145960000Y-104989000D01*
X148040000Y-104989000D02*
X149716000Y-104989000D01*
X144310000Y-104949000D02*
X145960000Y-104949000D01*
X148040000Y-104949000D02*
X149690000Y-104949000D01*
X144336000Y-104909000D02*
X145960000Y-104909000D01*
X148040000Y-104909000D02*
X149664000Y-104909000D01*
X144364000Y-104869000D02*
X145960000Y-104869000D01*
X148040000Y-104869000D02*
X149636000Y-104869000D01*
X144393000Y-104829000D02*
X145960000Y-104829000D01*
X148040000Y-104829000D02*
X149607000Y-104829000D01*
X144422000Y-104789000D02*
X145960000Y-104789000D01*
X148040000Y-104789000D02*
X149578000Y-104789000D01*
X144452000Y-104749000D02*
X145960000Y-104749000D01*
X148040000Y-104749000D02*
X149548000Y-104749000D01*
X144484000Y-104709000D02*
X145960000Y-104709000D01*
X148040000Y-104709000D02*
X149516000Y-104709000D01*
X144516000Y-104669000D02*
X145960000Y-104669000D01*
X148040000Y-104669000D02*
X149484000Y-104669000D01*
X144550000Y-104629000D02*
X145960000Y-104629000D01*
X148040000Y-104629000D02*
X149450000Y-104629000D01*
X144584000Y-104589000D02*
X145960000Y-104589000D01*
X148040000Y-104589000D02*
X149416000Y-104589000D01*
X144620000Y-104549000D02*
X145960000Y-104549000D01*
X148040000Y-104549000D02*
X149380000Y-104549000D01*
X144657000Y-104509000D02*
X145960000Y-104509000D01*
X148040000Y-104509000D02*
X149343000Y-104509000D01*
X144695000Y-104469000D02*
X145960000Y-104469000D01*
X148040000Y-104469000D02*
X149305000Y-104469000D01*
X144735000Y-104429000D02*
X149265000Y-104429000D01*
X144776000Y-104389000D02*
X149224000Y-104389000D01*
X144818000Y-104349000D02*
X149182000Y-104349000D01*
X144863000Y-104309000D02*
X149137000Y-104309000D01*
X144908000Y-104269000D02*
X149092000Y-104269000D01*
X144956000Y-104229000D02*
X149044000Y-104229000D01*
X145005000Y-104189000D02*
X148995000Y-104189000D01*
X145056000Y-104149000D02*
X148944000Y-104149000D01*
X145110000Y-104109000D02*
X148890000Y-104109000D01*
X145166000Y-104069000D02*
X148834000Y-104069000D01*
X145224000Y-104029000D02*
X148776000Y-104029000D01*
X145286000Y-103989000D02*
X148714000Y-103989000D01*
X145350000Y-103949000D02*
X148650000Y-103949000D01*
X145419000Y-103909000D02*
X148581000Y-103909000D01*
X145491000Y-103869000D02*
X148509000Y-103869000D01*
X145568000Y-103829000D02*
X148432000Y-103829000D01*
X145650000Y-103789000D02*
X148350000Y-103789000D01*
X145738000Y-103749000D02*
X148262000Y-103749000D01*
X145835000Y-103709000D02*
X148165000Y-103709000D01*
X145941000Y-103669000D02*
X148059000Y-103669000D01*
X146060000Y-103629000D02*
X147940000Y-103629000D01*
X146198000Y-103589000D02*
X147802000Y-103589000D01*
X146367000Y-103549000D02*
X147633000Y-103549000D01*
X146598000Y-103509000D02*
X147402000Y-103509000D01*
X150270000Y-106750000D02*
G75*
G03*
X143730000Y-106750000I-3270000J0D01*
G01*
X143730000Y-106750000D02*
G75*
G03*
X150270000Y-106750000I3270000J0D01*
G01*
%TO.C,R7*%
X162130000Y-146460000D02*
X162130000Y-139920000D01*
X162460000Y-146460000D02*
X162130000Y-146460000D01*
X164540000Y-146460000D02*
X164870000Y-146460000D01*
X164870000Y-146460000D02*
X164870000Y-139920000D01*
X162130000Y-139920000D02*
X162460000Y-139920000D01*
X164870000Y-139920000D02*
X164540000Y-139920000D01*
%TO.C,JP1*%
X110830000Y-101670000D02*
X110830000Y-103000000D01*
X109500000Y-101670000D02*
X110830000Y-101670000D01*
X108230000Y-101670000D02*
X105630000Y-101670000D01*
X108230000Y-101670000D02*
X108230000Y-104330000D01*
X105630000Y-101670000D02*
X105630000Y-104330000D01*
X108230000Y-104330000D02*
X105630000Y-104330000D01*
%TO.C,R8*%
X153370000Y-134040000D02*
X153370000Y-140580000D01*
X153040000Y-134040000D02*
X153370000Y-134040000D01*
X150960000Y-134040000D02*
X150630000Y-134040000D01*
X150630000Y-134040000D02*
X150630000Y-140580000D01*
X153370000Y-140580000D02*
X153040000Y-140580000D01*
X150630000Y-140580000D02*
X150960000Y-140580000D01*
%TO.C,C1*%
X126370000Y-125880000D02*
X126055000Y-125880000D01*
X126370000Y-125880000D02*
X126370000Y-131120000D01*
X123945000Y-125880000D02*
X123630000Y-125880000D01*
X123630000Y-125880000D02*
X123630000Y-131120000D01*
X126370000Y-131120000D02*
X126055000Y-131120000D01*
X123945000Y-131120000D02*
X123630000Y-131120000D01*
%TO.C,R2*%
X116370000Y-112540000D02*
X116370000Y-119080000D01*
X116040000Y-112540000D02*
X116370000Y-112540000D01*
X113960000Y-112540000D02*
X113630000Y-112540000D01*
X113630000Y-112540000D02*
X113630000Y-119080000D01*
X116370000Y-119080000D02*
X116040000Y-119080000D01*
X113630000Y-119080000D02*
X113960000Y-119080000D01*
%TO.C,R4*%
X122540000Y-113130000D02*
X129080000Y-113130000D01*
X122540000Y-113460000D02*
X122540000Y-113130000D01*
X122540000Y-115540000D02*
X122540000Y-115870000D01*
X122540000Y-115870000D02*
X129080000Y-115870000D01*
X129080000Y-113130000D02*
X129080000Y-113460000D01*
X129080000Y-115870000D02*
X129080000Y-115540000D01*
%TO.C,R9*%
X162370000Y-114540000D02*
X162370000Y-121080000D01*
X162040000Y-114540000D02*
X162370000Y-114540000D01*
X159960000Y-114540000D02*
X159630000Y-114540000D01*
X159630000Y-114540000D02*
X159630000Y-121080000D01*
X162370000Y-121080000D02*
X162040000Y-121080000D01*
X159630000Y-121080000D02*
X159960000Y-121080000D01*
%TO.C,C3*%
X101945225Y-106525000D02*
X102445225Y-106525000D01*
X102195225Y-106275000D02*
X102195225Y-106775000D01*
X104750000Y-105420000D02*
X104750000Y-110580000D01*
X104790000Y-105420000D02*
X104790000Y-110580000D01*
X104830000Y-105421000D02*
X104830000Y-110579000D01*
X104870000Y-105422000D02*
X104870000Y-110578000D01*
X104910000Y-105424000D02*
X104910000Y-110576000D01*
X104950000Y-105427000D02*
X104950000Y-110573000D01*
X104990000Y-105431000D02*
X104990000Y-106960000D01*
X104990000Y-109040000D02*
X104990000Y-110569000D01*
X105030000Y-105435000D02*
X105030000Y-106960000D01*
X105030000Y-109040000D02*
X105030000Y-110565000D01*
X105070000Y-105439000D02*
X105070000Y-106960000D01*
X105070000Y-109040000D02*
X105070000Y-110561000D01*
X105110000Y-105444000D02*
X105110000Y-106960000D01*
X105110000Y-109040000D02*
X105110000Y-110556000D01*
X105150000Y-105450000D02*
X105150000Y-106960000D01*
X105150000Y-109040000D02*
X105150000Y-110550000D01*
X105190000Y-105457000D02*
X105190000Y-106960000D01*
X105190000Y-109040000D02*
X105190000Y-110543000D01*
X105230000Y-105464000D02*
X105230000Y-106960000D01*
X105230000Y-109040000D02*
X105230000Y-110536000D01*
X105270000Y-105472000D02*
X105270000Y-106960000D01*
X105270000Y-109040000D02*
X105270000Y-110528000D01*
X105310000Y-105480000D02*
X105310000Y-106960000D01*
X105310000Y-109040000D02*
X105310000Y-110520000D01*
X105350000Y-105489000D02*
X105350000Y-106960000D01*
X105350000Y-109040000D02*
X105350000Y-110511000D01*
X105390000Y-105499000D02*
X105390000Y-106960000D01*
X105390000Y-109040000D02*
X105390000Y-110501000D01*
X105430000Y-105509000D02*
X105430000Y-106960000D01*
X105430000Y-109040000D02*
X105430000Y-110491000D01*
X105471000Y-105520000D02*
X105471000Y-106960000D01*
X105471000Y-109040000D02*
X105471000Y-110480000D01*
X105511000Y-105532000D02*
X105511000Y-106960000D01*
X105511000Y-109040000D02*
X105511000Y-110468000D01*
X105551000Y-105545000D02*
X105551000Y-106960000D01*
X105551000Y-109040000D02*
X105551000Y-110455000D01*
X105591000Y-105558000D02*
X105591000Y-106960000D01*
X105591000Y-109040000D02*
X105591000Y-110442000D01*
X105631000Y-105572000D02*
X105631000Y-106960000D01*
X105631000Y-109040000D02*
X105631000Y-110428000D01*
X105671000Y-105586000D02*
X105671000Y-106960000D01*
X105671000Y-109040000D02*
X105671000Y-110414000D01*
X105711000Y-105602000D02*
X105711000Y-106960000D01*
X105711000Y-109040000D02*
X105711000Y-110398000D01*
X105751000Y-105618000D02*
X105751000Y-106960000D01*
X105751000Y-109040000D02*
X105751000Y-110382000D01*
X105791000Y-105635000D02*
X105791000Y-106960000D01*
X105791000Y-109040000D02*
X105791000Y-110365000D01*
X105831000Y-105652000D02*
X105831000Y-106960000D01*
X105831000Y-109040000D02*
X105831000Y-110348000D01*
X105871000Y-105671000D02*
X105871000Y-106960000D01*
X105871000Y-109040000D02*
X105871000Y-110329000D01*
X105911000Y-105690000D02*
X105911000Y-106960000D01*
X105911000Y-109040000D02*
X105911000Y-110310000D01*
X105951000Y-105710000D02*
X105951000Y-106960000D01*
X105951000Y-109040000D02*
X105951000Y-110290000D01*
X105991000Y-105732000D02*
X105991000Y-106960000D01*
X105991000Y-109040000D02*
X105991000Y-110268000D01*
X106031000Y-105753000D02*
X106031000Y-106960000D01*
X106031000Y-109040000D02*
X106031000Y-110247000D01*
X106071000Y-105776000D02*
X106071000Y-106960000D01*
X106071000Y-109040000D02*
X106071000Y-110224000D01*
X106111000Y-105800000D02*
X106111000Y-106960000D01*
X106111000Y-109040000D02*
X106111000Y-110200000D01*
X106151000Y-105825000D02*
X106151000Y-106960000D01*
X106151000Y-109040000D02*
X106151000Y-110175000D01*
X106191000Y-105851000D02*
X106191000Y-106960000D01*
X106191000Y-109040000D02*
X106191000Y-110149000D01*
X106231000Y-105878000D02*
X106231000Y-106960000D01*
X106231000Y-109040000D02*
X106231000Y-110122000D01*
X106271000Y-105905000D02*
X106271000Y-106960000D01*
X106271000Y-109040000D02*
X106271000Y-110095000D01*
X106311000Y-105935000D02*
X106311000Y-106960000D01*
X106311000Y-109040000D02*
X106311000Y-110065000D01*
X106351000Y-105965000D02*
X106351000Y-106960000D01*
X106351000Y-109040000D02*
X106351000Y-110035000D01*
X106391000Y-105996000D02*
X106391000Y-106960000D01*
X106391000Y-109040000D02*
X106391000Y-110004000D01*
X106431000Y-106029000D02*
X106431000Y-106960000D01*
X106431000Y-109040000D02*
X106431000Y-109971000D01*
X106471000Y-106063000D02*
X106471000Y-106960000D01*
X106471000Y-109040000D02*
X106471000Y-109937000D01*
X106511000Y-106099000D02*
X106511000Y-106960000D01*
X106511000Y-109040000D02*
X106511000Y-109901000D01*
X106551000Y-106136000D02*
X106551000Y-106960000D01*
X106551000Y-109040000D02*
X106551000Y-109864000D01*
X106591000Y-106174000D02*
X106591000Y-106960000D01*
X106591000Y-109040000D02*
X106591000Y-109826000D01*
X106631000Y-106215000D02*
X106631000Y-106960000D01*
X106631000Y-109040000D02*
X106631000Y-109785000D01*
X106671000Y-106257000D02*
X106671000Y-106960000D01*
X106671000Y-109040000D02*
X106671000Y-109743000D01*
X106711000Y-106301000D02*
X106711000Y-106960000D01*
X106711000Y-109040000D02*
X106711000Y-109699000D01*
X106751000Y-106347000D02*
X106751000Y-106960000D01*
X106751000Y-109040000D02*
X106751000Y-109653000D01*
X106791000Y-106395000D02*
X106791000Y-106960000D01*
X106791000Y-109040000D02*
X106791000Y-109605000D01*
X106831000Y-106446000D02*
X106831000Y-106960000D01*
X106831000Y-109040000D02*
X106831000Y-109554000D01*
X106871000Y-106500000D02*
X106871000Y-106960000D01*
X106871000Y-109040000D02*
X106871000Y-109500000D01*
X106911000Y-106557000D02*
X106911000Y-106960000D01*
X106911000Y-109040000D02*
X106911000Y-109443000D01*
X106951000Y-106617000D02*
X106951000Y-106960000D01*
X106951000Y-109040000D02*
X106951000Y-109383000D01*
X106991000Y-106681000D02*
X106991000Y-106960000D01*
X106991000Y-109040000D02*
X106991000Y-109319000D01*
X107031000Y-106749000D02*
X107031000Y-106960000D01*
X107031000Y-109040000D02*
X107031000Y-109251000D01*
X107071000Y-106822000D02*
X107071000Y-109178000D01*
X107111000Y-106902000D02*
X107111000Y-109098000D01*
X107151000Y-106989000D02*
X107151000Y-109011000D01*
X107191000Y-107085000D02*
X107191000Y-108915000D01*
X107231000Y-107195000D02*
X107231000Y-108805000D01*
X107271000Y-107323000D02*
X107271000Y-108677000D01*
X107311000Y-107482000D02*
X107311000Y-108518000D01*
X107351000Y-107716000D02*
X107351000Y-108284000D01*
X107370000Y-108000000D02*
G75*
G03*
X102130000Y-108000000I-2620000J0D01*
G01*
X102130000Y-108000000D02*
G75*
G03*
X107370000Y-108000000I2620000J0D01*
G01*
%TO.C,R11*%
X141460000Y-108370000D02*
X134920000Y-108370000D01*
X141460000Y-108040000D02*
X141460000Y-108370000D01*
X141460000Y-105960000D02*
X141460000Y-105630000D01*
X141460000Y-105630000D02*
X134920000Y-105630000D01*
X134920000Y-108370000D02*
X134920000Y-108040000D01*
X134920000Y-105630000D02*
X134920000Y-105960000D01*
%TO.C,C11*%
X139880000Y-110630000D02*
X139880000Y-110945000D01*
X139880000Y-110630000D02*
X145120000Y-110630000D01*
X139880000Y-113055000D02*
X139880000Y-113370000D01*
X139880000Y-113370000D02*
X145120000Y-113370000D01*
X145120000Y-110630000D02*
X145120000Y-110945000D01*
X145120000Y-113055000D02*
X145120000Y-113370000D01*
%TO.C,C4*%
X139280000Y-140880000D02*
X139280000Y-144120000D01*
X139280000Y-140880000D02*
X146720000Y-140880000D01*
X139280000Y-144120000D02*
X146720000Y-144120000D01*
X146720000Y-140880000D02*
X146720000Y-144120000D01*
%TO.C,U1*%
X131560000Y-116670000D02*
X131560000Y-126950000D01*
X131560000Y-126950000D02*
X136060000Y-126950000D01*
X132810000Y-116670000D02*
X131560000Y-116670000D01*
X136060000Y-116670000D02*
X134810000Y-116670000D01*
X136060000Y-126950000D02*
X136060000Y-116670000D01*
X132810000Y-116670000D02*
G75*
G03*
X134810000Y-116670000I1000000J0D01*
G01*
%TO.C,C6*%
X137280000Y-128380000D02*
X137280000Y-131620000D01*
X137280000Y-128380000D02*
X144720000Y-128380000D01*
X137280000Y-131620000D02*
X144720000Y-131620000D01*
X144720000Y-128380000D02*
X144720000Y-131620000D01*
%TO.C,C12*%
X120249759Y-107661000D02*
X120879759Y-107661000D01*
X120564759Y-107346000D02*
X120564759Y-107976000D01*
X123750000Y-106270000D02*
X123750000Y-112730000D01*
X123790000Y-106270000D02*
X123790000Y-112730000D01*
X123830000Y-106270000D02*
X123830000Y-112730000D01*
X123870000Y-106272000D02*
X123870000Y-112728000D01*
X123910000Y-106273000D02*
X123910000Y-112727000D01*
X123950000Y-106276000D02*
X123950000Y-112724000D01*
X123990000Y-106278000D02*
X123990000Y-108460000D01*
X123990000Y-110540000D02*
X123990000Y-112722000D01*
X124030000Y-106282000D02*
X124030000Y-108460000D01*
X124030000Y-110540000D02*
X124030000Y-112718000D01*
X124070000Y-106285000D02*
X124070000Y-108460000D01*
X124070000Y-110540000D02*
X124070000Y-112715000D01*
X124110000Y-106289000D02*
X124110000Y-108460000D01*
X124110000Y-110540000D02*
X124110000Y-112711000D01*
X124150000Y-106294000D02*
X124150000Y-108460000D01*
X124150000Y-110540000D02*
X124150000Y-112706000D01*
X124190000Y-106299000D02*
X124190000Y-108460000D01*
X124190000Y-110540000D02*
X124190000Y-112701000D01*
X124230000Y-106305000D02*
X124230000Y-108460000D01*
X124230000Y-110540000D02*
X124230000Y-112695000D01*
X124270000Y-106311000D02*
X124270000Y-108460000D01*
X124270000Y-110540000D02*
X124270000Y-112689000D01*
X124310000Y-106318000D02*
X124310000Y-108460000D01*
X124310000Y-110540000D02*
X124310000Y-112682000D01*
X124350000Y-106325000D02*
X124350000Y-108460000D01*
X124350000Y-110540000D02*
X124350000Y-112675000D01*
X124390000Y-106333000D02*
X124390000Y-108460000D01*
X124390000Y-110540000D02*
X124390000Y-112667000D01*
X124430000Y-106341000D02*
X124430000Y-108460000D01*
X124430000Y-110540000D02*
X124430000Y-112659000D01*
X124471000Y-106350000D02*
X124471000Y-108460000D01*
X124471000Y-110540000D02*
X124471000Y-112650000D01*
X124511000Y-106359000D02*
X124511000Y-108460000D01*
X124511000Y-110540000D02*
X124511000Y-112641000D01*
X124551000Y-106369000D02*
X124551000Y-108460000D01*
X124551000Y-110540000D02*
X124551000Y-112631000D01*
X124591000Y-106379000D02*
X124591000Y-108460000D01*
X124591000Y-110540000D02*
X124591000Y-112621000D01*
X124631000Y-106390000D02*
X124631000Y-108460000D01*
X124631000Y-110540000D02*
X124631000Y-112610000D01*
X124671000Y-106402000D02*
X124671000Y-108460000D01*
X124671000Y-110540000D02*
X124671000Y-112598000D01*
X124711000Y-106414000D02*
X124711000Y-108460000D01*
X124711000Y-110540000D02*
X124711000Y-112586000D01*
X124751000Y-106426000D02*
X124751000Y-108460000D01*
X124751000Y-110540000D02*
X124751000Y-112574000D01*
X124791000Y-106439000D02*
X124791000Y-108460000D01*
X124791000Y-110540000D02*
X124791000Y-112561000D01*
X124831000Y-106453000D02*
X124831000Y-108460000D01*
X124831000Y-110540000D02*
X124831000Y-112547000D01*
X124871000Y-106467000D02*
X124871000Y-108460000D01*
X124871000Y-110540000D02*
X124871000Y-112533000D01*
X124911000Y-106482000D02*
X124911000Y-108460000D01*
X124911000Y-110540000D02*
X124911000Y-112518000D01*
X124951000Y-106498000D02*
X124951000Y-108460000D01*
X124951000Y-110540000D02*
X124951000Y-112502000D01*
X124991000Y-106514000D02*
X124991000Y-108460000D01*
X124991000Y-110540000D02*
X124991000Y-112486000D01*
X125031000Y-106530000D02*
X125031000Y-108460000D01*
X125031000Y-110540000D02*
X125031000Y-112470000D01*
X125071000Y-106548000D02*
X125071000Y-108460000D01*
X125071000Y-110540000D02*
X125071000Y-112452000D01*
X125111000Y-106566000D02*
X125111000Y-108460000D01*
X125111000Y-110540000D02*
X125111000Y-112434000D01*
X125151000Y-106584000D02*
X125151000Y-108460000D01*
X125151000Y-110540000D02*
X125151000Y-112416000D01*
X125191000Y-106604000D02*
X125191000Y-108460000D01*
X125191000Y-110540000D02*
X125191000Y-112396000D01*
X125231000Y-106624000D02*
X125231000Y-108460000D01*
X125231000Y-110540000D02*
X125231000Y-112376000D01*
X125271000Y-106644000D02*
X125271000Y-108460000D01*
X125271000Y-110540000D02*
X125271000Y-112356000D01*
X125311000Y-106666000D02*
X125311000Y-108460000D01*
X125311000Y-110540000D02*
X125311000Y-112334000D01*
X125351000Y-106688000D02*
X125351000Y-108460000D01*
X125351000Y-110540000D02*
X125351000Y-112312000D01*
X125391000Y-106710000D02*
X125391000Y-108460000D01*
X125391000Y-110540000D02*
X125391000Y-112290000D01*
X125431000Y-106734000D02*
X125431000Y-108460000D01*
X125431000Y-110540000D02*
X125431000Y-112266000D01*
X125471000Y-106758000D02*
X125471000Y-108460000D01*
X125471000Y-110540000D02*
X125471000Y-112242000D01*
X125511000Y-106784000D02*
X125511000Y-108460000D01*
X125511000Y-110540000D02*
X125511000Y-112216000D01*
X125551000Y-106810000D02*
X125551000Y-108460000D01*
X125551000Y-110540000D02*
X125551000Y-112190000D01*
X125591000Y-106836000D02*
X125591000Y-108460000D01*
X125591000Y-110540000D02*
X125591000Y-112164000D01*
X125631000Y-106864000D02*
X125631000Y-108460000D01*
X125631000Y-110540000D02*
X125631000Y-112136000D01*
X125671000Y-106893000D02*
X125671000Y-108460000D01*
X125671000Y-110540000D02*
X125671000Y-112107000D01*
X125711000Y-106922000D02*
X125711000Y-108460000D01*
X125711000Y-110540000D02*
X125711000Y-112078000D01*
X125751000Y-106952000D02*
X125751000Y-108460000D01*
X125751000Y-110540000D02*
X125751000Y-112048000D01*
X125791000Y-106984000D02*
X125791000Y-108460000D01*
X125791000Y-110540000D02*
X125791000Y-112016000D01*
X125831000Y-107016000D02*
X125831000Y-108460000D01*
X125831000Y-110540000D02*
X125831000Y-111984000D01*
X125871000Y-107050000D02*
X125871000Y-108460000D01*
X125871000Y-110540000D02*
X125871000Y-111950000D01*
X125911000Y-107084000D02*
X125911000Y-108460000D01*
X125911000Y-110540000D02*
X125911000Y-111916000D01*
X125951000Y-107120000D02*
X125951000Y-108460000D01*
X125951000Y-110540000D02*
X125951000Y-111880000D01*
X125991000Y-107157000D02*
X125991000Y-108460000D01*
X125991000Y-110540000D02*
X125991000Y-111843000D01*
X126031000Y-107195000D02*
X126031000Y-108460000D01*
X126031000Y-110540000D02*
X126031000Y-111805000D01*
X126071000Y-107235000D02*
X126071000Y-111765000D01*
X126111000Y-107276000D02*
X126111000Y-111724000D01*
X126151000Y-107318000D02*
X126151000Y-111682000D01*
X126191000Y-107363000D02*
X126191000Y-111637000D01*
X126231000Y-107408000D02*
X126231000Y-111592000D01*
X126271000Y-107456000D02*
X126271000Y-111544000D01*
X126311000Y-107505000D02*
X126311000Y-111495000D01*
X126351000Y-107556000D02*
X126351000Y-111444000D01*
X126391000Y-107610000D02*
X126391000Y-111390000D01*
X126431000Y-107666000D02*
X126431000Y-111334000D01*
X126471000Y-107724000D02*
X126471000Y-111276000D01*
X126511000Y-107786000D02*
X126511000Y-111214000D01*
X126551000Y-107850000D02*
X126551000Y-111150000D01*
X126591000Y-107919000D02*
X126591000Y-111081000D01*
X126631000Y-107991000D02*
X126631000Y-111009000D01*
X126671000Y-108068000D02*
X126671000Y-110932000D01*
X126711000Y-108150000D02*
X126711000Y-110850000D01*
X126751000Y-108238000D02*
X126751000Y-110762000D01*
X126791000Y-108335000D02*
X126791000Y-110665000D01*
X126831000Y-108441000D02*
X126831000Y-110559000D01*
X126871000Y-108560000D02*
X126871000Y-110440000D01*
X126911000Y-108698000D02*
X126911000Y-110302000D01*
X126951000Y-108867000D02*
X126951000Y-110133000D01*
X126991000Y-109098000D02*
X126991000Y-109902000D01*
X127020000Y-109500000D02*
G75*
G03*
X120480000Y-109500000I-3270000J0D01*
G01*
X120480000Y-109500000D02*
G75*
G03*
X127020000Y-109500000I3270000J0D01*
G01*
%TO.C,R12*%
X126540000Y-102630000D02*
X133080000Y-102630000D01*
X126540000Y-102960000D02*
X126540000Y-102630000D01*
X126540000Y-105040000D02*
X126540000Y-105370000D01*
X126540000Y-105370000D02*
X133080000Y-105370000D01*
X133080000Y-102630000D02*
X133080000Y-102960000D01*
X133080000Y-105370000D02*
X133080000Y-105040000D01*
%TD*%
M02*
