%TF.GenerationSoftware,KiCad,Pcbnew,7.0.11+dfsg-1build4*%
%TF.CreationDate,2026-10-06T23:37:00+03:00*%
%TF.ProjectId,guitar_preamp,67756974-6172-45f7-9072-65616d702e6b,1.0*%
%TF.SameCoordinates,Original*%
%TF.FileFunction,Copper,L2,Bot*%
%TF.FilePolarity,Positive*%
%FSLAX46Y46*%
G04 Gerber Fmt 4.6, Leading zero omitted, Abs format (unit mm)*
G04 Created by KiCad (PCBNEW 7.0.11+dfsg-1build4) date 2026-10-06 23:37:00*
%MOMM*%
%LPD*%
G01*
G04 APERTURE LIST*
%ADD10C,0.350000*%
%TA.AperFunction,NonConductor*%
%ADD11C,0.350000*%
%TD*%
%TA.AperFunction,ComponentPad*%
%ADD12R,2.000000X2.000000*%
%TD*%
%TA.AperFunction,ComponentPad*%
%ADD13C,2.000000*%
%TD*%
%TA.AperFunction,ComponentPad*%
%ADD14O,2.000000X2.000000*%
%TD*%
%TA.AperFunction,ComponentPad*%
%ADD15R,2.600000X2.600000*%
%TD*%
%TA.AperFunction,ComponentPad*%
%ADD16C,2.600000*%
%TD*%
%TA.AperFunction,ComponentPad*%
%ADD17R,2.400000X1.700000*%
%TD*%
%TA.AperFunction,ComponentPad*%
%ADD18O,2.400000X1.700000*%
%TD*%
%TA.AperFunction,Conductor*%
%ADD19C,0.800000*%
%TD*%
G04 APERTURE END LIST*
D10*
D11*
X122928572Y-145600228D02*
X123100001Y-145514514D01*
X123100001Y-145514514D02*
X123357143Y-145514514D01*
X123357143Y-145514514D02*
X123614286Y-145600228D01*
X123614286Y-145600228D02*
X123785715Y-145771657D01*
X123785715Y-145771657D02*
X123871429Y-145943085D01*
X123871429Y-145943085D02*
X123957143Y-146285942D01*
X123957143Y-146285942D02*
X123957143Y-146543085D01*
X123957143Y-146543085D02*
X123871429Y-146885942D01*
X123871429Y-146885942D02*
X123785715Y-147057371D01*
X123785715Y-147057371D02*
X123614286Y-147228800D01*
X123614286Y-147228800D02*
X123357143Y-147314514D01*
X123357143Y-147314514D02*
X123185715Y-147314514D01*
X123185715Y-147314514D02*
X122928572Y-147228800D01*
X122928572Y-147228800D02*
X122842858Y-147143085D01*
X122842858Y-147143085D02*
X122842858Y-146543085D01*
X122842858Y-146543085D02*
X123185715Y-146543085D01*
X122328572Y-145514514D02*
X121300001Y-145514514D01*
X121814286Y-147314514D02*
X121814286Y-145514514D01*
X119671429Y-147314514D02*
X120271429Y-146457371D01*
X120700000Y-147314514D02*
X120700000Y-145514514D01*
X120700000Y-145514514D02*
X120014286Y-145514514D01*
X120014286Y-145514514D02*
X119842857Y-145600228D01*
X119842857Y-145600228D02*
X119757143Y-145685942D01*
X119757143Y-145685942D02*
X119671429Y-145857371D01*
X119671429Y-145857371D02*
X119671429Y-146114514D01*
X119671429Y-146114514D02*
X119757143Y-146285942D01*
X119757143Y-146285942D02*
X119842857Y-146371657D01*
X119842857Y-146371657D02*
X120014286Y-146457371D01*
X120014286Y-146457371D02*
X120700000Y-146457371D01*
X117528571Y-147314514D02*
X117528571Y-145514514D01*
X117528571Y-145514514D02*
X116842857Y-145514514D01*
X116842857Y-145514514D02*
X116671428Y-145600228D01*
X116671428Y-145600228D02*
X116585714Y-145685942D01*
X116585714Y-145685942D02*
X116500000Y-145857371D01*
X116500000Y-145857371D02*
X116500000Y-146114514D01*
X116500000Y-146114514D02*
X116585714Y-146285942D01*
X116585714Y-146285942D02*
X116671428Y-146371657D01*
X116671428Y-146371657D02*
X116842857Y-146457371D01*
X116842857Y-146457371D02*
X117528571Y-146457371D01*
X114700000Y-147314514D02*
X115300000Y-146457371D01*
X115728571Y-147314514D02*
X115728571Y-145514514D01*
X115728571Y-145514514D02*
X115042857Y-145514514D01*
X115042857Y-145514514D02*
X114871428Y-145600228D01*
X114871428Y-145600228D02*
X114785714Y-145685942D01*
X114785714Y-145685942D02*
X114700000Y-145857371D01*
X114700000Y-145857371D02*
X114700000Y-146114514D01*
X114700000Y-146114514D02*
X114785714Y-146285942D01*
X114785714Y-146285942D02*
X114871428Y-146371657D01*
X114871428Y-146371657D02*
X115042857Y-146457371D01*
X115042857Y-146457371D02*
X115728571Y-146457371D01*
X113928571Y-146371657D02*
X113328571Y-146371657D01*
X113071428Y-147314514D02*
X113928571Y-147314514D01*
X113928571Y-147314514D02*
X113928571Y-145514514D01*
X113928571Y-145514514D02*
X113071428Y-145514514D01*
X111100000Y-146114514D02*
X110671428Y-147314514D01*
X110671428Y-147314514D02*
X110242857Y-146114514D01*
X108614285Y-147314514D02*
X109642856Y-147314514D01*
X109128571Y-147314514D02*
X109128571Y-145514514D01*
X109128571Y-145514514D02*
X109299999Y-145771657D01*
X109299999Y-145771657D02*
X109471428Y-145943085D01*
X109471428Y-145943085D02*
X109642856Y-146028800D01*
X107842856Y-147143085D02*
X107757142Y-147228800D01*
X107757142Y-147228800D02*
X107842856Y-147314514D01*
X107842856Y-147314514D02*
X107928570Y-147228800D01*
X107928570Y-147228800D02*
X107842856Y-147143085D01*
X107842856Y-147143085D02*
X107842856Y-147314514D01*
X106642856Y-145514514D02*
X106471427Y-145514514D01*
X106471427Y-145514514D02*
X106299999Y-145600228D01*
X106299999Y-145600228D02*
X106214285Y-145685942D01*
X106214285Y-145685942D02*
X106128570Y-145857371D01*
X106128570Y-145857371D02*
X106042856Y-146200228D01*
X106042856Y-146200228D02*
X106042856Y-146628800D01*
X106042856Y-146628800D02*
X106128570Y-146971657D01*
X106128570Y-146971657D02*
X106214285Y-147143085D01*
X106214285Y-147143085D02*
X106299999Y-147228800D01*
X106299999Y-147228800D02*
X106471427Y-147314514D01*
X106471427Y-147314514D02*
X106642856Y-147314514D01*
X106642856Y-147314514D02*
X106814285Y-147228800D01*
X106814285Y-147228800D02*
X106899999Y-147143085D01*
X106899999Y-147143085D02*
X106985713Y-146971657D01*
X106985713Y-146971657D02*
X107071427Y-146628800D01*
X107071427Y-146628800D02*
X107071427Y-146200228D01*
X107071427Y-146200228D02*
X106985713Y-145857371D01*
X106985713Y-145857371D02*
X106899999Y-145685942D01*
X106899999Y-145685942D02*
X106814285Y-145600228D01*
X106814285Y-145600228D02*
X106642856Y-145514514D01*
D12*
%TO.P,C3,1*%
%TO.N,N3*%
X103500000Y-108000000D03*
D13*
%TO.P,C3,2*%
%TO.N,GND*%
X106000000Y-108000000D03*
%TD*%
%TO.P,R12,1*%
%TO.N,VREF*%
X126000000Y-104000000D03*
D14*
%TO.P,R12,2*%
%TO.N,GND*%
X133620000Y-104000000D03*
%TD*%
D15*
%TO.P,J3,1*%
%TO.N,OUT*%
X166000000Y-126000000D03*
D16*
%TO.P,J3,2*%
%TO.N,GND*%
X166000000Y-130600000D03*
%TD*%
D13*
%TO.P,R8,1*%
%TO.N,TW*%
X152000000Y-133500000D03*
D14*
%TO.P,R8,2*%
%TO.N,INB_N*%
X152000000Y-141120000D03*
%TD*%
D12*
%TO.P,C12,1*%
%TO.N,VREF*%
X122500000Y-109500000D03*
D13*
%TO.P,C12,2*%
%TO.N,GND*%
X125000000Y-109500000D03*
%TD*%
%TO.P,C7,1*%
%TO.N,T2*%
X161000000Y-130000000D03*
%TO.P,C7,2*%
%TO.N,OUTB*%
X161000000Y-125000000D03*
%TD*%
D12*
%TO.P,C9,1*%
%TO.N,OUTB*%
X152000000Y-112000000D03*
D13*
%TO.P,C9,2*%
%TO.N,N4*%
X154500000Y-112000000D03*
%TD*%
D15*
%TO.P,J2,1*%
%TO.N,BAT+*%
X164500000Y-105500000D03*
%TD*%
D13*
%TO.P,C6,1*%
%TO.N,OUTA*%
X138500000Y-130000000D03*
%TO.P,C6,2*%
%TO.N,T1*%
X143500000Y-130000000D03*
%TD*%
%TO.P,R7,1*%
%TO.N,B2*%
X163500000Y-147000000D03*
D14*
%TO.P,R7,2*%
%TO.N,OUTB*%
X163500000Y-139380000D03*
%TD*%
D13*
%TO.P,C11,1*%
%TO.N,VCC*%
X140000000Y-112000000D03*
%TO.P,C11,2*%
%TO.N,GND*%
X145000000Y-112000000D03*
%TD*%
%TO.P,R2,1*%
%TO.N,VREF*%
X115000000Y-112000000D03*
D14*
%TO.P,R2,2*%
%TO.N,N1*%
X115000000Y-119620000D03*
%TD*%
D13*
%TO.P,R4,1*%
%TO.N,INA_N*%
X122000000Y-114500000D03*
D14*
%TO.P,R4,2*%
%TO.N,OUTA*%
X129620000Y-114500000D03*
%TD*%
D13*
%TO.P,R3,1*%
%TO.N,IN*%
X106000000Y-127000000D03*
D14*
%TO.P,R3,2*%
%TO.N,GND*%
X106000000Y-134620000D03*
%TD*%
D13*
%TO.P,C5,1*%
%TO.N,INB_N*%
X155000000Y-143000000D03*
%TO.P,C5,2*%
%TO.N,B2*%
X160000000Y-143000000D03*
%TD*%
%TO.P,R11,1*%
%TO.N,VCC*%
X142000000Y-107000000D03*
D14*
%TO.P,R11,2*%
%TO.N,VREF*%
X134380000Y-107000000D03*
%TD*%
D15*
%TO.P,RV3,1*%
%TO.N,T2*%
X156600000Y-130000000D03*
D16*
%TO.P,RV3,2*%
%TO.N,TW*%
X152000000Y-130000000D03*
%TO.P,RV3,3*%
%TO.N,T1*%
X147400000Y-130000000D03*
%TD*%
D12*
%TO.P,C10,1*%
%TO.N,VCC*%
X147000000Y-108000000D03*
D13*
%TO.P,C10,2*%
%TO.N,GND*%
X147000000Y-105500000D03*
%TD*%
%TO.P,C1,1*%
%TO.N,INP*%
X125000000Y-126000000D03*
%TO.P,C1,2*%
%TO.N,GND*%
X125000000Y-131000000D03*
%TD*%
%TO.P,C2,1*%
%TO.N,IN*%
X109000000Y-123080000D03*
%TO.P,C2,2*%
%TO.N,N1*%
X114000000Y-123080000D03*
%TD*%
%TO.P,R5,1*%
%TO.N,INA_N*%
X118000000Y-109000000D03*
D14*
%TO.P,R5,2*%
%TO.N,N2*%
X110380000Y-109000000D03*
%TD*%
D15*
%TO.P,J1,1*%
%TO.N,IN*%
X103000000Y-119500000D03*
D16*
%TO.P,J1,2*%
%TO.N,GND*%
X103000000Y-124100000D03*
%TD*%
D15*
%TO.P,RV2,1*%
%TO.N,B2*%
X152600000Y-147000000D03*
D16*
%TO.P,RV2,2*%
%TO.N,INB_N*%
X148000000Y-147000000D03*
%TO.P,RV2,3*%
%TO.N,B1*%
X143400000Y-147000000D03*
%TD*%
D13*
%TO.P,R10,1*%
%TO.N,BAT+*%
X160000000Y-105500000D03*
D14*
%TO.P,R10,2*%
%TO.N,VCC*%
X152380000Y-105500000D03*
%TD*%
D13*
%TO.P,R1,1*%
%TO.N,N1*%
X117500000Y-123080000D03*
D14*
%TO.P,R1,2*%
%TO.N,INP*%
X125120000Y-123080000D03*
%TD*%
D17*
%TO.P,U1,1*%
%TO.N,OUTA*%
X130000000Y-118000000D03*
D18*
%TO.P,U1,2*%
%TO.N,INA_N*%
X130000000Y-120540000D03*
%TO.P,U1,3*%
%TO.N,INP*%
X130000000Y-123080000D03*
%TO.P,U1,4*%
%TO.N,GND*%
X130000000Y-125620000D03*
%TO.P,U1,5*%
%TO.N,VREF*%
X137620000Y-125620000D03*
%TO.P,U1,6*%
%TO.N,INB_N*%
X137620000Y-123080000D03*
%TO.P,U1,7*%
%TO.N,OUTB*%
X137620000Y-120540000D03*
%TO.P,U1,8*%
%TO.N,VCC*%
X137620000Y-118000000D03*
%TD*%
D12*
%TO.P,JP1,1*%
%TO.N,N2*%
X109500000Y-103000000D03*
D14*
%TO.P,JP1,2*%
%TO.N,N3*%
X106960000Y-103000000D03*
%TD*%
D13*
%TO.P,R6,1*%
%TO.N,OUTA*%
X137000000Y-138000000D03*
D14*
%TO.P,R6,2*%
%TO.N,B1*%
X144620000Y-138000000D03*
%TD*%
D13*
%TO.P,R9,1*%
%TO.N,VOLW*%
X161000000Y-114000000D03*
D14*
%TO.P,R9,2*%
%TO.N,OUT*%
X161000000Y-121620000D03*
%TD*%
D13*
%TO.P,C4,1*%
%TO.N,B1*%
X140500000Y-142500000D03*
%TO.P,C4,2*%
%TO.N,INB_N*%
X145500000Y-142500000D03*
%TD*%
%TO.P,C8,1*%
%TO.N,INB_N*%
X142000000Y-122000000D03*
%TO.P,C8,2*%
%TO.N,OUTB*%
X147000000Y-122000000D03*
%TD*%
D15*
%TO.P,RV1,1*%
%TO.N,GND*%
X166000000Y-121200000D03*
D16*
%TO.P,RV1,2*%
%TO.N,VOLW*%
X166000000Y-116600000D03*
%TO.P,RV1,3*%
%TO.N,N4*%
X166000000Y-112000000D03*
%TD*%
D19*
%TO.N,OUTA*%
X138500000Y-130000000D02*
X138500000Y-136500000D01*
X129953800Y-116301900D02*
X129620000Y-116301900D01*
X138254800Y-130000000D02*
X138500000Y-130000000D01*
X130000000Y-116348100D02*
X129953800Y-116301900D01*
X130000000Y-118000000D02*
X130000000Y-117174000D01*
X130000000Y-117174000D02*
X133810000Y-120984000D01*
X130000000Y-117174000D02*
X130000000Y-116348100D01*
X138500000Y-136500000D02*
X137000000Y-138000000D01*
X133810000Y-120984000D02*
X133810000Y-125555200D01*
X133810000Y-125555200D02*
X138254800Y-130000000D01*
X129620000Y-114500000D02*
X129620000Y-116301900D01*
%TO.N,INA_N*%
X130000000Y-120540000D02*
X127998100Y-120540000D01*
X118000000Y-110500000D02*
X122000000Y-114500000D01*
X127998100Y-120498100D02*
X122000000Y-114500000D01*
X127998100Y-120540000D02*
X127998100Y-120498100D01*
X118000000Y-109000000D02*
X118000000Y-110500000D01*
%TO.N,INP*%
X125000000Y-125001900D02*
X125120000Y-124881900D01*
X130000000Y-123080000D02*
X125120000Y-123080000D01*
X125120000Y-123080000D02*
X125120000Y-124881900D01*
X125000000Y-126000000D02*
X125000000Y-125001900D01*
%TO.N,GND*%
X112976000Y-131000000D02*
X110847500Y-128871500D01*
X133620000Y-104299800D02*
X142445900Y-104299800D01*
X130000000Y-127271900D02*
X128728100Y-127271900D01*
X142445900Y-104299800D02*
X145000000Y-106853900D01*
X166000000Y-123301900D02*
X167051000Y-123301900D01*
X110847500Y-112847500D02*
X106000000Y-108000000D01*
X167051000Y-123301900D02*
X168101900Y-124352800D01*
X125000000Y-131000000D02*
X112976000Y-131000000D01*
X166000000Y-122250900D02*
X166000000Y-123301900D01*
X166000000Y-121200000D02*
X166000000Y-121725400D01*
X103000000Y-129818099D02*
X103000000Y-124100000D01*
X166000000Y-121725400D02*
X166000000Y-122250900D01*
X133620000Y-104000000D02*
X133620000Y-104299800D01*
X106000000Y-133719000D02*
X110847500Y-128871500D01*
X110847500Y-128871500D02*
X110847500Y-112847500D01*
X130000000Y-125620000D02*
X130000000Y-127271900D01*
X146353900Y-105500000D02*
X147000000Y-105500000D01*
X106000000Y-132818099D02*
X103000000Y-129818099D01*
X130200200Y-104299800D02*
X133620000Y-104299800D01*
X145000000Y-106853900D02*
X146353900Y-105500000D01*
X168101900Y-128498100D02*
X166000000Y-130600000D01*
X106000000Y-133719000D02*
X106000000Y-132818099D01*
X125000000Y-109500000D02*
X130200200Y-104299800D01*
X106000000Y-134620000D02*
X106000000Y-133719000D01*
X128728100Y-127271900D02*
X125000000Y-131000000D01*
X168101900Y-124352800D02*
X168101900Y-128498100D01*
X145000000Y-112000000D02*
X145000000Y-106853900D01*
%TO.N,VREF*%
X122500000Y-111301900D02*
X131880000Y-111301900D01*
X117271100Y-107150200D02*
X118798800Y-107150200D01*
X120698100Y-109049500D02*
X120698100Y-109500000D01*
X115000000Y-109421300D02*
X117271100Y-107150200D01*
X135618100Y-110040000D02*
X134380000Y-108801900D01*
X137620000Y-125620000D02*
X135618100Y-125620000D01*
X122500000Y-109500000D02*
X122500000Y-111301900D01*
X135618100Y-125620000D02*
X135618100Y-110040000D01*
X126000000Y-104000000D02*
X122500000Y-107500000D01*
X131880000Y-111301900D02*
X134380000Y-108801900D01*
X134380000Y-107000000D02*
X134380000Y-108801900D01*
X122500000Y-109500000D02*
X120698100Y-109500000D01*
X122500000Y-107500000D02*
X122500000Y-109500000D01*
X118798800Y-107150200D02*
X120698100Y-109049500D01*
X115000000Y-112000000D02*
X115000000Y-109421300D01*
%TO.N,INB_N*%
X152000000Y-140219000D02*
X148000000Y-144219000D01*
X153801900Y-141801900D02*
X153801900Y-141120000D01*
X152000000Y-140219000D02*
X152000000Y-139318100D01*
X155000000Y-143000000D02*
X153801900Y-141801900D01*
X141460000Y-123080000D02*
X142000000Y-122540000D01*
X137620000Y-123080000D02*
X141460000Y-123080000D01*
X148000000Y-144219000D02*
X148000000Y-147000000D01*
X142000000Y-122540000D02*
X142000000Y-122000000D01*
X149819400Y-129418600D02*
X149819400Y-137137500D01*
X145500000Y-142500000D02*
X147219000Y-144219000D01*
X152000000Y-141120000D02*
X152000000Y-140219000D01*
X142940800Y-122540000D02*
X149819400Y-129418600D01*
X152000000Y-141120000D02*
X153801900Y-141120000D01*
X142000000Y-122540000D02*
X142940800Y-122540000D01*
X149819400Y-137137500D02*
X152000000Y-139318100D01*
X147219000Y-144219000D02*
X148000000Y-144219000D01*
%TO.N,OUTB*%
X151317900Y-115317900D02*
X145817900Y-120817900D01*
X137620000Y-120540000D02*
X139621900Y-120540000D01*
X145817900Y-120817900D02*
X147000000Y-122000000D01*
X161000000Y-125000000D02*
X163500000Y-127500000D01*
X152000000Y-112900900D02*
X151317900Y-113583000D01*
X151317900Y-113583000D02*
X151317900Y-115317900D01*
X139621900Y-120540000D02*
X139986800Y-120175100D01*
X145175100Y-120175100D02*
X145817900Y-120817900D01*
X152000000Y-112000000D02*
X152000000Y-112900900D01*
X139986800Y-120175100D02*
X145175100Y-120175100D01*
X151317900Y-115317900D02*
X161000000Y-125000000D01*
X163500000Y-127500000D02*
X163500000Y-139380000D01*
%TO.N,VCC*%
X147401400Y-112166500D02*
X145725100Y-113842800D01*
X140000000Y-113968100D02*
X140000000Y-113842800D01*
X137620000Y-116348100D02*
X140000000Y-113968100D01*
X147000000Y-108000000D02*
X147401400Y-108000000D01*
X150578100Y-105500000D02*
X148801900Y-107276200D01*
X140000000Y-113842800D02*
X140000000Y-112000000D01*
X137620000Y-118000000D02*
X137620000Y-116348100D01*
X152380000Y-105500000D02*
X150578100Y-105500000D01*
X148801900Y-107276200D02*
X148801900Y-108000000D01*
X147401400Y-108000000D02*
X148801900Y-108000000D01*
X147401400Y-108000000D02*
X147401400Y-112166500D01*
X142000000Y-110000000D02*
X142000000Y-107000000D01*
X145725100Y-113842800D02*
X140000000Y-113842800D01*
X140000000Y-112000000D02*
X142000000Y-110000000D01*
%TO.N,IN*%
X109000000Y-123080000D02*
X106000000Y-126080000D01*
X106000000Y-126080000D02*
X106000000Y-126540000D01*
X103000000Y-119500000D02*
X103000000Y-121601900D01*
X106000000Y-126540000D02*
X106000000Y-124076400D01*
X106000000Y-126540000D02*
X106000000Y-127000000D01*
X103525500Y-121601900D02*
X103000000Y-121601900D01*
X106000000Y-124076400D02*
X103525500Y-121601900D01*
%TO.N,N1*%
X115000000Y-122580000D02*
X117000000Y-122580000D01*
X114000000Y-123080000D02*
X114500000Y-122580000D01*
X114500000Y-122580000D02*
X115000000Y-122580000D01*
X117000000Y-122580000D02*
X117500000Y-123080000D01*
X115000000Y-122580000D02*
X115000000Y-119620000D01*
%TO.N,N2*%
X109500000Y-103000000D02*
X109500000Y-104801900D01*
X109500000Y-104801900D02*
X110380000Y-105681900D01*
X110380000Y-105681900D02*
X110380000Y-109000000D01*
%TO.N,N3*%
X106960000Y-103000000D02*
X106960000Y-104801900D01*
X104896200Y-104801900D02*
X103500000Y-106198100D01*
X103500000Y-108000000D02*
X103500000Y-106198100D01*
X106960000Y-104801900D02*
X104896200Y-104801900D01*
%TO.N,B1*%
X143400000Y-147000000D02*
X140500000Y-144100000D01*
X140500000Y-144100000D02*
X140500000Y-142500000D01*
X140500000Y-142500000D02*
X143198100Y-139801900D01*
X144620000Y-138000000D02*
X144620000Y-139801900D01*
X143198100Y-139801900D02*
X144620000Y-139801900D01*
%TO.N,B2*%
X160000000Y-143000000D02*
X163500000Y-146500000D01*
X152600000Y-147000000D02*
X156000000Y-147000000D01*
X163500000Y-146500000D02*
X163500000Y-147000000D01*
X156000000Y-147000000D02*
X160000000Y-143000000D01*
%TO.N,T1*%
X143500000Y-130000000D02*
X147400000Y-130000000D01*
%TO.N,T2*%
X161000000Y-130000000D02*
X156600000Y-130000000D01*
%TO.N,TW*%
X152000000Y-130000000D02*
X152000000Y-133500000D01*
%TO.N,N4*%
X154500000Y-112000000D02*
X166000000Y-112000000D01*
%TO.N,VOLW*%
X163400000Y-114000000D02*
X161000000Y-114000000D01*
X166000000Y-116600000D02*
X163400000Y-114000000D01*
%TO.N,OUT*%
X162801900Y-121620000D02*
X162801900Y-122801900D01*
X162801900Y-122801900D02*
X166000000Y-126000000D01*
X161000000Y-121620000D02*
X162801900Y-121620000D01*
%TO.N,BAT+*%
X160000000Y-105500000D02*
X164500000Y-105500000D01*
%TD*%
%TA.AperFunction,Conductor*%
%TO.N,GND*%
G36*
X105644047Y-108182480D02*
G01*
X105643075Y-108181142D01*
X105642563Y-108179568D01*
X105644047Y-108182480D01*
G37*
%TD.AperFunction*%
%TA.AperFunction,Conductor*%
G36*
X105605280Y-108064822D02*
G01*
X105604499Y-108062417D01*
X105604499Y-108059887D01*
X105605280Y-108064822D01*
G37*
%TD.AperFunction*%
%TA.AperFunction,Conductor*%
G36*
X105604499Y-107940112D02*
G01*
X105604499Y-107937583D01*
X105605280Y-107935177D01*
X105604499Y-107940112D01*
G37*
%TD.AperFunction*%
%TA.AperFunction,Conductor*%
G36*
X105642563Y-107820431D02*
G01*
X105643075Y-107818858D01*
X105644047Y-107817519D01*
X105642563Y-107820431D01*
G37*
%TD.AperFunction*%
%TA.AperFunction,Conductor*%
G36*
X169223798Y-100520028D02*
G01*
X169335026Y-100576702D01*
X169423298Y-100664974D01*
X169479972Y-100776202D01*
X169499500Y-100899500D01*
X169499500Y-149100500D01*
X169479972Y-149223798D01*
X169423298Y-149335026D01*
X169335026Y-149423298D01*
X169223798Y-149479972D01*
X169100500Y-149499500D01*
X154321629Y-149499500D01*
X154198331Y-149479972D01*
X154087103Y-149423298D01*
X153998831Y-149335026D01*
X153942157Y-149223798D01*
X153922629Y-149100500D01*
X153942157Y-148977202D01*
X153998831Y-148865974D01*
X154087103Y-148777702D01*
X154130410Y-148750305D01*
X154142323Y-148743798D01*
X154142331Y-148743796D01*
X154257546Y-148657546D01*
X154343796Y-148542331D01*
X154394091Y-148407483D01*
X154400500Y-148347873D01*
X154400500Y-148299500D01*
X154420028Y-148176202D01*
X154476702Y-148064974D01*
X154564974Y-147976702D01*
X154676202Y-147920028D01*
X154799500Y-147900500D01*
X155897728Y-147900500D01*
X155931730Y-147903175D01*
X155931733Y-147903125D01*
X155952612Y-147904219D01*
X156013145Y-147901046D01*
X156034024Y-147900500D01*
X156047188Y-147900500D01*
X156047192Y-147900500D01*
X156060301Y-147899121D01*
X156081069Y-147897487D01*
X156141646Y-147894313D01*
X156141650Y-147894311D01*
X156162300Y-147891041D01*
X156162308Y-147891094D01*
X156167803Y-147890076D01*
X156167792Y-147890024D01*
X156188244Y-147885676D01*
X156188247Y-147885674D01*
X156188256Y-147885674D01*
X156245961Y-147866923D01*
X156265891Y-147861021D01*
X156324488Y-147845320D01*
X156324490Y-147845319D01*
X156344008Y-147837826D01*
X156344027Y-147837876D01*
X156349201Y-147835733D01*
X156349180Y-147835684D01*
X156368277Y-147827181D01*
X156368284Y-147827179D01*
X156420803Y-147796856D01*
X156439130Y-147786906D01*
X156493149Y-147759383D01*
X156493153Y-147759379D01*
X156510700Y-147747985D01*
X156510729Y-147748030D01*
X156515328Y-147744869D01*
X156515296Y-147744825D01*
X156532212Y-147732535D01*
X156532216Y-147732533D01*
X156577285Y-147691951D01*
X156593138Y-147678412D01*
X156603380Y-147670119D01*
X156612695Y-147660803D01*
X156627825Y-147646444D01*
X156672888Y-147605871D01*
X156672892Y-147605866D01*
X156686882Y-147590329D01*
X156686920Y-147590363D01*
X156709062Y-147564435D01*
X159656134Y-144617364D01*
X159757128Y-144543988D01*
X159875853Y-144505412D01*
X159938270Y-144500500D01*
X160061729Y-144500500D01*
X160185027Y-144520028D01*
X160296255Y-144576702D01*
X160343865Y-144617364D01*
X161948298Y-146221797D01*
X162021674Y-146322791D01*
X162060250Y-146441516D01*
X162060250Y-146566350D01*
X162052952Y-146601883D01*
X162014893Y-146752172D01*
X162014892Y-146752177D01*
X161994357Y-146999998D01*
X161994357Y-147000001D01*
X162014892Y-147247822D01*
X162014893Y-147247827D01*
X162075937Y-147488881D01*
X162175827Y-147716607D01*
X162196327Y-147747985D01*
X162311837Y-147924787D01*
X162480254Y-148107737D01*
X162562080Y-148171424D01*
X162676491Y-148260474D01*
X162895190Y-148378828D01*
X162895196Y-148378830D01*
X162895198Y-148378831D01*
X162895197Y-148378831D01*
X162990750Y-148411634D01*
X163130386Y-148459571D01*
X163293604Y-148486806D01*
X163375657Y-148500499D01*
X163375665Y-148500500D01*
X163624335Y-148500500D01*
X163624342Y-148500499D01*
X163665515Y-148493628D01*
X163869614Y-148459571D01*
X164039282Y-148401323D01*
X164104802Y-148378831D01*
X164104803Y-148378830D01*
X164104810Y-148378828D01*
X164323509Y-148260474D01*
X164519744Y-148107738D01*
X164688164Y-147924785D01*
X164824173Y-147716607D01*
X164924063Y-147488881D01*
X164985108Y-147247821D01*
X165005643Y-147000000D01*
X164985108Y-146752179D01*
X164924063Y-146511119D01*
X164824173Y-146283393D01*
X164688164Y-146075215D01*
X164688163Y-146075214D01*
X164688162Y-146075212D01*
X164519745Y-145892262D01*
X164365125Y-145771917D01*
X164323509Y-145739526D01*
X164104810Y-145621172D01*
X164104805Y-145621170D01*
X164104801Y-145621168D01*
X164104802Y-145621168D01*
X163872126Y-145541291D01*
X163761850Y-145482786D01*
X163719545Y-145446046D01*
X161618652Y-143345153D01*
X161545276Y-143244159D01*
X161506700Y-143125434D01*
X161503151Y-143030068D01*
X161505643Y-143000000D01*
X161485108Y-142752179D01*
X161424063Y-142511119D01*
X161324173Y-142283393D01*
X161188164Y-142075215D01*
X161188163Y-142075214D01*
X161188162Y-142075212D01*
X161019745Y-141892262D01*
X160879869Y-141783393D01*
X160823509Y-141739526D01*
X160604810Y-141621172D01*
X160604805Y-141621170D01*
X160604801Y-141621168D01*
X160604802Y-141621168D01*
X160369615Y-141540429D01*
X160124342Y-141499500D01*
X160124335Y-141499500D01*
X159875665Y-141499500D01*
X159875657Y-141499500D01*
X159630384Y-141540429D01*
X159395197Y-141621168D01*
X159176492Y-141739525D01*
X158980254Y-141892262D01*
X158811837Y-142075212D01*
X158675828Y-142283391D01*
X158575937Y-142511117D01*
X158514893Y-142752172D01*
X158514892Y-142752177D01*
X158494357Y-142999998D01*
X158494357Y-143000004D01*
X158496848Y-143030068D01*
X158487568Y-143154558D01*
X158440273Y-143270086D01*
X158381347Y-143345151D01*
X155743865Y-145982635D01*
X155642871Y-146056012D01*
X155524147Y-146094588D01*
X155461729Y-146099500D01*
X154799499Y-146099500D01*
X154676201Y-146079972D01*
X154564973Y-146023298D01*
X154476701Y-145935026D01*
X154420027Y-145823798D01*
X154400499Y-145700500D01*
X154400499Y-145652136D01*
X154400499Y-145652128D01*
X154394091Y-145592517D01*
X154343796Y-145457669D01*
X154257546Y-145342454D01*
X154170268Y-145277118D01*
X154142334Y-145256206D01*
X154142329Y-145256203D01*
X154007482Y-145205908D01*
X153954281Y-145200188D01*
X153947873Y-145199500D01*
X153947872Y-145199500D01*
X151252136Y-145199500D01*
X151252129Y-145199500D01*
X151252128Y-145199501D01*
X151244949Y-145200272D01*
X151192519Y-145205908D01*
X151192517Y-145205909D01*
X151057672Y-145256202D01*
X151057665Y-145256206D01*
X150942458Y-145342450D01*
X150942450Y-145342458D01*
X150856206Y-145457665D01*
X150856203Y-145457670D01*
X150805908Y-145592517D01*
X150799500Y-145652127D01*
X150799500Y-148347863D01*
X150799501Y-148347870D01*
X150805908Y-148407480D01*
X150805908Y-148407481D01*
X150805909Y-148407483D01*
X150807458Y-148411635D01*
X150856202Y-148542327D01*
X150856203Y-148542329D01*
X150856204Y-148542331D01*
X150942454Y-148657546D01*
X151057669Y-148743796D01*
X151057673Y-148743797D01*
X151069590Y-148750305D01*
X151168447Y-148826535D01*
X151238910Y-148929583D01*
X151274080Y-149049360D01*
X151270516Y-149174144D01*
X151228566Y-149291719D01*
X151152336Y-149390576D01*
X151049288Y-149461039D01*
X150929511Y-149496209D01*
X150878371Y-149499500D01*
X148652471Y-149499500D01*
X148529173Y-149479972D01*
X148417945Y-149423298D01*
X148329673Y-149335026D01*
X148272999Y-149223798D01*
X148253471Y-149100500D01*
X148272999Y-148977202D01*
X148329673Y-148865974D01*
X148417945Y-148777702D01*
X148529173Y-148721028D01*
X148534792Y-148719248D01*
X148659641Y-148680738D01*
X148902775Y-148563651D01*
X149125741Y-148411635D01*
X149323561Y-148228085D01*
X149491815Y-148017102D01*
X149626743Y-147783398D01*
X149725334Y-147532195D01*
X149785383Y-147269103D01*
X149805549Y-147000000D01*
X149785383Y-146730897D01*
X149725334Y-146467805D01*
X149626743Y-146216602D01*
X149556299Y-146094588D01*
X149491820Y-145982906D01*
X149491818Y-145982903D01*
X149491815Y-145982898D01*
X149323561Y-145771915D01*
X149125741Y-145588365D01*
X149121985Y-145585804D01*
X149074732Y-145553587D01*
X148983860Y-145467995D01*
X148923886Y-145358511D01*
X148900678Y-145235853D01*
X148900500Y-145223920D01*
X148900500Y-144757270D01*
X148920028Y-144633972D01*
X148976702Y-144522744D01*
X149017358Y-144475140D01*
X150924287Y-142568211D01*
X151025277Y-142494838D01*
X151144002Y-142456262D01*
X151268836Y-142456262D01*
X151380008Y-142492384D01*
X151380088Y-142492203D01*
X151381906Y-142493000D01*
X151387561Y-142494838D01*
X151394988Y-142498739D01*
X151395197Y-142498831D01*
X151486168Y-142530061D01*
X151630386Y-142579571D01*
X151793604Y-142606806D01*
X151875657Y-142620499D01*
X151875665Y-142620500D01*
X152124335Y-142620500D01*
X152124342Y-142620499D01*
X152165515Y-142613628D01*
X152369614Y-142579571D01*
X152569008Y-142511119D01*
X152604802Y-142498831D01*
X152604804Y-142498829D01*
X152604810Y-142498828D01*
X152743125Y-142423975D01*
X152860852Y-142382468D01*
X152985649Y-142379371D01*
X153105294Y-142414991D01*
X153178180Y-142463763D01*
X153179104Y-142462492D01*
X153189846Y-142470296D01*
X153196733Y-142476178D01*
X153200003Y-142478366D01*
X153211566Y-142488777D01*
X153211531Y-142488815D01*
X153237466Y-142510965D01*
X153381347Y-142654846D01*
X153454723Y-142755840D01*
X153493299Y-142874565D01*
X153496848Y-142969926D01*
X153494358Y-142999996D01*
X153494357Y-143000003D01*
X153514892Y-143247822D01*
X153514893Y-143247827D01*
X153575937Y-143488881D01*
X153675827Y-143716607D01*
X153675828Y-143716608D01*
X153811837Y-143924787D01*
X153980254Y-144107737D01*
X154030946Y-144147192D01*
X154176491Y-144260474D01*
X154395190Y-144378828D01*
X154395196Y-144378830D01*
X154395198Y-144378831D01*
X154395197Y-144378831D01*
X154528161Y-144424477D01*
X154630386Y-144459571D01*
X154787679Y-144485818D01*
X154875657Y-144500499D01*
X154875665Y-144500500D01*
X155124335Y-144500500D01*
X155124342Y-144500499D01*
X155165515Y-144493628D01*
X155369614Y-144459571D01*
X155539282Y-144401323D01*
X155604802Y-144378831D01*
X155604803Y-144378830D01*
X155604810Y-144378828D01*
X155823509Y-144260474D01*
X156019744Y-144107738D01*
X156188164Y-143924785D01*
X156324173Y-143716607D01*
X156424063Y-143488881D01*
X156485108Y-143247821D01*
X156505643Y-143000000D01*
X156485108Y-142752179D01*
X156424063Y-142511119D01*
X156324173Y-142283393D01*
X156188164Y-142075215D01*
X156188163Y-142075214D01*
X156188162Y-142075212D01*
X156019745Y-141892262D01*
X155879869Y-141783393D01*
X155823509Y-141739526D01*
X155604810Y-141621172D01*
X155604805Y-141621170D01*
X155604801Y-141621168D01*
X155604802Y-141621168D01*
X155369615Y-141540429D01*
X155124342Y-141499500D01*
X155124335Y-141499500D01*
X155101400Y-141499500D01*
X154978102Y-141479972D01*
X154866874Y-141423298D01*
X154778602Y-141335026D01*
X154721928Y-141223798D01*
X154702400Y-141100500D01*
X154702400Y-141025359D01*
X154702400Y-141025354D01*
X154696881Y-140999389D01*
X154690347Y-140958131D01*
X154690124Y-140956011D01*
X154687574Y-140931744D01*
X154679367Y-140906488D01*
X154668564Y-140866170D01*
X154663044Y-140840197D01*
X154652249Y-140815952D01*
X154637278Y-140776951D01*
X154629079Y-140751716D01*
X154615809Y-140728732D01*
X154596848Y-140691520D01*
X154586053Y-140667275D01*
X154586051Y-140667270D01*
X154586046Y-140667264D01*
X154586045Y-140667261D01*
X154570447Y-140645791D01*
X154547707Y-140610775D01*
X154544575Y-140605350D01*
X154534433Y-140587784D01*
X154516665Y-140568051D01*
X154490381Y-140535592D01*
X154474789Y-140514130D01*
X154455058Y-140496364D01*
X154425534Y-140466839D01*
X154407773Y-140447113D01*
X154386299Y-140431512D01*
X154353845Y-140405231D01*
X154334116Y-140387467D01*
X154334114Y-140387465D01*
X154334112Y-140387464D01*
X154311116Y-140374187D01*
X154276104Y-140351450D01*
X154254630Y-140335849D01*
X154254628Y-140335848D01*
X154254629Y-140335848D01*
X154230380Y-140325052D01*
X154193177Y-140306096D01*
X154170184Y-140292821D01*
X154170177Y-140292818D01*
X154170173Y-140292817D01*
X154144948Y-140284621D01*
X154105955Y-140269654D01*
X154081706Y-140258857D01*
X154081704Y-140258856D01*
X154081703Y-140258856D01*
X154055728Y-140253334D01*
X154015401Y-140242528D01*
X153990156Y-140234326D01*
X153990154Y-140234325D01*
X153990152Y-140234325D01*
X153963738Y-140231548D01*
X153922511Y-140225018D01*
X153896547Y-140219500D01*
X153896546Y-140219500D01*
X153849092Y-140219500D01*
X153385538Y-140219500D01*
X153262240Y-140199972D01*
X153151012Y-140143298D01*
X153091984Y-140090735D01*
X153008567Y-140000120D01*
X153010964Y-139997912D01*
X152951770Y-139923137D01*
X152908325Y-139806106D01*
X152900500Y-139727472D01*
X152900500Y-139420372D01*
X152903176Y-139386372D01*
X152903125Y-139386370D01*
X152904219Y-139365488D01*
X152901047Y-139304958D01*
X152900500Y-139284075D01*
X152900500Y-139270917D01*
X152900500Y-139270908D01*
X152899119Y-139257775D01*
X152897487Y-139237038D01*
X152894313Y-139176454D01*
X152894312Y-139176450D01*
X152894312Y-139176448D01*
X152891041Y-139155797D01*
X152891093Y-139155788D01*
X152890074Y-139150290D01*
X152890022Y-139150302D01*
X152885674Y-139129848D01*
X152885674Y-139129844D01*
X152866935Y-139072172D01*
X152861008Y-139052160D01*
X152858424Y-139042517D01*
X152845320Y-138993612D01*
X152845316Y-138993605D01*
X152837824Y-138974085D01*
X152837874Y-138974065D01*
X152835734Y-138968901D01*
X152835686Y-138968923D01*
X152827179Y-138949816D01*
X152796870Y-138897320D01*
X152786898Y-138878954D01*
X152759383Y-138824951D01*
X152759376Y-138824943D01*
X152747990Y-138807408D01*
X152748034Y-138807379D01*
X152744870Y-138802775D01*
X152744828Y-138802807D01*
X152732535Y-138785888D01*
X152732533Y-138785884D01*
X152691937Y-138740797D01*
X152678425Y-138724977D01*
X152670119Y-138714720D01*
X152665939Y-138710540D01*
X152660801Y-138705401D01*
X152646430Y-138690257D01*
X152605869Y-138645209D01*
X152590334Y-138631222D01*
X152590368Y-138631184D01*
X152564434Y-138609035D01*
X150836764Y-136881365D01*
X150763388Y-136780371D01*
X150724812Y-136661646D01*
X150719900Y-136599229D01*
X150719900Y-135182987D01*
X150739428Y-135059689D01*
X150796102Y-134948461D01*
X150884374Y-134860189D01*
X150995602Y-134803515D01*
X151118900Y-134783987D01*
X151242198Y-134803515D01*
X151308796Y-134832074D01*
X151395190Y-134878828D01*
X151395194Y-134878830D01*
X151395197Y-134878831D01*
X151549413Y-134931772D01*
X151630386Y-134959571D01*
X151793604Y-134986806D01*
X151875657Y-135000499D01*
X151875665Y-135000500D01*
X152124335Y-135000500D01*
X152124342Y-135000499D01*
X152165515Y-134993628D01*
X152369614Y-134959571D01*
X152539282Y-134901323D01*
X152604802Y-134878831D01*
X152604803Y-134878830D01*
X152604810Y-134878828D01*
X152823509Y-134760474D01*
X153019744Y-134607738D01*
X153188164Y-134424785D01*
X153324173Y-134216607D01*
X153424063Y-133988881D01*
X153485108Y-133747821D01*
X153505643Y-133500000D01*
X153485108Y-133252179D01*
X153424063Y-133011119D01*
X153324173Y-132783393D01*
X153188164Y-132575215D01*
X153188163Y-132575214D01*
X153188162Y-132575212D01*
X153008567Y-132380120D01*
X153010964Y-132377912D01*
X152951770Y-132303137D01*
X152908325Y-132186106D01*
X152900500Y-132107472D01*
X152900500Y-131776079D01*
X152920028Y-131652781D01*
X152976702Y-131541553D01*
X153064974Y-131453281D01*
X153074704Y-131446431D01*
X153125741Y-131411635D01*
X153323561Y-131228085D01*
X153491815Y-131017102D01*
X153626743Y-130783398D01*
X153725334Y-130532195D01*
X153785383Y-130269103D01*
X153786183Y-130258422D01*
X153805549Y-130000005D01*
X153805549Y-129999994D01*
X153785384Y-129730909D01*
X153785383Y-129730907D01*
X153785383Y-129730897D01*
X153725334Y-129467805D01*
X153626743Y-129216602D01*
X153559135Y-129099500D01*
X153491820Y-128982906D01*
X153491818Y-128982903D01*
X153491815Y-128982898D01*
X153323561Y-128771915D01*
X153125741Y-128588365D01*
X153125739Y-128588363D01*
X152902775Y-128436348D01*
X152707808Y-128342458D01*
X152659641Y-128319262D01*
X152401772Y-128239720D01*
X152401764Y-128239718D01*
X152134939Y-128199500D01*
X152134929Y-128199500D01*
X151865071Y-128199500D01*
X151865060Y-128199500D01*
X151598235Y-128239718D01*
X151598226Y-128239720D01*
X151340361Y-128319261D01*
X151340359Y-128319262D01*
X151097226Y-128436349D01*
X150874259Y-128588365D01*
X150838902Y-128621172D01*
X150838767Y-128621297D01*
X150735100Y-128690845D01*
X150615016Y-128724954D01*
X150490268Y-128720286D01*
X150373069Y-128677297D01*
X150285243Y-128610944D01*
X143649865Y-121975566D01*
X143627718Y-121949634D01*
X143627680Y-121949669D01*
X143613684Y-121934125D01*
X143596872Y-121918987D01*
X143518311Y-121821971D01*
X143477066Y-121720423D01*
X143439618Y-121572547D01*
X143428282Y-121448230D01*
X143455917Y-121326493D01*
X143519818Y-121219253D01*
X143613730Y-121137008D01*
X143728461Y-121087809D01*
X143826410Y-121075600D01*
X144636829Y-121075600D01*
X144760127Y-121095128D01*
X144871355Y-121151802D01*
X144918965Y-121192464D01*
X145114225Y-121387724D01*
X145114226Y-121387725D01*
X145147781Y-121421280D01*
X145381351Y-121654851D01*
X145454723Y-121755839D01*
X145493299Y-121874564D01*
X145496848Y-121969924D01*
X145496828Y-121970184D01*
X145494357Y-122000002D01*
X145514892Y-122247822D01*
X145514893Y-122247827D01*
X145560748Y-122428901D01*
X145575937Y-122488881D01*
X145675827Y-122716607D01*
X145675828Y-122716608D01*
X145811837Y-122924787D01*
X145980254Y-123107737D01*
X146060487Y-123170184D01*
X146176491Y-123260474D01*
X146395190Y-123378828D01*
X146395196Y-123378830D01*
X146395198Y-123378831D01*
X146395197Y-123378831D01*
X146520867Y-123421973D01*
X146630386Y-123459571D01*
X146793604Y-123486806D01*
X146875657Y-123500499D01*
X146875665Y-123500500D01*
X147124335Y-123500500D01*
X147124342Y-123500499D01*
X147179073Y-123491366D01*
X147369614Y-123459571D01*
X147573616Y-123389537D01*
X147604802Y-123378831D01*
X147604803Y-123378830D01*
X147604810Y-123378828D01*
X147823509Y-123260474D01*
X148019744Y-123107738D01*
X148188164Y-122924785D01*
X148324173Y-122716607D01*
X148424063Y-122488881D01*
X148485108Y-122247821D01*
X148505643Y-122000000D01*
X148503172Y-121970185D01*
X148495841Y-121881706D01*
X148485108Y-121752179D01*
X148424063Y-121511119D01*
X148324173Y-121283393D01*
X148188164Y-121075215D01*
X148188163Y-121075214D01*
X148188162Y-121075212D01*
X148019745Y-120892262D01*
X147827363Y-120742526D01*
X147823509Y-120739526D01*
X147823508Y-120739525D01*
X147812448Y-120730917D01*
X147727144Y-120639775D01*
X147674178Y-120526734D01*
X147658737Y-120402858D01*
X147682332Y-120280273D01*
X147742652Y-120170979D01*
X147775374Y-120133923D01*
X151035770Y-116873528D01*
X151136757Y-116800158D01*
X151255482Y-116761582D01*
X151380316Y-116761582D01*
X151499041Y-116800158D01*
X151600035Y-116873534D01*
X159381347Y-124654846D01*
X159454723Y-124755840D01*
X159493299Y-124874565D01*
X159496848Y-124969926D01*
X159494358Y-124999995D01*
X159494357Y-125000003D01*
X159514892Y-125247822D01*
X159514893Y-125247827D01*
X159575937Y-125488882D01*
X159610791Y-125568340D01*
X159675827Y-125716607D01*
X159717419Y-125780268D01*
X159811837Y-125924787D01*
X159980254Y-126107737D01*
X160032421Y-126148340D01*
X160176491Y-126260474D01*
X160395190Y-126378828D01*
X160395196Y-126378830D01*
X160395198Y-126378831D01*
X160395197Y-126378831D01*
X160549413Y-126431772D01*
X160630386Y-126459571D01*
X160787679Y-126485818D01*
X160875657Y-126500499D01*
X160875665Y-126500500D01*
X161061729Y-126500500D01*
X161185027Y-126520028D01*
X161296255Y-126576702D01*
X161343865Y-126617364D01*
X162482636Y-127756135D01*
X162556012Y-127857129D01*
X162594588Y-127975854D01*
X162599500Y-128038271D01*
X162599500Y-128527336D01*
X162579972Y-128650634D01*
X162523298Y-128761862D01*
X162435026Y-128850134D01*
X162323798Y-128906808D01*
X162200500Y-128926336D01*
X162077202Y-128906808D01*
X161965974Y-128850134D01*
X161955430Y-128842204D01*
X161823507Y-128739524D01*
X161662026Y-128652136D01*
X161604810Y-128621172D01*
X161604805Y-128621170D01*
X161604801Y-128621168D01*
X161604802Y-128621168D01*
X161369615Y-128540429D01*
X161124342Y-128499500D01*
X161124335Y-128499500D01*
X160875665Y-128499500D01*
X160875657Y-128499500D01*
X160630384Y-128540429D01*
X160395197Y-128621168D01*
X160176492Y-128739525D01*
X159980254Y-128892262D01*
X159908016Y-128970735D01*
X159810141Y-129048222D01*
X159693112Y-129091672D01*
X159614462Y-129099500D01*
X158799499Y-129099500D01*
X158676201Y-129079972D01*
X158564973Y-129023298D01*
X158476701Y-128935026D01*
X158420027Y-128823798D01*
X158400499Y-128700500D01*
X158400499Y-128652136D01*
X158400499Y-128652128D01*
X158394091Y-128592517D01*
X158343796Y-128457669D01*
X158257546Y-128342454D01*
X158226564Y-128319261D01*
X158142334Y-128256206D01*
X158142329Y-128256203D01*
X158007482Y-128205908D01*
X157954281Y-128200188D01*
X157947873Y-128199500D01*
X157947872Y-128199500D01*
X155252136Y-128199500D01*
X155252129Y-128199500D01*
X155252128Y-128199501D01*
X155244949Y-128200272D01*
X155192519Y-128205908D01*
X155192517Y-128205909D01*
X155057672Y-128256202D01*
X155057665Y-128256206D01*
X154942458Y-128342450D01*
X154942450Y-128342458D01*
X154856206Y-128457665D01*
X154856203Y-128457670D01*
X154805908Y-128592517D01*
X154799500Y-128652127D01*
X154799500Y-131347863D01*
X154799501Y-131347870D01*
X154805908Y-131407480D01*
X154805908Y-131407481D01*
X154805909Y-131407483D01*
X154822991Y-131453281D01*
X154856202Y-131542327D01*
X154856206Y-131542334D01*
X154868726Y-131559059D01*
X154942454Y-131657546D01*
X155057669Y-131743796D01*
X155192517Y-131794091D01*
X155252127Y-131800500D01*
X157947872Y-131800499D01*
X158007483Y-131794091D01*
X158142331Y-131743796D01*
X158257546Y-131657546D01*
X158343796Y-131542331D01*
X158394091Y-131407483D01*
X158400500Y-131347873D01*
X158400500Y-131299500D01*
X158420028Y-131176202D01*
X158476702Y-131064974D01*
X158564974Y-130976702D01*
X158676202Y-130920028D01*
X158799500Y-130900500D01*
X159614462Y-130900500D01*
X159737760Y-130920028D01*
X159848988Y-130976702D01*
X159908016Y-131029265D01*
X159980254Y-131107737D01*
X160034554Y-131150000D01*
X160176491Y-131260474D01*
X160395190Y-131378828D01*
X160395196Y-131378830D01*
X160395198Y-131378831D01*
X160395197Y-131378831D01*
X160490750Y-131411634D01*
X160630386Y-131459571D01*
X160793604Y-131486806D01*
X160875657Y-131500499D01*
X160875665Y-131500500D01*
X161124335Y-131500500D01*
X161124342Y-131500499D01*
X161165515Y-131493628D01*
X161369614Y-131459571D01*
X161543138Y-131400000D01*
X161604802Y-131378831D01*
X161604803Y-131378830D01*
X161604810Y-131378828D01*
X161823509Y-131260474D01*
X161955430Y-131157794D01*
X162064722Y-131097476D01*
X162187307Y-131073881D01*
X162311183Y-131089322D01*
X162424225Y-131142287D01*
X162515367Y-131227592D01*
X162575687Y-131336885D01*
X162599282Y-131459470D01*
X162599500Y-131472663D01*
X162599500Y-137987472D01*
X162579972Y-138110770D01*
X162523298Y-138221998D01*
X162490289Y-138259067D01*
X162491433Y-138260120D01*
X162311837Y-138455212D01*
X162175828Y-138663391D01*
X162075937Y-138891117D01*
X162014893Y-139132172D01*
X162014892Y-139132177D01*
X161994357Y-139379998D01*
X161994357Y-139380001D01*
X162014892Y-139627822D01*
X162014893Y-139627827D01*
X162075937Y-139868882D01*
X162111384Y-139949692D01*
X162175827Y-140096607D01*
X162247997Y-140207071D01*
X162311837Y-140304787D01*
X162480254Y-140487737D01*
X162541739Y-140535592D01*
X162676491Y-140640474D01*
X162895190Y-140758828D01*
X162895196Y-140758830D01*
X162895198Y-140758831D01*
X162895197Y-140758831D01*
X163005932Y-140796846D01*
X163130386Y-140839571D01*
X163293604Y-140866806D01*
X163375657Y-140880499D01*
X163375665Y-140880500D01*
X163624335Y-140880500D01*
X163624342Y-140880499D01*
X163665515Y-140873628D01*
X163869614Y-140839571D01*
X164052020Y-140776951D01*
X164104802Y-140758831D01*
X164104803Y-140758830D01*
X164104810Y-140758828D01*
X164323509Y-140640474D01*
X164519744Y-140487738D01*
X164688164Y-140304785D01*
X164824173Y-140096607D01*
X164924063Y-139868881D01*
X164985108Y-139627821D01*
X165005643Y-139380000D01*
X164985108Y-139132179D01*
X164924063Y-138891119D01*
X164824173Y-138663393D01*
X164688164Y-138455215D01*
X164688163Y-138455214D01*
X164688162Y-138455212D01*
X164508567Y-138260120D01*
X164510964Y-138257912D01*
X164451770Y-138183137D01*
X164408325Y-138066106D01*
X164400500Y-137987472D01*
X164400500Y-132442970D01*
X164420028Y-132319672D01*
X164476702Y-132208444D01*
X164564974Y-132120172D01*
X164676202Y-132063498D01*
X164799500Y-132043970D01*
X164922798Y-132063498D01*
X165024266Y-132113301D01*
X165097484Y-132163220D01*
X165340541Y-132280270D01*
X165598338Y-132359790D01*
X165598346Y-132359792D01*
X165865098Y-132399999D01*
X165865111Y-132400000D01*
X166134889Y-132400000D01*
X166134901Y-132399999D01*
X166401653Y-132359792D01*
X166401661Y-132359790D01*
X166659452Y-132280272D01*
X166659463Y-132280268D01*
X166902514Y-132163221D01*
X166902519Y-132163219D01*
X166959014Y-132124700D01*
X165984315Y-131150000D01*
X166037622Y-131150000D01*
X166149783Y-131134584D01*
X166288458Y-131074349D01*
X166405739Y-130978934D01*
X166492928Y-130855415D01*
X166543559Y-130712953D01*
X166551285Y-130600000D01*
X166565685Y-130600000D01*
X167524745Y-131559059D01*
X167524746Y-131559059D01*
X167626289Y-131383184D01*
X167626295Y-131383170D01*
X167724850Y-131132056D01*
X167724856Y-131132038D01*
X167784885Y-130869030D01*
X167784887Y-130869015D01*
X167805047Y-130600005D01*
X167805047Y-130599994D01*
X167784887Y-130330984D01*
X167784885Y-130330969D01*
X167724856Y-130067961D01*
X167724850Y-130067943D01*
X167626291Y-129816821D01*
X167524746Y-129640939D01*
X166565685Y-130600000D01*
X166551285Y-130600000D01*
X166553877Y-130562114D01*
X166523116Y-130414085D01*
X166453558Y-130279844D01*
X166350362Y-130169348D01*
X166221181Y-130090791D01*
X166075596Y-130050000D01*
X165984315Y-130050000D01*
X166000001Y-130034314D01*
X166959015Y-129075298D01*
X166902527Y-129036785D01*
X166902525Y-129036783D01*
X166659458Y-128919729D01*
X166659452Y-128919727D01*
X166401661Y-128840209D01*
X166401653Y-128840207D01*
X166134901Y-128800000D01*
X165865098Y-128800000D01*
X165598346Y-128840207D01*
X165598338Y-128840209D01*
X165340541Y-128919729D01*
X165097480Y-129036781D01*
X165097475Y-129036783D01*
X165024263Y-129086699D01*
X164911389Y-129140020D01*
X164787562Y-129155850D01*
X164664903Y-129132642D01*
X164555420Y-129072665D01*
X164469830Y-128981792D01*
X164416509Y-128868918D01*
X164400500Y-128757029D01*
X164400500Y-128199499D01*
X164420028Y-128076201D01*
X164476702Y-127964973D01*
X164564974Y-127876701D01*
X164676202Y-127820027D01*
X164799494Y-127800499D01*
X167347872Y-127800499D01*
X167407483Y-127794091D01*
X167542331Y-127743796D01*
X167657546Y-127657546D01*
X167743796Y-127542331D01*
X167794091Y-127407483D01*
X167800500Y-127347873D01*
X167800499Y-124652128D01*
X167794091Y-124592517D01*
X167743796Y-124457669D01*
X167666117Y-124353903D01*
X167657549Y-124342458D01*
X167657548Y-124342457D01*
X167657546Y-124342454D01*
X167631552Y-124322995D01*
X167542334Y-124256206D01*
X167542329Y-124256203D01*
X167407482Y-124205908D01*
X167351407Y-124199880D01*
X167347873Y-124199500D01*
X167347872Y-124199500D01*
X165638271Y-124199500D01*
X165514973Y-124179972D01*
X165403745Y-124123298D01*
X165356135Y-124082636D01*
X164954635Y-123681136D01*
X164881259Y-123580142D01*
X164842683Y-123461417D01*
X164842683Y-123336583D01*
X164881259Y-123217858D01*
X164954635Y-123116864D01*
X165055629Y-123043488D01*
X165174354Y-123004912D01*
X165236771Y-123000000D01*
X165599999Y-123000000D01*
X165600000Y-122999999D01*
X166400000Y-122999999D01*
X166400001Y-123000000D01*
X167347825Y-123000000D01*
X167347830Y-122999999D01*
X167407373Y-122993598D01*
X167407377Y-122993597D01*
X167542090Y-122943352D01*
X167657184Y-122857192D01*
X167657192Y-122857184D01*
X167743352Y-122742090D01*
X167793597Y-122607377D01*
X167793598Y-122607373D01*
X167799999Y-122547830D01*
X167800000Y-122547825D01*
X167800000Y-121600001D01*
X167799999Y-121600000D01*
X166400001Y-121600000D01*
X166400000Y-121600001D01*
X166400000Y-122999999D01*
X165600000Y-122999999D01*
X165600000Y-121577502D01*
X165649638Y-121630652D01*
X165778819Y-121709209D01*
X165924404Y-121750000D01*
X166037622Y-121750000D01*
X166149783Y-121734584D01*
X166288458Y-121674349D01*
X166405739Y-121578934D01*
X166492928Y-121455415D01*
X166543559Y-121312953D01*
X166553877Y-121162114D01*
X166523116Y-121014085D01*
X166453558Y-120879844D01*
X166378988Y-120799999D01*
X166400000Y-120799999D01*
X166400001Y-120800000D01*
X167799999Y-120800000D01*
X167800000Y-120799999D01*
X167800000Y-119852175D01*
X167799999Y-119852169D01*
X167793598Y-119792626D01*
X167793597Y-119792622D01*
X167743352Y-119657909D01*
X167657192Y-119542815D01*
X167657184Y-119542807D01*
X167542090Y-119456647D01*
X167407377Y-119406402D01*
X167407373Y-119406401D01*
X167347830Y-119400000D01*
X166400001Y-119400000D01*
X166400000Y-119400001D01*
X166400000Y-120799999D01*
X166378988Y-120799999D01*
X166350362Y-120769348D01*
X166221181Y-120690791D01*
X166075596Y-120650000D01*
X165962378Y-120650000D01*
X165850217Y-120665416D01*
X165711542Y-120725651D01*
X165600000Y-120816396D01*
X165600000Y-119400001D01*
X165599999Y-119400000D01*
X164652169Y-119400000D01*
X164592626Y-119406401D01*
X164592622Y-119406402D01*
X164457909Y-119456647D01*
X164342815Y-119542807D01*
X164342807Y-119542815D01*
X164256647Y-119657909D01*
X164206402Y-119792622D01*
X164206401Y-119792626D01*
X164200000Y-119852169D01*
X164200000Y-120784301D01*
X164180472Y-120907599D01*
X164123798Y-121018827D01*
X164035526Y-121107099D01*
X163924298Y-121163773D01*
X163801000Y-121183301D01*
X163677702Y-121163773D01*
X163566474Y-121107099D01*
X163488922Y-121029548D01*
X163488784Y-121029673D01*
X163486405Y-121027031D01*
X163478204Y-121018830D01*
X163474790Y-121014132D01*
X163474788Y-121014129D01*
X163455056Y-120996362D01*
X163425534Y-120966839D01*
X163407773Y-120947113D01*
X163386299Y-120931512D01*
X163353845Y-120905231D01*
X163334116Y-120887467D01*
X163334114Y-120887465D01*
X163334112Y-120887464D01*
X163311116Y-120874187D01*
X163276104Y-120851450D01*
X163254630Y-120835849D01*
X163254628Y-120835848D01*
X163254629Y-120835848D01*
X163230380Y-120825052D01*
X163193177Y-120806096D01*
X163170184Y-120792821D01*
X163170177Y-120792818D01*
X163170173Y-120792817D01*
X163144948Y-120784621D01*
X163105955Y-120769654D01*
X163081706Y-120758857D01*
X163081704Y-120758856D01*
X163081703Y-120758856D01*
X163055728Y-120753334D01*
X163015401Y-120742528D01*
X162990156Y-120734326D01*
X162990154Y-120734325D01*
X162990152Y-120734325D01*
X162963738Y-120731548D01*
X162922511Y-120725018D01*
X162896547Y-120719500D01*
X162896546Y-120719500D01*
X162849092Y-120719500D01*
X162385538Y-120719500D01*
X162262240Y-120699972D01*
X162151012Y-120643298D01*
X162091984Y-120590735D01*
X162019745Y-120512262D01*
X161874194Y-120398976D01*
X161823509Y-120359526D01*
X161604810Y-120241172D01*
X161604805Y-120241170D01*
X161604801Y-120241168D01*
X161604802Y-120241168D01*
X161369615Y-120160429D01*
X161124342Y-120119500D01*
X161124335Y-120119500D01*
X160875665Y-120119500D01*
X160875657Y-120119500D01*
X160630384Y-120160429D01*
X160395197Y-120241168D01*
X160176492Y-120359525D01*
X159980254Y-120512262D01*
X159811837Y-120695212D01*
X159675828Y-120903391D01*
X159575937Y-121131116D01*
X159511637Y-121385027D01*
X159462438Y-121499758D01*
X159380192Y-121593670D01*
X159272952Y-121657570D01*
X159151214Y-121685204D01*
X159026896Y-121673866D01*
X158912165Y-121624667D01*
X158842711Y-121569212D01*
X152335264Y-115061765D01*
X152261888Y-114960771D01*
X152223312Y-114842046D01*
X152218400Y-114779629D01*
X152218400Y-114121269D01*
X152237928Y-113997971D01*
X152294602Y-113886743D01*
X152335254Y-113839144D01*
X152557037Y-113617360D01*
X152658028Y-113543987D01*
X152776753Y-113505411D01*
X152839170Y-113500499D01*
X153047864Y-113500499D01*
X153047872Y-113500499D01*
X153107483Y-113494091D01*
X153242331Y-113443796D01*
X153357546Y-113357546D01*
X153357548Y-113357542D01*
X153362202Y-113354059D01*
X153472609Y-113295801D01*
X153595615Y-113274513D01*
X153719180Y-113292277D01*
X153791214Y-113322559D01*
X153895190Y-113378828D01*
X153895194Y-113378830D01*
X153895197Y-113378831D01*
X154001088Y-113415183D01*
X154130386Y-113459571D01*
X154293604Y-113486806D01*
X154375657Y-113500499D01*
X154375665Y-113500500D01*
X154624335Y-113500500D01*
X154624342Y-113500499D01*
X154665515Y-113493628D01*
X154869614Y-113459571D01*
X155039282Y-113401323D01*
X155104802Y-113378831D01*
X155104803Y-113378830D01*
X155104810Y-113378828D01*
X155323509Y-113260474D01*
X155519744Y-113107738D01*
X155559111Y-113064974D01*
X155591984Y-113029265D01*
X155689859Y-112951778D01*
X155806888Y-112908328D01*
X155885538Y-112900500D01*
X159233064Y-112900500D01*
X159356362Y-112920028D01*
X159467590Y-112976702D01*
X159555862Y-113064974D01*
X159612536Y-113176202D01*
X159632064Y-113299500D01*
X159612536Y-113422798D01*
X159598457Y-113459777D01*
X159575938Y-113511113D01*
X159575937Y-113511116D01*
X159514893Y-113752172D01*
X159514892Y-113752177D01*
X159494357Y-113999998D01*
X159494357Y-114000001D01*
X159514892Y-114247822D01*
X159514893Y-114247827D01*
X159575937Y-114488882D01*
X159613858Y-114575333D01*
X159675827Y-114716607D01*
X159729984Y-114799500D01*
X159811837Y-114924787D01*
X159980254Y-115107737D01*
X160062080Y-115171424D01*
X160176491Y-115260474D01*
X160395190Y-115378828D01*
X160395196Y-115378830D01*
X160395198Y-115378831D01*
X160395197Y-115378831D01*
X160529049Y-115424782D01*
X160630386Y-115459571D01*
X160793604Y-115486806D01*
X160875657Y-115500499D01*
X160875665Y-115500500D01*
X161124335Y-115500500D01*
X161124342Y-115500499D01*
X161165515Y-115493628D01*
X161369614Y-115459571D01*
X161560994Y-115393870D01*
X161604802Y-115378831D01*
X161604803Y-115378830D01*
X161604810Y-115378828D01*
X161823509Y-115260474D01*
X162019744Y-115107738D01*
X162062067Y-115061763D01*
X162091984Y-115029265D01*
X162189859Y-114951778D01*
X162306888Y-114908328D01*
X162385538Y-114900500D01*
X162861729Y-114900500D01*
X162985027Y-114920028D01*
X163096255Y-114976702D01*
X163143865Y-115017364D01*
X164103988Y-115977487D01*
X164177364Y-116078481D01*
X164215940Y-116197206D01*
X164216397Y-116319079D01*
X164214616Y-116330893D01*
X164194451Y-116599994D01*
X164194451Y-116600005D01*
X164214615Y-116869090D01*
X164214617Y-116869105D01*
X164274664Y-117132190D01*
X164274667Y-117132199D01*
X164373256Y-117383397D01*
X164373258Y-117383401D01*
X164508179Y-117617093D01*
X164508182Y-117617098D01*
X164508185Y-117617102D01*
X164676439Y-117828085D01*
X164874259Y-118011635D01*
X165097226Y-118163651D01*
X165340359Y-118280738D01*
X165598228Y-118360280D01*
X165598235Y-118360281D01*
X165865060Y-118400499D01*
X165865068Y-118400499D01*
X165865071Y-118400500D01*
X165865073Y-118400500D01*
X166134927Y-118400500D01*
X166134929Y-118400500D01*
X166134931Y-118400499D01*
X166134939Y-118400499D01*
X166324752Y-118371888D01*
X166401772Y-118360280D01*
X166659641Y-118280738D01*
X166902775Y-118163651D01*
X167125741Y-118011635D01*
X167323561Y-117828085D01*
X167491815Y-117617102D01*
X167626743Y-117383398D01*
X167725334Y-117132195D01*
X167785383Y-116869103D01*
X167793065Y-116766590D01*
X167805549Y-116600005D01*
X167805549Y-116599994D01*
X167785384Y-116330909D01*
X167785383Y-116330907D01*
X167785383Y-116330897D01*
X167730915Y-116092256D01*
X167725335Y-116067809D01*
X167725332Y-116067800D01*
X167698299Y-115998923D01*
X167626743Y-115816602D01*
X167626741Y-115816598D01*
X167491820Y-115582906D01*
X167491818Y-115582903D01*
X167491815Y-115582898D01*
X167323561Y-115371915D01*
X167125741Y-115188365D01*
X167125739Y-115188363D01*
X166902775Y-115036348D01*
X166712879Y-114944900D01*
X166659641Y-114919262D01*
X166401772Y-114839720D01*
X166401764Y-114839718D01*
X166134939Y-114799500D01*
X166134929Y-114799500D01*
X165865071Y-114799500D01*
X165865069Y-114799500D01*
X165723528Y-114820834D01*
X165598697Y-114819900D01*
X165480264Y-114780437D01*
X165381925Y-114708426D01*
X165052005Y-114378506D01*
X164978629Y-114277512D01*
X164940053Y-114158787D01*
X164940053Y-114033953D01*
X164978629Y-113915228D01*
X165052005Y-113814234D01*
X165152999Y-113740858D01*
X165271724Y-113702282D01*
X165396558Y-113702282D01*
X165451745Y-113715096D01*
X165598228Y-113760280D01*
X165598235Y-113760281D01*
X165865060Y-113800499D01*
X165865068Y-113800499D01*
X165865071Y-113800500D01*
X165865073Y-113800500D01*
X166134927Y-113800500D01*
X166134929Y-113800500D01*
X166134931Y-113800499D01*
X166134939Y-113800499D01*
X166324752Y-113771888D01*
X166401772Y-113760280D01*
X166659641Y-113680738D01*
X166902775Y-113563651D01*
X167125741Y-113411635D01*
X167323561Y-113228085D01*
X167491815Y-113017102D01*
X167626743Y-112783398D01*
X167725334Y-112532195D01*
X167785383Y-112269103D01*
X167790485Y-112201024D01*
X167805549Y-112000005D01*
X167805549Y-111999994D01*
X167785384Y-111730909D01*
X167785383Y-111730907D01*
X167785383Y-111730897D01*
X167735220Y-111511117D01*
X167725335Y-111467809D01*
X167725332Y-111467800D01*
X167626743Y-111216602D01*
X167626741Y-111216598D01*
X167491820Y-110982906D01*
X167491818Y-110982903D01*
X167491815Y-110982898D01*
X167323561Y-110771915D01*
X167125741Y-110588365D01*
X167125739Y-110588363D01*
X166902775Y-110436348D01*
X166711066Y-110344027D01*
X166659641Y-110319262D01*
X166401772Y-110239720D01*
X166401764Y-110239718D01*
X166134939Y-110199500D01*
X166134929Y-110199500D01*
X165865071Y-110199500D01*
X165865060Y-110199500D01*
X165598235Y-110239718D01*
X165598226Y-110239720D01*
X165340361Y-110319261D01*
X165133389Y-110418934D01*
X165097226Y-110436349D01*
X164874259Y-110588365D01*
X164682712Y-110766095D01*
X164676437Y-110771917D01*
X164535000Y-110949273D01*
X164442857Y-111033495D01*
X164329198Y-111085121D01*
X164223050Y-111099500D01*
X155885538Y-111099500D01*
X155762240Y-111079972D01*
X155651012Y-111023298D01*
X155591984Y-110970735D01*
X155519745Y-110892262D01*
X155365122Y-110771915D01*
X155323509Y-110739526D01*
X155104810Y-110621172D01*
X155104805Y-110621170D01*
X155104801Y-110621168D01*
X155104802Y-110621168D01*
X154869615Y-110540429D01*
X154624342Y-110499500D01*
X154624335Y-110499500D01*
X154375665Y-110499500D01*
X154375657Y-110499500D01*
X154130384Y-110540429D01*
X153895197Y-110621168D01*
X153895192Y-110621170D01*
X153791219Y-110677438D01*
X153673487Y-110718946D01*
X153548691Y-110722041D01*
X153429046Y-110686421D01*
X153362203Y-110645941D01*
X153357547Y-110642455D01*
X153357546Y-110642454D01*
X153242331Y-110556204D01*
X153242329Y-110556203D01*
X153107482Y-110505908D01*
X153052523Y-110500000D01*
X153047873Y-110499500D01*
X153047872Y-110499500D01*
X150952136Y-110499500D01*
X150952129Y-110499500D01*
X150952128Y-110499501D01*
X150947486Y-110500000D01*
X150892519Y-110505908D01*
X150892517Y-110505909D01*
X150757672Y-110556202D01*
X150757665Y-110556206D01*
X150642458Y-110642450D01*
X150642450Y-110642458D01*
X150556206Y-110757665D01*
X150556203Y-110757670D01*
X150505908Y-110892517D01*
X150499500Y-110952127D01*
X150499500Y-113047863D01*
X150499502Y-113047886D01*
X150501010Y-113061919D01*
X150494766Y-113186598D01*
X150476795Y-113247530D01*
X150472579Y-113258511D01*
X150456890Y-113317064D01*
X150450960Y-113337083D01*
X150432228Y-113394736D01*
X150427880Y-113415194D01*
X150427830Y-113415183D01*
X150426808Y-113420698D01*
X150426857Y-113420706D01*
X150423586Y-113441354D01*
X150420413Y-113501899D01*
X150418777Y-113522691D01*
X150417400Y-113535801D01*
X150417400Y-113548975D01*
X150416853Y-113569858D01*
X150413680Y-113630388D01*
X150414775Y-113651270D01*
X150414723Y-113651272D01*
X150417400Y-113685272D01*
X150417400Y-114779627D01*
X150397872Y-114902925D01*
X150341198Y-115014153D01*
X150300536Y-115061763D01*
X146058472Y-119303826D01*
X145957478Y-119377202D01*
X145838753Y-119415778D01*
X145713919Y-119415778D01*
X145595194Y-119377202D01*
X145576840Y-119367236D01*
X145543387Y-119347922D01*
X145524279Y-119339415D01*
X145524299Y-119339368D01*
X145519121Y-119337223D01*
X145519103Y-119337272D01*
X145499589Y-119329780D01*
X145499588Y-119329780D01*
X145499586Y-119329779D01*
X145499577Y-119329776D01*
X145441025Y-119314086D01*
X145421009Y-119308157D01*
X145363362Y-119289427D01*
X145342900Y-119285078D01*
X145342910Y-119285028D01*
X145337398Y-119284006D01*
X145337391Y-119284057D01*
X145316744Y-119280786D01*
X145256202Y-119277613D01*
X145235408Y-119275977D01*
X145222312Y-119274601D01*
X145222296Y-119274600D01*
X145222292Y-119274600D01*
X145222282Y-119274600D01*
X145209124Y-119274600D01*
X145188245Y-119274053D01*
X145180740Y-119273659D01*
X145127712Y-119270880D01*
X145106833Y-119271975D01*
X145106830Y-119271924D01*
X145072828Y-119274600D01*
X140089073Y-119274600D01*
X140055070Y-119271924D01*
X140055068Y-119271975D01*
X140034188Y-119270880D01*
X139980830Y-119273677D01*
X139973655Y-119274053D01*
X139952777Y-119274600D01*
X139939607Y-119274600D01*
X139926497Y-119275977D01*
X139905703Y-119277613D01*
X139845156Y-119280786D01*
X139824506Y-119284057D01*
X139824498Y-119284009D01*
X139818983Y-119285031D01*
X139818994Y-119285079D01*
X139798541Y-119289426D01*
X139740881Y-119308161D01*
X139720861Y-119314091D01*
X139662311Y-119329780D01*
X139642794Y-119337272D01*
X139642776Y-119337225D01*
X139637595Y-119339371D01*
X139637616Y-119339417D01*
X139618513Y-119347922D01*
X139593087Y-119362601D01*
X139476542Y-119407334D01*
X139351878Y-119413863D01*
X139231298Y-119381549D01*
X139126605Y-119313556D01*
X139048047Y-119216539D01*
X139003314Y-119099994D01*
X138996785Y-118975330D01*
X139029099Y-118854750D01*
X139066751Y-118788201D01*
X139144035Y-118677830D01*
X139243903Y-118463663D01*
X139305063Y-118235408D01*
X139325659Y-118000000D01*
X139305063Y-117764592D01*
X139243903Y-117536337D01*
X139144035Y-117322171D01*
X139008495Y-117128599D01*
X138842880Y-116962984D01*
X138769507Y-116861994D01*
X138730931Y-116743269D01*
X138730931Y-116618435D01*
X138769507Y-116499710D01*
X138842883Y-116398716D01*
X140381435Y-114860164D01*
X140482429Y-114786788D01*
X140601154Y-114748212D01*
X140663571Y-114743300D01*
X145622828Y-114743300D01*
X145656830Y-114745975D01*
X145656833Y-114745925D01*
X145677712Y-114747019D01*
X145738245Y-114743846D01*
X145759124Y-114743300D01*
X145772288Y-114743300D01*
X145772292Y-114743300D01*
X145785401Y-114741921D01*
X145806169Y-114740287D01*
X145866746Y-114737113D01*
X145866750Y-114737111D01*
X145887400Y-114733841D01*
X145887408Y-114733894D01*
X145892903Y-114732876D01*
X145892892Y-114732824D01*
X145913344Y-114728476D01*
X145913347Y-114728474D01*
X145913356Y-114728474D01*
X145971061Y-114709723D01*
X145990991Y-114703821D01*
X146049588Y-114688120D01*
X146049590Y-114688119D01*
X146069108Y-114680626D01*
X146069127Y-114680676D01*
X146074301Y-114678533D01*
X146074280Y-114678484D01*
X146093377Y-114669981D01*
X146093384Y-114669979D01*
X146145903Y-114639656D01*
X146164230Y-114629706D01*
X146218249Y-114602183D01*
X146218253Y-114602179D01*
X146235800Y-114590785D01*
X146235829Y-114590830D01*
X146240428Y-114587669D01*
X146240396Y-114587625D01*
X146257312Y-114575335D01*
X146257316Y-114575333D01*
X146302385Y-114534751D01*
X146318238Y-114521212D01*
X146328480Y-114512919D01*
X146337795Y-114503603D01*
X146352925Y-114489244D01*
X146397988Y-114448671D01*
X146397992Y-114448666D01*
X146411982Y-114433129D01*
X146412020Y-114433163D01*
X146434162Y-114407235D01*
X147965835Y-112875562D01*
X147991763Y-112853420D01*
X147991729Y-112853382D01*
X148007266Y-112839392D01*
X148007266Y-112839390D01*
X148007271Y-112839388D01*
X148047844Y-112794325D01*
X148062203Y-112779195D01*
X148071519Y-112769880D01*
X148079812Y-112759638D01*
X148093351Y-112743785D01*
X148133933Y-112698716D01*
X148133935Y-112698712D01*
X148146225Y-112681796D01*
X148146269Y-112681828D01*
X148149430Y-112677229D01*
X148149385Y-112677200D01*
X148160779Y-112659653D01*
X148160783Y-112659649D01*
X148188306Y-112605630D01*
X148198256Y-112587303D01*
X148228579Y-112534784D01*
X148228581Y-112534777D01*
X148237084Y-112515680D01*
X148237133Y-112515702D01*
X148239274Y-112510533D01*
X148239224Y-112510514D01*
X148246715Y-112490995D01*
X148246720Y-112490988D01*
X148262410Y-112432425D01*
X148268333Y-112412430D01*
X148287074Y-112354756D01*
X148287075Y-112354751D01*
X148291423Y-112334296D01*
X148291474Y-112334307D01*
X148292494Y-112328807D01*
X148292441Y-112328799D01*
X148295712Y-112308146D01*
X148298884Y-112247620D01*
X148300523Y-112226790D01*
X148301034Y-112221928D01*
X148301900Y-112213692D01*
X148301900Y-112200520D01*
X148302447Y-112179635D01*
X148305619Y-112119111D01*
X148304525Y-112098232D01*
X148304576Y-112098229D01*
X148301900Y-112064227D01*
X148301900Y-109564680D01*
X148321428Y-109441382D01*
X148378102Y-109330154D01*
X148381487Y-109325565D01*
X148443793Y-109242335D01*
X148443792Y-109242335D01*
X148443796Y-109242331D01*
X148465141Y-109185103D01*
X148474480Y-109160065D01*
X148535865Y-109051365D01*
X148627835Y-108966955D01*
X148741389Y-108915096D01*
X148848323Y-108900500D01*
X148896542Y-108900500D01*
X148896546Y-108900500D01*
X148922501Y-108894983D01*
X148963757Y-108888448D01*
X148990156Y-108885674D01*
X149015404Y-108877469D01*
X149055754Y-108866659D01*
X149081703Y-108861144D01*
X149105941Y-108850351D01*
X149144932Y-108835383D01*
X149170184Y-108827179D01*
X149193177Y-108813903D01*
X149230384Y-108794945D01*
X149254630Y-108784151D01*
X149276109Y-108768544D01*
X149311119Y-108745809D01*
X149334116Y-108732533D01*
X149353844Y-108714768D01*
X149386300Y-108688486D01*
X149407771Y-108672888D01*
X149407774Y-108672885D01*
X149425528Y-108653167D01*
X149455067Y-108623628D01*
X149474785Y-108605874D01*
X149474785Y-108605873D01*
X149474788Y-108605871D01*
X149490386Y-108584400D01*
X149516668Y-108551944D01*
X149534433Y-108532216D01*
X149547709Y-108509219D01*
X149570444Y-108474209D01*
X149586051Y-108452730D01*
X149596845Y-108428484D01*
X149615803Y-108391277D01*
X149629079Y-108368284D01*
X149637283Y-108343032D01*
X149652251Y-108304041D01*
X149663044Y-108279803D01*
X149668559Y-108253852D01*
X149679369Y-108213504D01*
X149687574Y-108188256D01*
X149690348Y-108161857D01*
X149696883Y-108120601D01*
X149699617Y-108107738D01*
X149702400Y-108094646D01*
X149702400Y-107905354D01*
X149702400Y-107814471D01*
X149721928Y-107691173D01*
X149778602Y-107579945D01*
X149819264Y-107532336D01*
X150770759Y-106580840D01*
X150871753Y-106507463D01*
X150990477Y-106468887D01*
X151115312Y-106468887D01*
X151234037Y-106507463D01*
X151335030Y-106580839D01*
X151346434Y-106592724D01*
X151360255Y-106607737D01*
X151360258Y-106607740D01*
X151404128Y-106641885D01*
X151556491Y-106760474D01*
X151775190Y-106878828D01*
X151775196Y-106878830D01*
X151775198Y-106878831D01*
X151775197Y-106878831D01*
X151880456Y-106914966D01*
X152010386Y-106959571D01*
X152160757Y-106984663D01*
X152255657Y-107000499D01*
X152255665Y-107000500D01*
X152504335Y-107000500D01*
X152504342Y-107000499D01*
X152571532Y-106989287D01*
X152749614Y-106959571D01*
X152933013Y-106896610D01*
X152984802Y-106878831D01*
X152984803Y-106878830D01*
X152984810Y-106878828D01*
X153203509Y-106760474D01*
X153399744Y-106607738D01*
X153443811Y-106559869D01*
X153517252Y-106480090D01*
X153568164Y-106424785D01*
X153704173Y-106216607D01*
X153804063Y-105988881D01*
X153865108Y-105747821D01*
X153885643Y-105500001D01*
X158494357Y-105500001D01*
X158514892Y-105747822D01*
X158514893Y-105747827D01*
X158575937Y-105988882D01*
X158596520Y-106035806D01*
X158675827Y-106216607D01*
X158747997Y-106327071D01*
X158811837Y-106424787D01*
X158980254Y-106607737D01*
X159024128Y-106641885D01*
X159176491Y-106760474D01*
X159395190Y-106878828D01*
X159395196Y-106878830D01*
X159395198Y-106878831D01*
X159395197Y-106878831D01*
X159500456Y-106914966D01*
X159630386Y-106959571D01*
X159780757Y-106984663D01*
X159875657Y-107000499D01*
X159875665Y-107000500D01*
X160124335Y-107000500D01*
X160124342Y-107000499D01*
X160191532Y-106989287D01*
X160369614Y-106959571D01*
X160553013Y-106896610D01*
X160604802Y-106878831D01*
X160604803Y-106878830D01*
X160604810Y-106878828D01*
X160823509Y-106760474D01*
X161019744Y-106607738D01*
X161039975Y-106585761D01*
X161091984Y-106529265D01*
X161189859Y-106451778D01*
X161306888Y-106408328D01*
X161385538Y-106400500D01*
X162300501Y-106400500D01*
X162423799Y-106420028D01*
X162535027Y-106476702D01*
X162623299Y-106564974D01*
X162679973Y-106676202D01*
X162699501Y-106799500D01*
X162699501Y-106847870D01*
X162705908Y-106907480D01*
X162705908Y-106907481D01*
X162705909Y-106907483D01*
X162725336Y-106959570D01*
X162756202Y-107042327D01*
X162756206Y-107042334D01*
X162823117Y-107131716D01*
X162842454Y-107157546D01*
X162957669Y-107243796D01*
X163092517Y-107294091D01*
X163152127Y-107300500D01*
X165847872Y-107300499D01*
X165907483Y-107294091D01*
X166042331Y-107243796D01*
X166157546Y-107157546D01*
X166243796Y-107042331D01*
X166294091Y-106907483D01*
X166300500Y-106847873D01*
X166300499Y-104152128D01*
X166294091Y-104092517D01*
X166243796Y-103957669D01*
X166157546Y-103842454D01*
X166050013Y-103761955D01*
X166042334Y-103756206D01*
X166042329Y-103756203D01*
X165907482Y-103705908D01*
X165854281Y-103700188D01*
X165847873Y-103699500D01*
X165847872Y-103699500D01*
X163152136Y-103699500D01*
X163152129Y-103699500D01*
X163152128Y-103699501D01*
X163144949Y-103700272D01*
X163092519Y-103705908D01*
X163092517Y-103705909D01*
X162957672Y-103756202D01*
X162957665Y-103756206D01*
X162842458Y-103842450D01*
X162842450Y-103842458D01*
X162756206Y-103957665D01*
X162756203Y-103957670D01*
X162705908Y-104092517D01*
X162699500Y-104152127D01*
X162699500Y-104200500D01*
X162679972Y-104323798D01*
X162623298Y-104435026D01*
X162535026Y-104523298D01*
X162423798Y-104579972D01*
X162300500Y-104599500D01*
X161385538Y-104599500D01*
X161262240Y-104579972D01*
X161151012Y-104523298D01*
X161091984Y-104470735D01*
X161019745Y-104392262D01*
X160862772Y-104270086D01*
X160823509Y-104239526D01*
X160604810Y-104121172D01*
X160604805Y-104121170D01*
X160604801Y-104121168D01*
X160604802Y-104121168D01*
X160369615Y-104040429D01*
X160124342Y-103999500D01*
X160124335Y-103999500D01*
X159875665Y-103999500D01*
X159875657Y-103999500D01*
X159630384Y-104040429D01*
X159395197Y-104121168D01*
X159176492Y-104239525D01*
X158980254Y-104392262D01*
X158811837Y-104575212D01*
X158692141Y-104758422D01*
X158675827Y-104783393D01*
X158675722Y-104783632D01*
X158575937Y-105011117D01*
X158514893Y-105252172D01*
X158514892Y-105252177D01*
X158494357Y-105499998D01*
X158494357Y-105500001D01*
X153885643Y-105500001D01*
X153885643Y-105500000D01*
X153884716Y-105488818D01*
X153880340Y-105436005D01*
X153865108Y-105252179D01*
X153804063Y-105011119D01*
X153704173Y-104783393D01*
X153568164Y-104575215D01*
X153568163Y-104575214D01*
X153568162Y-104575212D01*
X153399745Y-104392262D01*
X153242772Y-104270086D01*
X153203509Y-104239526D01*
X152984810Y-104121172D01*
X152984805Y-104121170D01*
X152984801Y-104121168D01*
X152984802Y-104121168D01*
X152749615Y-104040429D01*
X152504342Y-103999500D01*
X152504335Y-103999500D01*
X152255665Y-103999500D01*
X152255657Y-103999500D01*
X152010384Y-104040429D01*
X151775197Y-104121168D01*
X151556492Y-104239525D01*
X151360254Y-104392262D01*
X151288016Y-104470735D01*
X151190141Y-104548222D01*
X151073112Y-104591672D01*
X150994462Y-104599500D01*
X150680372Y-104599500D01*
X150646369Y-104596824D01*
X150646367Y-104596875D01*
X150625487Y-104595780D01*
X150572129Y-104598577D01*
X150564954Y-104598953D01*
X150544076Y-104599500D01*
X150530902Y-104599500D01*
X150517791Y-104600877D01*
X150496999Y-104602513D01*
X150436454Y-104605686D01*
X150415806Y-104608957D01*
X150415798Y-104608908D01*
X150410283Y-104609930D01*
X150410294Y-104609980D01*
X150389846Y-104614325D01*
X150389844Y-104614326D01*
X150389841Y-104614326D01*
X150389836Y-104614328D01*
X150332183Y-104633060D01*
X150312164Y-104638990D01*
X150253613Y-104654679D01*
X150234098Y-104662171D01*
X150234079Y-104662124D01*
X150228895Y-104664271D01*
X150228916Y-104664317D01*
X150209814Y-104672821D01*
X150157322Y-104703127D01*
X150138977Y-104713088D01*
X150084946Y-104740619D01*
X150067414Y-104752005D01*
X150067387Y-104751963D01*
X150062763Y-104755141D01*
X150062793Y-104755182D01*
X150045886Y-104767464D01*
X150000819Y-104808042D01*
X149984968Y-104821580D01*
X149974734Y-104829868D01*
X149974710Y-104829890D01*
X149965407Y-104839193D01*
X149950267Y-104853560D01*
X149905216Y-104894125D01*
X149891220Y-104909669D01*
X149891182Y-104909634D01*
X149869038Y-104935561D01*
X149175004Y-105629595D01*
X149074010Y-105702971D01*
X148955285Y-105741547D01*
X148830451Y-105741547D01*
X148711726Y-105702971D01*
X148610732Y-105629595D01*
X148537356Y-105528601D01*
X148498780Y-105409876D01*
X148495231Y-105380407D01*
X148484612Y-105252257D01*
X148423589Y-105011285D01*
X148423587Y-105011280D01*
X148323731Y-104783632D01*
X148323725Y-104783621D01*
X148307262Y-104758422D01*
X147327642Y-105738042D01*
X147385165Y-105625148D01*
X147404986Y-105500000D01*
X147385165Y-105374852D01*
X147327641Y-105261955D01*
X147238045Y-105172359D01*
X147125148Y-105114835D01*
X147031481Y-105100000D01*
X146968519Y-105100000D01*
X146874852Y-105114835D01*
X146761955Y-105172359D01*
X146672359Y-105261955D01*
X146614835Y-105374852D01*
X146595014Y-105500000D01*
X146614835Y-105625148D01*
X146672357Y-105738042D01*
X145692737Y-104758422D01*
X145676269Y-104783629D01*
X145576412Y-105011280D01*
X145576410Y-105011285D01*
X145515387Y-105252256D01*
X145494859Y-105499998D01*
X145494859Y-105500001D01*
X145515387Y-105747743D01*
X145576410Y-105988714D01*
X145576414Y-105988724D01*
X145682897Y-106231482D01*
X145681199Y-106232226D01*
X145715883Y-106330601D01*
X145718978Y-106455398D01*
X145683358Y-106575042D01*
X145642879Y-106641885D01*
X145556205Y-106757665D01*
X145556203Y-106757670D01*
X145505908Y-106892517D01*
X145499500Y-106952127D01*
X145499500Y-109047863D01*
X145499500Y-109047869D01*
X145499501Y-109047872D01*
X145500054Y-109053014D01*
X145505908Y-109107480D01*
X145505909Y-109107482D01*
X145556202Y-109242327D01*
X145556206Y-109242334D01*
X145639596Y-109353729D01*
X145642454Y-109357546D01*
X145757669Y-109443796D01*
X145892517Y-109494091D01*
X145952127Y-109500500D01*
X146101902Y-109500499D01*
X146225195Y-109520027D01*
X146336424Y-109576700D01*
X146424696Y-109664971D01*
X146481371Y-109776199D01*
X146500900Y-109899497D01*
X146500900Y-110451227D01*
X146481372Y-110574525D01*
X146424698Y-110685753D01*
X146336426Y-110774025D01*
X146225198Y-110830699D01*
X146101900Y-110850227D01*
X145978602Y-110830699D01*
X145867374Y-110774025D01*
X145856830Y-110766095D01*
X145823229Y-110739942D01*
X145823226Y-110739940D01*
X145604614Y-110621634D01*
X145604608Y-110621632D01*
X145369490Y-110540915D01*
X145124296Y-110500000D01*
X144875703Y-110500000D01*
X144630509Y-110540915D01*
X144395391Y-110621632D01*
X144395390Y-110621632D01*
X144260381Y-110694695D01*
X145238045Y-111672359D01*
X145125148Y-111614835D01*
X145031481Y-111600000D01*
X144968519Y-111600000D01*
X144874852Y-111614835D01*
X144761955Y-111672359D01*
X144672359Y-111761955D01*
X144614835Y-111874852D01*
X144595014Y-112000000D01*
X144614835Y-112125148D01*
X144672357Y-112238042D01*
X143692737Y-111258422D01*
X143676269Y-111283629D01*
X143576412Y-111511280D01*
X143576410Y-111511285D01*
X143515387Y-111752256D01*
X143494859Y-111999998D01*
X143494859Y-112000001D01*
X143515387Y-112247743D01*
X143565429Y-112445350D01*
X143576767Y-112569669D01*
X143549132Y-112691407D01*
X143485232Y-112798647D01*
X143391320Y-112880891D01*
X143276589Y-112930090D01*
X143178639Y-112942300D01*
X141821877Y-112942300D01*
X141698579Y-112922772D01*
X141587351Y-112866098D01*
X141499079Y-112777826D01*
X141442405Y-112666598D01*
X141422877Y-112543300D01*
X141435086Y-112445351D01*
X141485108Y-112247821D01*
X141505643Y-112000000D01*
X141503151Y-111969931D01*
X141512429Y-111845446D01*
X141559723Y-111729917D01*
X141618648Y-111654849D01*
X142564435Y-110709062D01*
X142590363Y-110686920D01*
X142590329Y-110686882D01*
X142605866Y-110672892D01*
X142605866Y-110672890D01*
X142605871Y-110672888D01*
X142646444Y-110627825D01*
X142660803Y-110612695D01*
X142670119Y-110603380D01*
X142678412Y-110593138D01*
X142691951Y-110577285D01*
X142732533Y-110532216D01*
X142732535Y-110532212D01*
X142744825Y-110515296D01*
X142744869Y-110515328D01*
X142748030Y-110510729D01*
X142747985Y-110510700D01*
X142759379Y-110493153D01*
X142759383Y-110493149D01*
X142786906Y-110439130D01*
X142796856Y-110420803D01*
X142827179Y-110368284D01*
X142827181Y-110368277D01*
X142835684Y-110349180D01*
X142835733Y-110349201D01*
X142837876Y-110344027D01*
X142837826Y-110344008D01*
X142845319Y-110324490D01*
X142846720Y-110319262D01*
X142861021Y-110265891D01*
X142866923Y-110245961D01*
X142885674Y-110188256D01*
X142885674Y-110188247D01*
X142885676Y-110188244D01*
X142890024Y-110167792D01*
X142890076Y-110167803D01*
X142891094Y-110162308D01*
X142891041Y-110162300D01*
X142894312Y-110141649D01*
X142894311Y-110141649D01*
X142894313Y-110141646D01*
X142897487Y-110081069D01*
X142899121Y-110060301D01*
X142900500Y-110047192D01*
X142900500Y-110034024D01*
X142901047Y-110013140D01*
X142901423Y-110005975D01*
X142904219Y-109952612D01*
X142904219Y-109952611D01*
X142903125Y-109931733D01*
X142903176Y-109931730D01*
X142900500Y-109897727D01*
X142900500Y-108392527D01*
X142920028Y-108269229D01*
X142976702Y-108158001D01*
X143009713Y-108120935D01*
X143008567Y-108119880D01*
X143188162Y-107924787D01*
X143188161Y-107924787D01*
X143188164Y-107924785D01*
X143324173Y-107716607D01*
X143424063Y-107488881D01*
X143485108Y-107247821D01*
X143505643Y-107000000D01*
X143485108Y-106752179D01*
X143424063Y-106511119D01*
X143324173Y-106283393D01*
X143188164Y-106075215D01*
X143188163Y-106075214D01*
X143188162Y-106075212D01*
X143019745Y-105892262D01*
X142880870Y-105784172D01*
X142823509Y-105739526D01*
X142604810Y-105621172D01*
X142604805Y-105621170D01*
X142604801Y-105621168D01*
X142604802Y-105621168D01*
X142369615Y-105540429D01*
X142124342Y-105499500D01*
X142124335Y-105499500D01*
X141875665Y-105499500D01*
X141875657Y-105499500D01*
X141630384Y-105540429D01*
X141395197Y-105621168D01*
X141176492Y-105739525D01*
X140980254Y-105892262D01*
X140811837Y-106075212D01*
X140675916Y-106283257D01*
X140675827Y-106283393D01*
X140673286Y-106289186D01*
X140575937Y-106511117D01*
X140514893Y-106752172D01*
X140514892Y-106752177D01*
X140494357Y-106999998D01*
X140494357Y-107000001D01*
X140514892Y-107247822D01*
X140514893Y-107247827D01*
X140575937Y-107488882D01*
X140602241Y-107548849D01*
X140675827Y-107716607D01*
X140685080Y-107730770D01*
X140811837Y-107924787D01*
X140991433Y-108119880D01*
X140989031Y-108122091D01*
X141048190Y-108196791D01*
X141091659Y-108313813D01*
X141099500Y-108392527D01*
X141099500Y-109461729D01*
X141079972Y-109585027D01*
X141023298Y-109696255D01*
X140982636Y-109743864D01*
X140343861Y-110382638D01*
X140242871Y-110456012D01*
X140124146Y-110494588D01*
X140061729Y-110499500D01*
X139875657Y-110499500D01*
X139630384Y-110540429D01*
X139395197Y-110621168D01*
X139176492Y-110739525D01*
X138980254Y-110892262D01*
X138811837Y-111075212D01*
X138703272Y-111241385D01*
X138675827Y-111283393D01*
X138663569Y-111311337D01*
X138575937Y-111511117D01*
X138514893Y-111752172D01*
X138514892Y-111752177D01*
X138494357Y-111999998D01*
X138494357Y-112000001D01*
X138514892Y-112247822D01*
X138514893Y-112247827D01*
X138575937Y-112488882D01*
X138594934Y-112532190D01*
X138675827Y-112716607D01*
X138710630Y-112769877D01*
X138811837Y-112924787D01*
X138991433Y-113119880D01*
X138989031Y-113122091D01*
X139048190Y-113196791D01*
X139091659Y-113313813D01*
X139099500Y-113392527D01*
X139099500Y-113429828D01*
X139079972Y-113553126D01*
X139023298Y-113664354D01*
X138982636Y-113711964D01*
X137199736Y-115494864D01*
X137098742Y-115568240D01*
X136980017Y-115606816D01*
X136855183Y-115606816D01*
X136736458Y-115568240D01*
X136635464Y-115494864D01*
X136562088Y-115393870D01*
X136523512Y-115275145D01*
X136518600Y-115212728D01*
X136518600Y-110142272D01*
X136521276Y-110108272D01*
X136521225Y-110108270D01*
X136522319Y-110087388D01*
X136519147Y-110026858D01*
X136518600Y-110005975D01*
X136518600Y-109992815D01*
X136518600Y-109992808D01*
X136517220Y-109979684D01*
X136515587Y-109958940D01*
X136512413Y-109898355D01*
X136512411Y-109898349D01*
X136512411Y-109898341D01*
X136509142Y-109877697D01*
X136509192Y-109877689D01*
X136508172Y-109872187D01*
X136508122Y-109872198D01*
X136503774Y-109851743D01*
X136485041Y-109794090D01*
X136479119Y-109774102D01*
X136463420Y-109715512D01*
X136463417Y-109715507D01*
X136463417Y-109715505D01*
X136455923Y-109695982D01*
X136455972Y-109695962D01*
X136453834Y-109690801D01*
X136453786Y-109690823D01*
X136445279Y-109671716D01*
X136414970Y-109619220D01*
X136404998Y-109600854D01*
X136392691Y-109576700D01*
X136377483Y-109546851D01*
X136377482Y-109546849D01*
X136366096Y-109529316D01*
X136366138Y-109529288D01*
X136362967Y-109524674D01*
X136362926Y-109524704D01*
X136350636Y-109507790D01*
X136350633Y-109507784D01*
X136310073Y-109462738D01*
X136296508Y-109446855D01*
X136288222Y-109436622D01*
X136278897Y-109427297D01*
X136264518Y-109412143D01*
X136223978Y-109367119D01*
X136223974Y-109367115D01*
X136223971Y-109367112D01*
X136223966Y-109367109D01*
X136208435Y-109353124D01*
X136208469Y-109353085D01*
X136182537Y-109330937D01*
X135459356Y-108607756D01*
X135385980Y-108506762D01*
X135347404Y-108388037D01*
X135347404Y-108263203D01*
X135385980Y-108144478D01*
X135447939Y-108055384D01*
X135459813Y-108042486D01*
X135568164Y-107924785D01*
X135704173Y-107716607D01*
X135804063Y-107488881D01*
X135865108Y-107247821D01*
X135885643Y-107000000D01*
X135865108Y-106752179D01*
X135804063Y-106511119D01*
X135704173Y-106283393D01*
X135568164Y-106075215D01*
X135568163Y-106075214D01*
X135568162Y-106075212D01*
X135399745Y-105892262D01*
X135260870Y-105784172D01*
X135203509Y-105739526D01*
X134984810Y-105621172D01*
X134984806Y-105621170D01*
X134984803Y-105621169D01*
X134940567Y-105605983D01*
X134830291Y-105547478D01*
X134743491Y-105457759D01*
X134688665Y-105345608D01*
X134671178Y-105222004D01*
X134692742Y-105099046D01*
X134751247Y-104988770D01*
X134776571Y-104958365D01*
X134807767Y-104924477D01*
X134807767Y-104924476D01*
X134943733Y-104716365D01*
X135043587Y-104488720D01*
X135043588Y-104488717D01*
X135066055Y-104400000D01*
X133651481Y-104400000D01*
X133745148Y-104385165D01*
X133858045Y-104327641D01*
X133947641Y-104238045D01*
X133969729Y-104194695D01*
X146260381Y-104194695D01*
X147000000Y-104934314D01*
X147739618Y-104194695D01*
X147604608Y-104121632D01*
X147604600Y-104121628D01*
X147369490Y-104040915D01*
X147124296Y-104000000D01*
X146875703Y-104000000D01*
X146630509Y-104040915D01*
X146395391Y-104121632D01*
X146395390Y-104121632D01*
X146260381Y-104194695D01*
X133969729Y-104194695D01*
X134005165Y-104125148D01*
X134024986Y-104000000D01*
X134005165Y-103874852D01*
X133947641Y-103761955D01*
X133858045Y-103672359D01*
X133745148Y-103614835D01*
X133651481Y-103600000D01*
X133588519Y-103600000D01*
X133494852Y-103614835D01*
X133381955Y-103672359D01*
X133292359Y-103761955D01*
X133234835Y-103874852D01*
X133215014Y-104000000D01*
X133234835Y-104125148D01*
X133292359Y-104238045D01*
X133381955Y-104327641D01*
X133494852Y-104385165D01*
X133588519Y-104400000D01*
X132173945Y-104400000D01*
X132196411Y-104488717D01*
X132196412Y-104488720D01*
X132296266Y-104716365D01*
X132432232Y-104924476D01*
X132432232Y-104924477D01*
X132600595Y-105107366D01*
X132600601Y-105107372D01*
X132796769Y-105260056D01*
X132796773Y-105260059D01*
X133015385Y-105378365D01*
X133015393Y-105378368D01*
X133059281Y-105393435D01*
X133169558Y-105451938D01*
X133256359Y-105541656D01*
X133311187Y-105653806D01*
X133328676Y-105777410D01*
X133307112Y-105900368D01*
X133248609Y-106010645D01*
X133223286Y-106041049D01*
X133191840Y-106075208D01*
X133055916Y-106283257D01*
X133055827Y-106283393D01*
X133053286Y-106289186D01*
X132955937Y-106511117D01*
X132894893Y-106752172D01*
X132894892Y-106752177D01*
X132874357Y-106999998D01*
X132874357Y-107000001D01*
X132894892Y-107247822D01*
X132894893Y-107247827D01*
X132955937Y-107488882D01*
X132982241Y-107548849D01*
X133055827Y-107716607D01*
X133065080Y-107730770D01*
X133191837Y-107924787D01*
X133312061Y-108055385D01*
X133381201Y-108159325D01*
X133414837Y-108279542D01*
X133409679Y-108404270D01*
X133366229Y-108521299D01*
X133300643Y-108607755D01*
X131623865Y-110284535D01*
X131522871Y-110357911D01*
X131404147Y-110396488D01*
X131341729Y-110401400D01*
X126831718Y-110401400D01*
X126708420Y-110381872D01*
X126597192Y-110325198D01*
X126508920Y-110236926D01*
X126452246Y-110125698D01*
X126432718Y-110002400D01*
X126444928Y-109904449D01*
X126484612Y-109747741D01*
X126505141Y-109500000D01*
X126505141Y-109499998D01*
X126484612Y-109252256D01*
X126423589Y-109011285D01*
X126423587Y-109011280D01*
X126323731Y-108783632D01*
X126323725Y-108783621D01*
X126307262Y-108758422D01*
X125327642Y-109738042D01*
X125385165Y-109625148D01*
X125404986Y-109500000D01*
X125385165Y-109374852D01*
X125327641Y-109261955D01*
X125238045Y-109172359D01*
X125125148Y-109114835D01*
X125031481Y-109100000D01*
X124968519Y-109100000D01*
X124874852Y-109114835D01*
X124761955Y-109172359D01*
X124716447Y-109217866D01*
X124716450Y-109217863D01*
X125739617Y-108194695D01*
X125604608Y-108121632D01*
X125604600Y-108121628D01*
X125369490Y-108040915D01*
X125124296Y-108000000D01*
X124875703Y-108000000D01*
X124630509Y-108040915D01*
X124395393Y-108121631D01*
X124291661Y-108177768D01*
X124173929Y-108219276D01*
X124049133Y-108222371D01*
X123929488Y-108186751D01*
X123862644Y-108146271D01*
X123857547Y-108142455D01*
X123857546Y-108142454D01*
X123810688Y-108107376D01*
X123723689Y-108017854D01*
X123668610Y-107905827D01*
X123650846Y-107782263D01*
X123672134Y-107659257D01*
X123730391Y-107548849D01*
X123767657Y-107505841D01*
X125656134Y-105617363D01*
X125757128Y-105543988D01*
X125875853Y-105505412D01*
X125938270Y-105500500D01*
X126124335Y-105500500D01*
X126124342Y-105500499D01*
X126193024Y-105489038D01*
X126369614Y-105459571D01*
X126557586Y-105395040D01*
X126604802Y-105378831D01*
X126604803Y-105378830D01*
X126604810Y-105378828D01*
X126823509Y-105260474D01*
X127019744Y-105107738D01*
X127020087Y-105107366D01*
X127110630Y-105009009D01*
X127188164Y-104924785D01*
X127324173Y-104716607D01*
X127424063Y-104488881D01*
X127485108Y-104247821D01*
X127505643Y-104000000D01*
X127485108Y-103752179D01*
X127446571Y-103599999D01*
X132173944Y-103599999D01*
X132173945Y-103600000D01*
X133219999Y-103600000D01*
X133220000Y-103599999D01*
X133220000Y-102551389D01*
X134020000Y-102551389D01*
X134020000Y-103599999D01*
X134020001Y-103600000D01*
X135066055Y-103600000D01*
X135066055Y-103599999D01*
X135043588Y-103511282D01*
X135043587Y-103511279D01*
X134943733Y-103283634D01*
X134807767Y-103075523D01*
X134807767Y-103075522D01*
X134639404Y-102892633D01*
X134639398Y-102892627D01*
X134443230Y-102739943D01*
X134443226Y-102739940D01*
X134224610Y-102621632D01*
X134020000Y-102551389D01*
X133220000Y-102551389D01*
X133219999Y-102551389D01*
X133015389Y-102621632D01*
X132796773Y-102739940D01*
X132796769Y-102739943D01*
X132600601Y-102892627D01*
X132600595Y-102892633D01*
X132432232Y-103075522D01*
X132432232Y-103075523D01*
X132296266Y-103283634D01*
X132196412Y-103511279D01*
X132196411Y-103511282D01*
X132173944Y-103599999D01*
X127446571Y-103599999D01*
X127424063Y-103511119D01*
X127324173Y-103283393D01*
X127188164Y-103075215D01*
X127188163Y-103075214D01*
X127188162Y-103075212D01*
X127019745Y-102892262D01*
X126905333Y-102803212D01*
X126823509Y-102739526D01*
X126604810Y-102621172D01*
X126604805Y-102621170D01*
X126604801Y-102621168D01*
X126604802Y-102621168D01*
X126369615Y-102540429D01*
X126124342Y-102499500D01*
X126124335Y-102499500D01*
X125875665Y-102499500D01*
X125875657Y-102499500D01*
X125630384Y-102540429D01*
X125395197Y-102621168D01*
X125176492Y-102739525D01*
X124980254Y-102892262D01*
X124811837Y-103075212D01*
X124675828Y-103283391D01*
X124575937Y-103511117D01*
X124514893Y-103752172D01*
X124514892Y-103752177D01*
X124494357Y-103999998D01*
X124494357Y-104000000D01*
X124496848Y-104030068D01*
X124487568Y-104154558D01*
X124440273Y-104270086D01*
X124381347Y-104345152D01*
X121935561Y-106790938D01*
X121909634Y-106813082D01*
X121909669Y-106813120D01*
X121894125Y-106827116D01*
X121853560Y-106872167D01*
X121839193Y-106887307D01*
X121829890Y-106896610D01*
X121829868Y-106896634D01*
X121821580Y-106906868D01*
X121808042Y-106922719D01*
X121767464Y-106967786D01*
X121755182Y-106984693D01*
X121755141Y-106984663D01*
X121751963Y-106989287D01*
X121752005Y-106989314D01*
X121740619Y-107006846D01*
X121713088Y-107060877D01*
X121703127Y-107079222D01*
X121672821Y-107131714D01*
X121664317Y-107150816D01*
X121664271Y-107150795D01*
X121662124Y-107155979D01*
X121662171Y-107155998D01*
X121654679Y-107175513D01*
X121638990Y-107234064D01*
X121633060Y-107254083D01*
X121614328Y-107311736D01*
X121609980Y-107332194D01*
X121609930Y-107332183D01*
X121608908Y-107337698D01*
X121608957Y-107337706D01*
X121605686Y-107358354D01*
X121602513Y-107418899D01*
X121600877Y-107439691D01*
X121599500Y-107452801D01*
X121599500Y-107465975D01*
X121598953Y-107486858D01*
X121595780Y-107547388D01*
X121596875Y-107568270D01*
X121596823Y-107568272D01*
X121599500Y-107602272D01*
X121599500Y-107651677D01*
X121579972Y-107774975D01*
X121523298Y-107886203D01*
X121435026Y-107974475D01*
X121339933Y-108025521D01*
X121294447Y-108042486D01*
X121172099Y-108067276D01*
X121048078Y-108053045D01*
X120934525Y-108001186D01*
X120872878Y-107950778D01*
X119507865Y-106585766D01*
X119485718Y-106559834D01*
X119485680Y-106559869D01*
X119471686Y-106544327D01*
X119426645Y-106503772D01*
X119411492Y-106489393D01*
X119402181Y-106480082D01*
X119391940Y-106471788D01*
X119376079Y-106458240D01*
X119331022Y-106417672D01*
X119331019Y-106417670D01*
X119331016Y-106417667D01*
X119331011Y-106417664D01*
X119314102Y-106405379D01*
X119314132Y-106405337D01*
X119309511Y-106402162D01*
X119309484Y-106402205D01*
X119291947Y-106390816D01*
X119282893Y-106386203D01*
X119237937Y-106363296D01*
X119219587Y-106353334D01*
X119219575Y-106353327D01*
X119167084Y-106323021D01*
X119167082Y-106323020D01*
X119167080Y-106323019D01*
X119147979Y-106314515D01*
X119147999Y-106314468D01*
X119142821Y-106312323D01*
X119142803Y-106312372D01*
X119123289Y-106304880D01*
X119123288Y-106304880D01*
X119123286Y-106304879D01*
X119123277Y-106304876D01*
X119064725Y-106289186D01*
X119044709Y-106283257D01*
X118987062Y-106264527D01*
X118966600Y-106260178D01*
X118966610Y-106260128D01*
X118961098Y-106259106D01*
X118961091Y-106259157D01*
X118940444Y-106255886D01*
X118879902Y-106252713D01*
X118859108Y-106251077D01*
X118846012Y-106249701D01*
X118845996Y-106249700D01*
X118845992Y-106249700D01*
X118845982Y-106249700D01*
X118832824Y-106249700D01*
X118811945Y-106249153D01*
X118804440Y-106248759D01*
X118751412Y-106245980D01*
X118730533Y-106247075D01*
X118730530Y-106247024D01*
X118696528Y-106249700D01*
X117373372Y-106249700D01*
X117339370Y-106247024D01*
X117339368Y-106247075D01*
X117318488Y-106245980D01*
X117262991Y-106248889D01*
X117257961Y-106249153D01*
X117237080Y-106249700D01*
X117223908Y-106249700D01*
X117219344Y-106250179D01*
X117210790Y-106251078D01*
X117190000Y-106252714D01*
X117129448Y-106255888D01*
X117108798Y-106259159D01*
X117108790Y-106259110D01*
X117103277Y-106260132D01*
X117103288Y-106260181D01*
X117082837Y-106264527D01*
X117025171Y-106283264D01*
X117005146Y-106289195D01*
X116946615Y-106304878D01*
X116927094Y-106312372D01*
X116927076Y-106312325D01*
X116921895Y-106314471D01*
X116921916Y-106314517D01*
X116902814Y-106323021D01*
X116850322Y-106353327D01*
X116831977Y-106363288D01*
X116777946Y-106390819D01*
X116760414Y-106402205D01*
X116760387Y-106402163D01*
X116755763Y-106405341D01*
X116755793Y-106405382D01*
X116738886Y-106417664D01*
X116693819Y-106458242D01*
X116677968Y-106471780D01*
X116667734Y-106480068D01*
X116667710Y-106480090D01*
X116658407Y-106489393D01*
X116643267Y-106503760D01*
X116598216Y-106544325D01*
X116584220Y-106559869D01*
X116584182Y-106559834D01*
X116562038Y-106585761D01*
X114435561Y-108712238D01*
X114409634Y-108734382D01*
X114409669Y-108734420D01*
X114394125Y-108748416D01*
X114353560Y-108793467D01*
X114339193Y-108808607D01*
X114329890Y-108817910D01*
X114329868Y-108817934D01*
X114321580Y-108828168D01*
X114308042Y-108844019D01*
X114267464Y-108889086D01*
X114255182Y-108905993D01*
X114255141Y-108905963D01*
X114251963Y-108910587D01*
X114252005Y-108910614D01*
X114240619Y-108928146D01*
X114213088Y-108982177D01*
X114203127Y-109000522D01*
X114172821Y-109053014D01*
X114164317Y-109072116D01*
X114164271Y-109072095D01*
X114162124Y-109077279D01*
X114162171Y-109077298D01*
X114154679Y-109096813D01*
X114138990Y-109155364D01*
X114133060Y-109175383D01*
X114114328Y-109233036D01*
X114109980Y-109253494D01*
X114109930Y-109253483D01*
X114108908Y-109258998D01*
X114108957Y-109259006D01*
X114105686Y-109279654D01*
X114102513Y-109340199D01*
X114100877Y-109360991D01*
X114099500Y-109374101D01*
X114099500Y-109387275D01*
X114098953Y-109408158D01*
X114095780Y-109468688D01*
X114096875Y-109489570D01*
X114096823Y-109489572D01*
X114099500Y-109523572D01*
X114099500Y-110607472D01*
X114079972Y-110730770D01*
X114023298Y-110841998D01*
X113990289Y-110879067D01*
X113991433Y-110880120D01*
X113811837Y-111075212D01*
X113703272Y-111241385D01*
X113675827Y-111283393D01*
X113663569Y-111311337D01*
X113575937Y-111511117D01*
X113514893Y-111752172D01*
X113514892Y-111752177D01*
X113494357Y-111999998D01*
X113494357Y-112000001D01*
X113514892Y-112247822D01*
X113514893Y-112247827D01*
X113575937Y-112488882D01*
X113594934Y-112532190D01*
X113675827Y-112716607D01*
X113710630Y-112769877D01*
X113811837Y-112924787D01*
X113980254Y-113107737D01*
X114016933Y-113136285D01*
X114176491Y-113260474D01*
X114395190Y-113378828D01*
X114395196Y-113378830D01*
X114395198Y-113378831D01*
X114395197Y-113378831D01*
X114501088Y-113415183D01*
X114630386Y-113459571D01*
X114793604Y-113486806D01*
X114875657Y-113500499D01*
X114875665Y-113500500D01*
X115124335Y-113500500D01*
X115124342Y-113500499D01*
X115165515Y-113493628D01*
X115369614Y-113459571D01*
X115539282Y-113401323D01*
X115604802Y-113378831D01*
X115604803Y-113378830D01*
X115604810Y-113378828D01*
X115823509Y-113260474D01*
X116019744Y-113107738D01*
X116188164Y-112924785D01*
X116324173Y-112716607D01*
X116424063Y-112488881D01*
X116485108Y-112247821D01*
X116505643Y-112000000D01*
X116485108Y-111752179D01*
X116424063Y-111511119D01*
X116324173Y-111283393D01*
X116188164Y-111075215D01*
X116188163Y-111075214D01*
X116188162Y-111075212D01*
X116008567Y-110880120D01*
X116010964Y-110877912D01*
X115951770Y-110803137D01*
X115908325Y-110686106D01*
X115900500Y-110607472D01*
X115900500Y-109959569D01*
X115920028Y-109836271D01*
X115976702Y-109725043D01*
X116017349Y-109677449D01*
X116052725Y-109642073D01*
X116153708Y-109568704D01*
X116272432Y-109530126D01*
X116397267Y-109530124D01*
X116515992Y-109568699D01*
X116616987Y-109642073D01*
X116668885Y-109705981D01*
X116675826Y-109716605D01*
X116675827Y-109716607D01*
X116719562Y-109783549D01*
X116811837Y-109924787D01*
X116991433Y-110119880D01*
X116989031Y-110122091D01*
X117048190Y-110196791D01*
X117091659Y-110313813D01*
X117099500Y-110392527D01*
X117099500Y-110397727D01*
X117096823Y-110431730D01*
X117096875Y-110431733D01*
X117095781Y-110452611D01*
X117095781Y-110452612D01*
X117098290Y-110500499D01*
X117098953Y-110513140D01*
X117099500Y-110534024D01*
X117099500Y-110547182D01*
X117099501Y-110547212D01*
X117100877Y-110560308D01*
X117102513Y-110581102D01*
X117105686Y-110641644D01*
X117108957Y-110662291D01*
X117108906Y-110662298D01*
X117109928Y-110667810D01*
X117109978Y-110667800D01*
X117114327Y-110688262D01*
X117133057Y-110745909D01*
X117138986Y-110765925D01*
X117154676Y-110824477D01*
X117162172Y-110844003D01*
X117162123Y-110844021D01*
X117164268Y-110849199D01*
X117164315Y-110849179D01*
X117172819Y-110868280D01*
X117203134Y-110920787D01*
X117213096Y-110939137D01*
X117229197Y-110970735D01*
X117240616Y-110993147D01*
X117252005Y-111010684D01*
X117251962Y-111010711D01*
X117255137Y-111015332D01*
X117255179Y-111015302D01*
X117267464Y-111032211D01*
X117267467Y-111032216D01*
X117267470Y-111032219D01*
X117267472Y-111032222D01*
X117308040Y-111077279D01*
X117321588Y-111093140D01*
X117329882Y-111103381D01*
X117339193Y-111112692D01*
X117353572Y-111127845D01*
X117394127Y-111172886D01*
X117409669Y-111186880D01*
X117409634Y-111186918D01*
X117435566Y-111209065D01*
X120381347Y-114154846D01*
X120454723Y-114255840D01*
X120493299Y-114374565D01*
X120496848Y-114469926D01*
X120494358Y-114499996D01*
X120494357Y-114500003D01*
X120514892Y-114747822D01*
X120514893Y-114747827D01*
X120572853Y-114976702D01*
X120575937Y-114988881D01*
X120675827Y-115216607D01*
X120675828Y-115216608D01*
X120811837Y-115424787D01*
X120980254Y-115607737D01*
X121039851Y-115654123D01*
X121176491Y-115760474D01*
X121395190Y-115878828D01*
X121395196Y-115878830D01*
X121395198Y-115878831D01*
X121395197Y-115878831D01*
X121510086Y-115918272D01*
X121630386Y-115959571D01*
X121787679Y-115985818D01*
X121875657Y-116000499D01*
X121875665Y-116000500D01*
X122061729Y-116000500D01*
X122185027Y-116020028D01*
X122296255Y-116076702D01*
X122343865Y-116117364D01*
X127177713Y-120951212D01*
X127218376Y-120998823D01*
X127221888Y-121003658D01*
X127229547Y-121014199D01*
X127252285Y-121049213D01*
X127265564Y-121072212D01*
X127265565Y-121072214D01*
X127265567Y-121072216D01*
X127283331Y-121091945D01*
X127309612Y-121124399D01*
X127325213Y-121145873D01*
X127344939Y-121163634D01*
X127374462Y-121193156D01*
X127392229Y-121212888D01*
X127413697Y-121228485D01*
X127446151Y-121254765D01*
X127465884Y-121272533D01*
X127488875Y-121285807D01*
X127523891Y-121308547D01*
X127545361Y-121324145D01*
X127545364Y-121324146D01*
X127545370Y-121324151D01*
X127552915Y-121327510D01*
X127569620Y-121334948D01*
X127606832Y-121353909D01*
X127629816Y-121367179D01*
X127655051Y-121375378D01*
X127694052Y-121390349D01*
X127737403Y-121409651D01*
X127736933Y-121410706D01*
X127829166Y-121457699D01*
X127917438Y-121545969D01*
X127974114Y-121657197D01*
X127993644Y-121780494D01*
X127974117Y-121903792D01*
X127917445Y-122015022D01*
X127829175Y-122103294D01*
X127717947Y-122159970D01*
X127594650Y-122179500D01*
X126505538Y-122179500D01*
X126382240Y-122159972D01*
X126271012Y-122103298D01*
X126211984Y-122050735D01*
X126139745Y-121972262D01*
X126005558Y-121867821D01*
X125943509Y-121819526D01*
X125724810Y-121701172D01*
X125724805Y-121701170D01*
X125724801Y-121701168D01*
X125724802Y-121701168D01*
X125489615Y-121620429D01*
X125244342Y-121579500D01*
X125244335Y-121579500D01*
X124995665Y-121579500D01*
X124995657Y-121579500D01*
X124750384Y-121620429D01*
X124515197Y-121701168D01*
X124296492Y-121819525D01*
X124100254Y-121972262D01*
X123931837Y-122155212D01*
X123795828Y-122363391D01*
X123695937Y-122591117D01*
X123634893Y-122832172D01*
X123634892Y-122832177D01*
X123614357Y-123079998D01*
X123614357Y-123080001D01*
X123634892Y-123327822D01*
X123634893Y-123327827D01*
X123695937Y-123568882D01*
X123738816Y-123666636D01*
X123795827Y-123796607D01*
X123841751Y-123866899D01*
X123931837Y-124004787D01*
X124105351Y-124193273D01*
X124174491Y-124297212D01*
X124208127Y-124417430D01*
X124202969Y-124542158D01*
X124176307Y-124625785D01*
X124164322Y-124652706D01*
X124164275Y-124652685D01*
X124162118Y-124657892D01*
X124162166Y-124657911D01*
X124151172Y-124686547D01*
X124088749Y-124794654D01*
X124023758Y-124858401D01*
X123980258Y-124892259D01*
X123980254Y-124892262D01*
X123811837Y-125075212D01*
X123675828Y-125283391D01*
X123575937Y-125511117D01*
X123514893Y-125752172D01*
X123514892Y-125752177D01*
X123494357Y-125999998D01*
X123494357Y-126000001D01*
X123514892Y-126247822D01*
X123514893Y-126247827D01*
X123575937Y-126488882D01*
X123589599Y-126520028D01*
X123675827Y-126716607D01*
X123726413Y-126794035D01*
X123811837Y-126924787D01*
X123980254Y-127107737D01*
X124062080Y-127171424D01*
X124176491Y-127260474D01*
X124395190Y-127378828D01*
X124395196Y-127378830D01*
X124395198Y-127378831D01*
X124395197Y-127378831D01*
X124549413Y-127431772D01*
X124630386Y-127459571D01*
X124793604Y-127486806D01*
X124875657Y-127500499D01*
X124875665Y-127500500D01*
X125124335Y-127500500D01*
X125124342Y-127500499D01*
X125193965Y-127488881D01*
X125369614Y-127459571D01*
X125539282Y-127401323D01*
X125604802Y-127378831D01*
X125604803Y-127378830D01*
X125604810Y-127378828D01*
X125823509Y-127260474D01*
X126019744Y-127107738D01*
X126188164Y-126924785D01*
X126324173Y-126716607D01*
X126424063Y-126488881D01*
X126485108Y-126247821D01*
X126503986Y-126020000D01*
X128359557Y-126020000D01*
X128376567Y-126083487D01*
X128476401Y-126297580D01*
X128611887Y-126491074D01*
X128778925Y-126658112D01*
X128972421Y-126793599D01*
X128972422Y-126793600D01*
X129186507Y-126893430D01*
X129414678Y-126954568D01*
X129591061Y-126969999D01*
X129591066Y-126970000D01*
X129599999Y-126970000D01*
X129600000Y-126969999D01*
X130400000Y-126969999D01*
X130400001Y-126970000D01*
X130408934Y-126970000D01*
X130408938Y-126969999D01*
X130585320Y-126954568D01*
X130585322Y-126954568D01*
X130813492Y-126893430D01*
X131027577Y-126793600D01*
X131027578Y-126793599D01*
X131221074Y-126658112D01*
X131388111Y-126491075D01*
X131523600Y-126297576D01*
X131623430Y-126083490D01*
X131623431Y-126083489D01*
X131640443Y-126020000D01*
X130400001Y-126020000D01*
X130400000Y-126020001D01*
X130400000Y-126969999D01*
X129600000Y-126969999D01*
X129600000Y-126020001D01*
X129599999Y-126020000D01*
X128359557Y-126020000D01*
X126503986Y-126020000D01*
X126505643Y-126000000D01*
X126505174Y-125994345D01*
X126499411Y-125924787D01*
X126485108Y-125752179D01*
X126424063Y-125511119D01*
X126324173Y-125283393D01*
X126188164Y-125075215D01*
X126188163Y-125075214D01*
X126188162Y-125075212D01*
X126125945Y-125007626D01*
X126056806Y-124903686D01*
X126023169Y-124783468D01*
X126020500Y-124737392D01*
X126020500Y-124472527D01*
X126040028Y-124349229D01*
X126096702Y-124238001D01*
X126129713Y-124200935D01*
X126128567Y-124199880D01*
X126211984Y-124109265D01*
X126309859Y-124031778D01*
X126426888Y-123988328D01*
X126505538Y-123980500D01*
X128417041Y-123980500D01*
X128540339Y-124000028D01*
X128651567Y-124056702D01*
X128739839Y-124144974D01*
X128796513Y-124256202D01*
X128816041Y-124379500D01*
X128796513Y-124502798D01*
X128739839Y-124614026D01*
X128699177Y-124661636D01*
X128611888Y-124748924D01*
X128476399Y-124942423D01*
X128376569Y-125156509D01*
X128376568Y-125156510D01*
X128359557Y-125219999D01*
X128359557Y-125220000D01*
X129968519Y-125220000D01*
X129874852Y-125234835D01*
X129761955Y-125292359D01*
X129672359Y-125381955D01*
X129614835Y-125494852D01*
X129595014Y-125620000D01*
X129614835Y-125745148D01*
X129672359Y-125858045D01*
X129761955Y-125947641D01*
X129874852Y-126005165D01*
X129968519Y-126020000D01*
X130031481Y-126020000D01*
X130125148Y-126005165D01*
X130238045Y-125947641D01*
X130327641Y-125858045D01*
X130385165Y-125745148D01*
X130404986Y-125620000D01*
X130385165Y-125494852D01*
X130327641Y-125381955D01*
X130238045Y-125292359D01*
X130125148Y-125234835D01*
X130031481Y-125220000D01*
X131640443Y-125220000D01*
X131640443Y-125219999D01*
X131623432Y-125156512D01*
X131523598Y-124942419D01*
X131388112Y-124748925D01*
X131271677Y-124632490D01*
X131198301Y-124531496D01*
X131159725Y-124412771D01*
X131159725Y-124287937D01*
X131198301Y-124169212D01*
X131271674Y-124068221D01*
X131388495Y-123951401D01*
X131524035Y-123757830D01*
X131623903Y-123543663D01*
X131685063Y-123315408D01*
X131705659Y-123080000D01*
X131685063Y-122844592D01*
X131623903Y-122616337D01*
X131524035Y-122402171D01*
X131388495Y-122208599D01*
X131272028Y-122092132D01*
X131198655Y-121991142D01*
X131160079Y-121872417D01*
X131160079Y-121747583D01*
X131198655Y-121628858D01*
X131272028Y-121527867D01*
X131388495Y-121411401D01*
X131524035Y-121217830D01*
X131623903Y-121003663D01*
X131642045Y-120935954D01*
X131692818Y-120821912D01*
X131776348Y-120729141D01*
X131884458Y-120666723D01*
X132006564Y-120640767D01*
X132130715Y-120653815D01*
X132244758Y-120704588D01*
X132309578Y-120757077D01*
X132792638Y-121240137D01*
X132866012Y-121341128D01*
X132904588Y-121459853D01*
X132909500Y-121522270D01*
X132909500Y-125452927D01*
X132906823Y-125486930D01*
X132906875Y-125486933D01*
X132905781Y-125507811D01*
X132908953Y-125568340D01*
X132909500Y-125589224D01*
X132909500Y-125602382D01*
X132909501Y-125602412D01*
X132910877Y-125615508D01*
X132912513Y-125636302D01*
X132915686Y-125696844D01*
X132918957Y-125717491D01*
X132918906Y-125717498D01*
X132919928Y-125723010D01*
X132919978Y-125723000D01*
X132924327Y-125743462D01*
X132943057Y-125801109D01*
X132948986Y-125821125D01*
X132964676Y-125879677D01*
X132972172Y-125899203D01*
X132972123Y-125899221D01*
X132974268Y-125904399D01*
X132974315Y-125904379D01*
X132982819Y-125923480D01*
X132982820Y-125923482D01*
X132982821Y-125923484D01*
X132996768Y-125947641D01*
X133013134Y-125975987D01*
X133023101Y-125994345D01*
X133050616Y-126048347D01*
X133062005Y-126065884D01*
X133061962Y-126065911D01*
X133065137Y-126070532D01*
X133065179Y-126070502D01*
X133077464Y-126087411D01*
X133077467Y-126087416D01*
X133077470Y-126087419D01*
X133077472Y-126087422D01*
X133118040Y-126132479D01*
X133131588Y-126148340D01*
X133139882Y-126158581D01*
X133149193Y-126167892D01*
X133163572Y-126183045D01*
X133204127Y-126228086D01*
X133219669Y-126242080D01*
X133219634Y-126242118D01*
X133245566Y-126264265D01*
X136892113Y-129910812D01*
X136965489Y-130011806D01*
X137004065Y-130130531D01*
X137007614Y-130159995D01*
X137014892Y-130247827D01*
X137075937Y-130488881D01*
X137175827Y-130716607D01*
X137175828Y-130716608D01*
X137311837Y-130924787D01*
X137491433Y-131119880D01*
X137489031Y-131122091D01*
X137548190Y-131196791D01*
X137591659Y-131313813D01*
X137599500Y-131392527D01*
X137599500Y-135961729D01*
X137579972Y-136085027D01*
X137523298Y-136196255D01*
X137482637Y-136243862D01*
X137343862Y-136382637D01*
X137242871Y-136456012D01*
X137124146Y-136494588D01*
X137061729Y-136499500D01*
X136875657Y-136499500D01*
X136630384Y-136540429D01*
X136395197Y-136621168D01*
X136176492Y-136739525D01*
X135980254Y-136892262D01*
X135811837Y-137075212D01*
X135675828Y-137283391D01*
X135575937Y-137511117D01*
X135514893Y-137752172D01*
X135514892Y-137752177D01*
X135494357Y-137999998D01*
X135494357Y-138000001D01*
X135514892Y-138247822D01*
X135514893Y-138247827D01*
X135569759Y-138464484D01*
X135575937Y-138488881D01*
X135675827Y-138716607D01*
X135732123Y-138802775D01*
X135811837Y-138924787D01*
X135980254Y-139107737D01*
X136042002Y-139155797D01*
X136176491Y-139260474D01*
X136395190Y-139378828D01*
X136395196Y-139378830D01*
X136395198Y-139378831D01*
X136395197Y-139378831D01*
X136516203Y-139420372D01*
X136630386Y-139459571D01*
X136791251Y-139486414D01*
X136875657Y-139500499D01*
X136875665Y-139500500D01*
X137124335Y-139500500D01*
X137124342Y-139500499D01*
X137165515Y-139493628D01*
X137369614Y-139459571D01*
X137539282Y-139401323D01*
X137604802Y-139378831D01*
X137604803Y-139378830D01*
X137604810Y-139378828D01*
X137823509Y-139260474D01*
X138019744Y-139107738D01*
X138188164Y-138924785D01*
X138324173Y-138716607D01*
X138424063Y-138488881D01*
X138485108Y-138247821D01*
X138505643Y-138000000D01*
X138503151Y-137969931D01*
X138512429Y-137845446D01*
X138559723Y-137729917D01*
X138618648Y-137654849D01*
X139064435Y-137209062D01*
X139090363Y-137186920D01*
X139090329Y-137186882D01*
X139105866Y-137172892D01*
X139105866Y-137172890D01*
X139105871Y-137172888D01*
X139146444Y-137127825D01*
X139160803Y-137112695D01*
X139170119Y-137103380D01*
X139178412Y-137093138D01*
X139191951Y-137077285D01*
X139232533Y-137032216D01*
X139232535Y-137032212D01*
X139244825Y-137015296D01*
X139244869Y-137015328D01*
X139248030Y-137010729D01*
X139247985Y-137010700D01*
X139259379Y-136993153D01*
X139259383Y-136993149D01*
X139286906Y-136939130D01*
X139296856Y-136920803D01*
X139327179Y-136868284D01*
X139327181Y-136868277D01*
X139335684Y-136849180D01*
X139335733Y-136849202D01*
X139337874Y-136844033D01*
X139337824Y-136844014D01*
X139345315Y-136824495D01*
X139345320Y-136824488D01*
X139361010Y-136765925D01*
X139366933Y-136745930D01*
X139385674Y-136688256D01*
X139385675Y-136688251D01*
X139390023Y-136667796D01*
X139390074Y-136667807D01*
X139391094Y-136662307D01*
X139391041Y-136662299D01*
X139394312Y-136641646D01*
X139397484Y-136581120D01*
X139399123Y-136560290D01*
X139400500Y-136547192D01*
X139400500Y-136534020D01*
X139401047Y-136513135D01*
X139404219Y-136452611D01*
X139403125Y-136431732D01*
X139403176Y-136431729D01*
X139400500Y-136397727D01*
X139400500Y-131392527D01*
X139420028Y-131269229D01*
X139476702Y-131158001D01*
X139509713Y-131120935D01*
X139508567Y-131119880D01*
X139688162Y-130924787D01*
X139688161Y-130924787D01*
X139688164Y-130924785D01*
X139824173Y-130716607D01*
X139924063Y-130488881D01*
X139985108Y-130247821D01*
X140005643Y-130000000D01*
X139985108Y-129752179D01*
X139924063Y-129511119D01*
X139824173Y-129283393D01*
X139688164Y-129075215D01*
X139688163Y-129075214D01*
X139688162Y-129075212D01*
X139519745Y-128892262D01*
X139352206Y-128761862D01*
X139323509Y-128739526D01*
X139104810Y-128621172D01*
X139104805Y-128621170D01*
X139104801Y-128621168D01*
X139104802Y-128621168D01*
X138869615Y-128540429D01*
X138624342Y-128499500D01*
X138624335Y-128499500D01*
X138375665Y-128499500D01*
X138375663Y-128499500D01*
X138280125Y-128515442D01*
X138155294Y-128516473D01*
X138036255Y-128478879D01*
X137934659Y-128406340D01*
X137932318Y-128404019D01*
X137179935Y-127651636D01*
X137106559Y-127550642D01*
X137067983Y-127431917D01*
X137067983Y-127307083D01*
X137106559Y-127188358D01*
X137179935Y-127087364D01*
X137280929Y-127013988D01*
X137399654Y-126975412D01*
X137462071Y-126970500D01*
X138028956Y-126970500D01*
X138028966Y-126970500D01*
X138205408Y-126955063D01*
X138433663Y-126893903D01*
X138647829Y-126794035D01*
X138841401Y-126658495D01*
X139008495Y-126491401D01*
X139144035Y-126297830D01*
X139243903Y-126083663D01*
X139305063Y-125855408D01*
X139325659Y-125620000D01*
X139305063Y-125384592D01*
X139243903Y-125156337D01*
X139144035Y-124942171D01*
X139008495Y-124748599D01*
X138921528Y-124661632D01*
X138848155Y-124560642D01*
X138809579Y-124441917D01*
X138809579Y-124317083D01*
X138848155Y-124198358D01*
X138921531Y-124097364D01*
X139022525Y-124023988D01*
X139141250Y-123985412D01*
X139203667Y-123980500D01*
X141357728Y-123980500D01*
X141391730Y-123983175D01*
X141391733Y-123983125D01*
X141412612Y-123984219D01*
X141473145Y-123981046D01*
X141494024Y-123980500D01*
X141507188Y-123980500D01*
X141507192Y-123980500D01*
X141520301Y-123979121D01*
X141541069Y-123977487D01*
X141601646Y-123974313D01*
X141601650Y-123974311D01*
X141622300Y-123971041D01*
X141622308Y-123971094D01*
X141627803Y-123970076D01*
X141627792Y-123970024D01*
X141648244Y-123965676D01*
X141648247Y-123965674D01*
X141648256Y-123965674D01*
X141705961Y-123946923D01*
X141725891Y-123941021D01*
X141784488Y-123925320D01*
X141784490Y-123925319D01*
X141804008Y-123917826D01*
X141804027Y-123917876D01*
X141809201Y-123915733D01*
X141809180Y-123915684D01*
X141828277Y-123907181D01*
X141828284Y-123907179D01*
X141880803Y-123876856D01*
X141899130Y-123866906D01*
X141953149Y-123839383D01*
X141953153Y-123839379D01*
X141970700Y-123827985D01*
X141970729Y-123828030D01*
X141975328Y-123824869D01*
X141975296Y-123824825D01*
X141992212Y-123812535D01*
X141992216Y-123812533D01*
X142037285Y-123771951D01*
X142053138Y-123758412D01*
X142063380Y-123750119D01*
X142072695Y-123740803D01*
X142087825Y-123726444D01*
X142132888Y-123685871D01*
X142132892Y-123685866D01*
X142146882Y-123670329D01*
X142146920Y-123670363D01*
X142169062Y-123644435D01*
X142188266Y-123625231D01*
X142289257Y-123551858D01*
X142407982Y-123513282D01*
X142532816Y-123513282D01*
X142651541Y-123551858D01*
X142752535Y-123625234D01*
X146819383Y-127692082D01*
X146892759Y-127793076D01*
X146931335Y-127911801D01*
X146931335Y-128036635D01*
X146892759Y-128155360D01*
X146819383Y-128256354D01*
X146718389Y-128329730D01*
X146710368Y-128333704D01*
X146497231Y-128436346D01*
X146497228Y-128436348D01*
X146497226Y-128436349D01*
X146321457Y-128556186D01*
X146274259Y-128588365D01*
X146076437Y-128771917D01*
X145935000Y-128949273D01*
X145842857Y-129033495D01*
X145729198Y-129085121D01*
X145623050Y-129099500D01*
X144885538Y-129099500D01*
X144762240Y-129079972D01*
X144651012Y-129023298D01*
X144591984Y-128970735D01*
X144519745Y-128892262D01*
X144352206Y-128761862D01*
X144323509Y-128739526D01*
X144104810Y-128621172D01*
X144104805Y-128621170D01*
X144104801Y-128621168D01*
X144104802Y-128621168D01*
X143869615Y-128540429D01*
X143624342Y-128499500D01*
X143624335Y-128499500D01*
X143375665Y-128499500D01*
X143375657Y-128499500D01*
X143130384Y-128540429D01*
X142895197Y-128621168D01*
X142676492Y-128739525D01*
X142480254Y-128892262D01*
X142311837Y-129075212D01*
X142175828Y-129283391D01*
X142075937Y-129511117D01*
X142014893Y-129752172D01*
X142014892Y-129752177D01*
X141994357Y-129999998D01*
X141994357Y-130000001D01*
X142014892Y-130247822D01*
X142014893Y-130247827D01*
X142075937Y-130488881D01*
X142175827Y-130716607D01*
X142175828Y-130716608D01*
X142311837Y-130924787D01*
X142480254Y-131107737D01*
X142534554Y-131150000D01*
X142676491Y-131260474D01*
X142895190Y-131378828D01*
X142895196Y-131378830D01*
X142895198Y-131378831D01*
X142895197Y-131378831D01*
X142990750Y-131411634D01*
X143130386Y-131459571D01*
X143293604Y-131486806D01*
X143375657Y-131500499D01*
X143375665Y-131500500D01*
X143624335Y-131500500D01*
X143624342Y-131500499D01*
X143665515Y-131493628D01*
X143869614Y-131459571D01*
X144043138Y-131400000D01*
X144104802Y-131378831D01*
X144104803Y-131378830D01*
X144104810Y-131378828D01*
X144323509Y-131260474D01*
X144519744Y-131107738D01*
X144559111Y-131064974D01*
X144591984Y-131029265D01*
X144689859Y-130951778D01*
X144806888Y-130908328D01*
X144885538Y-130900500D01*
X145623050Y-130900500D01*
X145746348Y-130920028D01*
X145857576Y-130976702D01*
X145935000Y-131050727D01*
X146076439Y-131228085D01*
X146274259Y-131411635D01*
X146497226Y-131563651D01*
X146740359Y-131680738D01*
X146998228Y-131760280D01*
X146998235Y-131760281D01*
X147265060Y-131800499D01*
X147265068Y-131800499D01*
X147265071Y-131800500D01*
X147265073Y-131800500D01*
X147534927Y-131800500D01*
X147534929Y-131800500D01*
X147534931Y-131800499D01*
X147534939Y-131800499D01*
X147724752Y-131771888D01*
X147801772Y-131760280D01*
X148059641Y-131680738D01*
X148302775Y-131563651D01*
X148302781Y-131563646D01*
X148315702Y-131556188D01*
X148317045Y-131558514D01*
X148407954Y-131515554D01*
X148531778Y-131499705D01*
X148654440Y-131522895D01*
X148763932Y-131582855D01*
X148849536Y-131673715D01*
X148902874Y-131786582D01*
X148918900Y-131898528D01*
X148918900Y-137035227D01*
X148916223Y-137069230D01*
X148916275Y-137069233D01*
X148915181Y-137090111D01*
X148918353Y-137150640D01*
X148918900Y-137171524D01*
X148918900Y-137184682D01*
X148918901Y-137184712D01*
X148920277Y-137197808D01*
X148921913Y-137218602D01*
X148925086Y-137279144D01*
X148928357Y-137299791D01*
X148928306Y-137299798D01*
X148929328Y-137305310D01*
X148929378Y-137305300D01*
X148933727Y-137325762D01*
X148952457Y-137383409D01*
X148958386Y-137403425D01*
X148974076Y-137461977D01*
X148981572Y-137481503D01*
X148981523Y-137481521D01*
X148983668Y-137486699D01*
X148983715Y-137486679D01*
X148992219Y-137505780D01*
X149022534Y-137558287D01*
X149032501Y-137576645D01*
X149060016Y-137630647D01*
X149071405Y-137648184D01*
X149071362Y-137648211D01*
X149074537Y-137652832D01*
X149074579Y-137652802D01*
X149086864Y-137669711D01*
X149086867Y-137669716D01*
X149086870Y-137669719D01*
X149086872Y-137669722D01*
X149127440Y-137714779D01*
X149140988Y-137730640D01*
X149149282Y-137740881D01*
X149158593Y-137750192D01*
X149172972Y-137765345D01*
X149213527Y-137810386D01*
X149229069Y-137824380D01*
X149229034Y-137824418D01*
X149254966Y-137846565D01*
X150894815Y-139486414D01*
X150968191Y-139587408D01*
X151006767Y-139706133D01*
X151006767Y-139830967D01*
X150968191Y-139949692D01*
X150894815Y-140050686D01*
X147891636Y-143053865D01*
X147790642Y-143127241D01*
X147671917Y-143165817D01*
X147547083Y-143165817D01*
X147428358Y-143127241D01*
X147327364Y-143053865D01*
X147118652Y-142845153D01*
X147045276Y-142744159D01*
X147006700Y-142625434D01*
X147003151Y-142530068D01*
X147005643Y-142500000D01*
X146985108Y-142252179D01*
X146924063Y-142011119D01*
X146824173Y-141783393D01*
X146688164Y-141575215D01*
X146688163Y-141575214D01*
X146688162Y-141575212D01*
X146519745Y-141392262D01*
X146405333Y-141303212D01*
X146323509Y-141239526D01*
X146104810Y-141121172D01*
X146104805Y-141121170D01*
X146104801Y-141121168D01*
X146104802Y-141121168D01*
X145869615Y-141040429D01*
X145624334Y-140999499D01*
X145616029Y-140998811D01*
X145494765Y-140969167D01*
X145388596Y-140903501D01*
X145307916Y-140808242D01*
X145260621Y-140692713D01*
X145251342Y-140568224D01*
X145280986Y-140446960D01*
X145340294Y-140351069D01*
X145340243Y-140351032D01*
X145340746Y-140350338D01*
X145346652Y-140340791D01*
X145352405Y-140334257D01*
X145352533Y-140334116D01*
X145365809Y-140311119D01*
X145388544Y-140276109D01*
X145404151Y-140254630D01*
X145414945Y-140230384D01*
X145433903Y-140193177D01*
X145447179Y-140170184D01*
X145455383Y-140144932D01*
X145470351Y-140105941D01*
X145481144Y-140081703D01*
X145486659Y-140055752D01*
X145497469Y-140015404D01*
X145505674Y-139990156D01*
X145508448Y-139963757D01*
X145514983Y-139922501D01*
X145515134Y-139921788D01*
X145520500Y-139896546D01*
X145520500Y-139707254D01*
X145520500Y-139392527D01*
X145540028Y-139269229D01*
X145596702Y-139158001D01*
X145629713Y-139120935D01*
X145628567Y-139119880D01*
X145786945Y-138947835D01*
X145808164Y-138924785D01*
X145944173Y-138716607D01*
X146044063Y-138488881D01*
X146105108Y-138247821D01*
X146125643Y-138000000D01*
X146105108Y-137752179D01*
X146044063Y-137511119D01*
X145944173Y-137283393D01*
X145808164Y-137075215D01*
X145808163Y-137075214D01*
X145808162Y-137075212D01*
X145639745Y-136892262D01*
X145525333Y-136803212D01*
X145443509Y-136739526D01*
X145224810Y-136621172D01*
X145224805Y-136621170D01*
X145224801Y-136621168D01*
X145224802Y-136621168D01*
X144989615Y-136540429D01*
X144744342Y-136499500D01*
X144744335Y-136499500D01*
X144495665Y-136499500D01*
X144495657Y-136499500D01*
X144250384Y-136540429D01*
X144015197Y-136621168D01*
X143796492Y-136739525D01*
X143600254Y-136892262D01*
X143431837Y-137075212D01*
X143295828Y-137283391D01*
X143195937Y-137511117D01*
X143134893Y-137752172D01*
X143134892Y-137752177D01*
X143134892Y-137752179D01*
X143114357Y-138000000D01*
X143134892Y-138247821D01*
X143187411Y-138455212D01*
X143189759Y-138464484D01*
X143201096Y-138588803D01*
X143173461Y-138710540D01*
X143109560Y-138817780D01*
X143015648Y-138900025D01*
X142906244Y-138947835D01*
X142873617Y-138956578D01*
X142854094Y-138964072D01*
X142854076Y-138964025D01*
X142848899Y-138966169D01*
X142848920Y-138966215D01*
X142829815Y-138974721D01*
X142777315Y-139005031D01*
X142758972Y-139014991D01*
X142704943Y-139042521D01*
X142687415Y-139053904D01*
X142687388Y-139053863D01*
X142682761Y-139057044D01*
X142682790Y-139057084D01*
X142665882Y-139069367D01*
X142620841Y-139109923D01*
X142604972Y-139123477D01*
X142594728Y-139131772D01*
X142594716Y-139131783D01*
X142585392Y-139141107D01*
X142570261Y-139155465D01*
X142525212Y-139196028D01*
X142511221Y-139211567D01*
X142511183Y-139211533D01*
X142489040Y-139237457D01*
X140843864Y-140882635D01*
X140742870Y-140956011D01*
X140624146Y-140994588D01*
X140561728Y-140999500D01*
X140375657Y-140999500D01*
X140130384Y-141040429D01*
X139895197Y-141121168D01*
X139676492Y-141239525D01*
X139480254Y-141392262D01*
X139311837Y-141575212D01*
X139175828Y-141783391D01*
X139075937Y-142011117D01*
X139014893Y-142252172D01*
X139014892Y-142252177D01*
X138994357Y-142499998D01*
X138994357Y-142500001D01*
X139014892Y-142747822D01*
X139014893Y-142747827D01*
X139075937Y-142988882D01*
X139080816Y-143000004D01*
X139175827Y-143216607D01*
X139242397Y-143318500D01*
X139311837Y-143424787D01*
X139491433Y-143619880D01*
X139489031Y-143622091D01*
X139548190Y-143696791D01*
X139591659Y-143813813D01*
X139599500Y-143892527D01*
X139599500Y-143997727D01*
X139596823Y-144031730D01*
X139596875Y-144031733D01*
X139595781Y-144052611D01*
X139598953Y-144113140D01*
X139599500Y-144134024D01*
X139599500Y-144147182D01*
X139599501Y-144147212D01*
X139600877Y-144160308D01*
X139602513Y-144181102D01*
X139605686Y-144241644D01*
X139608957Y-144262291D01*
X139608906Y-144262298D01*
X139609928Y-144267810D01*
X139609978Y-144267800D01*
X139614327Y-144288262D01*
X139633057Y-144345909D01*
X139638986Y-144365925D01*
X139654676Y-144424477D01*
X139662172Y-144444003D01*
X139662123Y-144444021D01*
X139664268Y-144449199D01*
X139664315Y-144449179D01*
X139672819Y-144468280D01*
X139672820Y-144468282D01*
X139672821Y-144468284D01*
X139691421Y-144500500D01*
X139703134Y-144520787D01*
X139713096Y-144539137D01*
X139732237Y-144576702D01*
X139740616Y-144593147D01*
X139752005Y-144610684D01*
X139751962Y-144610711D01*
X139755137Y-144615332D01*
X139755179Y-144615302D01*
X139767464Y-144632211D01*
X139767467Y-144632216D01*
X139767470Y-144632219D01*
X139767472Y-144632222D01*
X139808040Y-144677279D01*
X139821588Y-144693140D01*
X139829882Y-144703381D01*
X139839193Y-144712692D01*
X139853572Y-144727845D01*
X139894127Y-144772886D01*
X139909669Y-144786880D01*
X139909634Y-144786918D01*
X139935566Y-144809065D01*
X141503988Y-146377487D01*
X141577364Y-146478481D01*
X141615940Y-146597206D01*
X141616397Y-146719079D01*
X141614616Y-146730893D01*
X141594451Y-146999994D01*
X141594451Y-147000005D01*
X141614615Y-147269090D01*
X141614617Y-147269105D01*
X141674664Y-147532190D01*
X141674667Y-147532199D01*
X141773256Y-147783397D01*
X141773258Y-147783401D01*
X141908179Y-148017093D01*
X141908182Y-148017098D01*
X141908185Y-148017102D01*
X142076439Y-148228085D01*
X142274259Y-148411635D01*
X142497226Y-148563651D01*
X142740359Y-148680738D01*
X142865136Y-148719226D01*
X142977199Y-148774230D01*
X143066781Y-148861171D01*
X143125113Y-148971539D01*
X143146483Y-149094531D01*
X143128802Y-149218107D01*
X143073798Y-149330171D01*
X142986857Y-149419753D01*
X142876489Y-149478085D01*
X142753497Y-149499455D01*
X142747528Y-149499500D01*
X100899500Y-149499500D01*
X100776202Y-149479972D01*
X100664974Y-149423298D01*
X100576702Y-149335026D01*
X100520028Y-149223798D01*
X100500500Y-149100500D01*
X100500500Y-144833801D01*
X105362120Y-144833801D01*
X105362120Y-147995217D01*
X105362121Y-147995217D01*
X124637879Y-147995217D01*
X124637880Y-147995217D01*
X124637880Y-144833801D01*
X105362120Y-144833801D01*
X100500500Y-144833801D01*
X100500500Y-135020000D01*
X104553945Y-135020000D01*
X104576411Y-135108717D01*
X104576412Y-135108720D01*
X104676266Y-135336365D01*
X104812232Y-135544476D01*
X104812232Y-135544477D01*
X104980595Y-135727366D01*
X104980601Y-135727372D01*
X105176767Y-135880054D01*
X105395392Y-135998367D01*
X105600000Y-136068608D01*
X106400000Y-136068608D01*
X106604607Y-135998367D01*
X106823232Y-135880054D01*
X107019398Y-135727372D01*
X107019404Y-135727366D01*
X107187767Y-135544477D01*
X107187767Y-135544476D01*
X107323733Y-135336365D01*
X107423587Y-135108720D01*
X107423588Y-135108717D01*
X107446055Y-135020000D01*
X106400001Y-135020000D01*
X106400000Y-135020001D01*
X106400000Y-136068608D01*
X105600000Y-136068608D01*
X105600000Y-135020001D01*
X105599999Y-135020000D01*
X104553945Y-135020000D01*
X100500500Y-135020000D01*
X100500500Y-134620000D01*
X105595014Y-134620000D01*
X105614835Y-134745148D01*
X105672359Y-134858045D01*
X105761955Y-134947641D01*
X105874852Y-135005165D01*
X105968519Y-135020000D01*
X106031481Y-135020000D01*
X106125148Y-135005165D01*
X106238045Y-134947641D01*
X106327641Y-134858045D01*
X106385165Y-134745148D01*
X106404986Y-134620000D01*
X106385165Y-134494852D01*
X106327641Y-134381955D01*
X106238045Y-134292359D01*
X106125148Y-134234835D01*
X106031481Y-134220000D01*
X105968519Y-134220000D01*
X105874852Y-134234835D01*
X105761955Y-134292359D01*
X105672359Y-134381955D01*
X105614835Y-134494852D01*
X105595014Y-134620000D01*
X100500500Y-134620000D01*
X100500500Y-134219999D01*
X104553944Y-134219999D01*
X104553945Y-134220000D01*
X105599999Y-134220000D01*
X105600000Y-134219999D01*
X105600000Y-133171389D01*
X106400000Y-133171389D01*
X106400000Y-134219999D01*
X106400001Y-134220000D01*
X107446055Y-134220000D01*
X107446055Y-134219999D01*
X107423588Y-134131282D01*
X107423587Y-134131279D01*
X107323733Y-133903634D01*
X107187767Y-133695523D01*
X107187767Y-133695522D01*
X107019404Y-133512633D01*
X107019398Y-133512627D01*
X106823230Y-133359943D01*
X106823226Y-133359940D01*
X106604610Y-133241632D01*
X106400000Y-133171389D01*
X105600000Y-133171389D01*
X105599999Y-133171389D01*
X105395389Y-133241632D01*
X105176773Y-133359940D01*
X105176769Y-133359943D01*
X104980601Y-133512627D01*
X104980595Y-133512633D01*
X104812232Y-133695522D01*
X104812232Y-133695523D01*
X104676266Y-133903634D01*
X104576412Y-134131279D01*
X104576411Y-134131282D01*
X104553944Y-134219999D01*
X100500500Y-134219999D01*
X100500500Y-132305303D01*
X124260380Y-132305303D01*
X124395387Y-132378365D01*
X124395399Y-132378371D01*
X124630509Y-132459084D01*
X124875703Y-132499999D01*
X124875711Y-132500000D01*
X125124289Y-132500000D01*
X125124296Y-132499999D01*
X125369488Y-132459084D01*
X125604610Y-132378366D01*
X125739618Y-132305302D01*
X125000000Y-131565685D01*
X124260380Y-132305302D01*
X124260380Y-132305303D01*
X100500500Y-132305303D01*
X100500500Y-131000001D01*
X123494859Y-131000001D01*
X123515387Y-131247743D01*
X123576410Y-131488714D01*
X123576414Y-131488724D01*
X123676265Y-131716364D01*
X123676266Y-131716365D01*
X123692736Y-131741576D01*
X123692737Y-131741577D01*
X124434314Y-131000000D01*
X124595014Y-131000000D01*
X124614835Y-131125148D01*
X124672359Y-131238045D01*
X124761955Y-131327641D01*
X124874852Y-131385165D01*
X124968519Y-131400000D01*
X125031481Y-131400000D01*
X125125148Y-131385165D01*
X125238045Y-131327641D01*
X125327641Y-131238045D01*
X125385165Y-131125148D01*
X125404986Y-131000000D01*
X125565685Y-131000000D01*
X126307261Y-131741577D01*
X126307262Y-131741577D01*
X126323727Y-131716375D01*
X126323736Y-131716359D01*
X126423585Y-131488724D01*
X126423589Y-131488714D01*
X126484612Y-131247743D01*
X126505141Y-131000001D01*
X126505141Y-130999998D01*
X126484612Y-130752256D01*
X126423589Y-130511285D01*
X126423587Y-130511280D01*
X126323731Y-130283632D01*
X126323725Y-130283621D01*
X126307262Y-130258422D01*
X125565685Y-130999999D01*
X125565685Y-131000000D01*
X125404986Y-131000000D01*
X125385165Y-130874852D01*
X125327641Y-130761955D01*
X125238045Y-130672359D01*
X125125148Y-130614835D01*
X125031481Y-130600000D01*
X124968519Y-130600000D01*
X124874852Y-130614835D01*
X124761955Y-130672359D01*
X124672359Y-130761955D01*
X124614835Y-130874852D01*
X124595014Y-131000000D01*
X124434314Y-131000000D01*
X124434315Y-130999999D01*
X123692737Y-130258421D01*
X123676269Y-130283629D01*
X123576412Y-130511280D01*
X123576410Y-130511285D01*
X123515387Y-130752256D01*
X123494859Y-130999998D01*
X123494859Y-131000001D01*
X100500500Y-131000001D01*
X100500500Y-129694695D01*
X124260381Y-129694695D01*
X125000000Y-130434314D01*
X125739618Y-129694695D01*
X125604608Y-129621632D01*
X125604600Y-129621628D01*
X125369490Y-129540915D01*
X125124296Y-129500000D01*
X124875703Y-129500000D01*
X124630509Y-129540915D01*
X124395391Y-129621632D01*
X124395390Y-129621632D01*
X124260381Y-129694695D01*
X100500500Y-129694695D01*
X100500500Y-125624701D01*
X102040984Y-125624701D01*
X102097477Y-125663217D01*
X102340538Y-125780269D01*
X102598338Y-125859790D01*
X102598346Y-125859792D01*
X102865098Y-125899999D01*
X102865111Y-125900000D01*
X103134889Y-125900000D01*
X103134901Y-125899999D01*
X103401653Y-125859792D01*
X103401661Y-125859790D01*
X103659452Y-125780272D01*
X103659463Y-125780268D01*
X103902514Y-125663221D01*
X103902519Y-125663219D01*
X103959014Y-125624700D01*
X103000000Y-124665685D01*
X102040984Y-125624701D01*
X100500500Y-125624701D01*
X100500500Y-124767047D01*
X100520028Y-124643749D01*
X100576702Y-124532521D01*
X100664974Y-124444249D01*
X100776202Y-124387575D01*
X100899500Y-124368047D01*
X101022798Y-124387575D01*
X101134026Y-124444249D01*
X101222298Y-124532521D01*
X101270918Y-124621276D01*
X101373706Y-124883176D01*
X101475253Y-125059059D01*
X102434314Y-124099999D01*
X101475253Y-123140938D01*
X101475252Y-123140938D01*
X101373712Y-123316811D01*
X101373706Y-123316823D01*
X101270918Y-123578724D01*
X101207694Y-123686364D01*
X101114301Y-123769198D01*
X100999882Y-123819118D01*
X100875637Y-123831238D01*
X100753728Y-123804370D01*
X100646088Y-123741146D01*
X100563254Y-123647753D01*
X100513334Y-123533334D01*
X100500500Y-123432952D01*
X100500500Y-121221629D01*
X100520028Y-121098331D01*
X100576702Y-120987103D01*
X100664974Y-120898831D01*
X100776202Y-120842157D01*
X100899500Y-120822629D01*
X101022798Y-120842157D01*
X101134026Y-120898831D01*
X101222298Y-120987103D01*
X101249695Y-121030410D01*
X101256206Y-121042334D01*
X101333715Y-121145873D01*
X101342454Y-121157546D01*
X101457669Y-121243796D01*
X101592517Y-121294091D01*
X101652127Y-121300500D01*
X101700498Y-121300499D01*
X101823791Y-121320025D01*
X101935021Y-121376697D01*
X102023294Y-121464967D01*
X102079969Y-121576195D01*
X102095764Y-121675912D01*
X102097314Y-121675750D01*
X102099499Y-121696545D01*
X102105018Y-121722511D01*
X102111548Y-121763738D01*
X102114325Y-121790152D01*
X102114325Y-121790154D01*
X102114326Y-121790156D01*
X102122528Y-121815401D01*
X102133334Y-121855728D01*
X102137339Y-121874564D01*
X102138856Y-121881701D01*
X102138857Y-121881706D01*
X102149654Y-121905955D01*
X102164621Y-121944948D01*
X102172736Y-121969925D01*
X102172821Y-121970184D01*
X102186093Y-121993171D01*
X102205052Y-122030380D01*
X102217475Y-122058282D01*
X102249785Y-122178862D01*
X102243252Y-122303526D01*
X102198517Y-122420070D01*
X102119956Y-122517085D01*
X102077731Y-122550245D01*
X102040983Y-122575297D01*
X102040983Y-122575298D01*
X102999999Y-123534315D01*
X103015684Y-123550000D01*
X102962378Y-123550000D01*
X102850217Y-123565416D01*
X102711542Y-123625651D01*
X102594261Y-123721066D01*
X102507072Y-123844585D01*
X102456441Y-123987047D01*
X102446123Y-124137886D01*
X102476884Y-124285915D01*
X102546442Y-124420156D01*
X102649638Y-124530652D01*
X102778819Y-124609209D01*
X102924404Y-124650000D01*
X103037622Y-124650000D01*
X103149783Y-124634584D01*
X103288458Y-124574349D01*
X103405739Y-124478934D01*
X103492928Y-124355415D01*
X103543559Y-124212953D01*
X103552207Y-124086522D01*
X104524744Y-125059059D01*
X104648420Y-125042777D01*
X104773212Y-125046045D01*
X104890886Y-125087716D01*
X104989924Y-125163711D01*
X105060632Y-125266590D01*
X105096087Y-125386284D01*
X105099500Y-125438364D01*
X105099500Y-125607472D01*
X105079972Y-125730770D01*
X105023298Y-125841998D01*
X104990289Y-125879067D01*
X104991433Y-125880120D01*
X104811837Y-126075212D01*
X104675828Y-126283391D01*
X104575937Y-126511117D01*
X104514893Y-126752172D01*
X104514892Y-126752177D01*
X104494357Y-126999998D01*
X104494357Y-127000001D01*
X104514892Y-127247822D01*
X104514893Y-127247827D01*
X104575937Y-127488882D01*
X104603028Y-127550642D01*
X104675827Y-127716607D01*
X104693591Y-127743797D01*
X104811837Y-127924787D01*
X104980254Y-128107737D01*
X105062080Y-128171424D01*
X105176491Y-128260474D01*
X105395190Y-128378828D01*
X105395196Y-128378830D01*
X105395198Y-128378831D01*
X105395197Y-128378831D01*
X105549413Y-128431772D01*
X105630386Y-128459571D01*
X105793604Y-128486806D01*
X105875657Y-128500499D01*
X105875665Y-128500500D01*
X106124335Y-128500500D01*
X106124342Y-128500499D01*
X106165515Y-128493628D01*
X106369614Y-128459571D01*
X106539282Y-128401323D01*
X106604802Y-128378831D01*
X106604803Y-128378830D01*
X106604810Y-128378828D01*
X106823509Y-128260474D01*
X107019744Y-128107738D01*
X107188164Y-127924785D01*
X107324173Y-127716607D01*
X107424063Y-127488881D01*
X107485108Y-127247821D01*
X107505643Y-127000000D01*
X107503198Y-126970499D01*
X107499411Y-126924787D01*
X107485108Y-126752179D01*
X107424063Y-126511119D01*
X107356213Y-126356437D01*
X107324569Y-126235683D01*
X107331789Y-126111057D01*
X107377167Y-125994762D01*
X107439472Y-125914026D01*
X108656136Y-124697364D01*
X108757129Y-124623988D01*
X108875854Y-124585412D01*
X108938271Y-124580500D01*
X109124335Y-124580500D01*
X109124342Y-124580499D01*
X109174842Y-124572072D01*
X109369614Y-124539571D01*
X109546243Y-124478934D01*
X109604802Y-124458831D01*
X109604803Y-124458830D01*
X109604810Y-124458828D01*
X109823509Y-124340474D01*
X110019744Y-124187738D01*
X110188164Y-124004785D01*
X110324173Y-123796607D01*
X110424063Y-123568881D01*
X110485108Y-123327821D01*
X110505643Y-123080001D01*
X112494357Y-123080001D01*
X112514892Y-123327822D01*
X112514893Y-123327827D01*
X112575937Y-123568882D01*
X112618816Y-123666636D01*
X112675827Y-123796607D01*
X112721751Y-123866899D01*
X112811837Y-124004787D01*
X112980254Y-124187737D01*
X113003602Y-124205909D01*
X113176491Y-124340474D01*
X113395190Y-124458828D01*
X113395196Y-124458830D01*
X113395198Y-124458831D01*
X113395197Y-124458831D01*
X113507776Y-124497479D01*
X113630386Y-124539571D01*
X113787679Y-124565818D01*
X113875657Y-124580499D01*
X113875665Y-124580500D01*
X114124335Y-124580500D01*
X114124342Y-124580499D01*
X114174842Y-124572072D01*
X114369614Y-124539571D01*
X114546243Y-124478934D01*
X114604802Y-124458831D01*
X114604803Y-124458830D01*
X114604810Y-124458828D01*
X114823509Y-124340474D01*
X115019744Y-124187738D01*
X115188164Y-124004785D01*
X115324173Y-123796607D01*
X115358117Y-123719220D01*
X115425529Y-123614154D01*
X115522110Y-123535060D01*
X115638405Y-123489682D01*
X115723510Y-123480500D01*
X115776490Y-123480500D01*
X115899788Y-123500028D01*
X116011016Y-123556702D01*
X116099288Y-123644974D01*
X116141881Y-123719220D01*
X116175827Y-123796607D01*
X116221751Y-123866899D01*
X116311837Y-124004787D01*
X116480254Y-124187737D01*
X116503602Y-124205909D01*
X116676491Y-124340474D01*
X116895190Y-124458828D01*
X116895196Y-124458830D01*
X116895198Y-124458831D01*
X116895197Y-124458831D01*
X117007776Y-124497479D01*
X117130386Y-124539571D01*
X117287679Y-124565818D01*
X117375657Y-124580499D01*
X117375665Y-124580500D01*
X117624335Y-124580500D01*
X117624342Y-124580499D01*
X117674842Y-124572072D01*
X117869614Y-124539571D01*
X118046243Y-124478934D01*
X118104802Y-124458831D01*
X118104803Y-124458830D01*
X118104810Y-124458828D01*
X118323509Y-124340474D01*
X118519744Y-124187738D01*
X118688164Y-124004785D01*
X118824173Y-123796607D01*
X118924063Y-123568881D01*
X118985108Y-123327821D01*
X119005643Y-123080000D01*
X119005607Y-123079571D01*
X118998917Y-122998828D01*
X118985108Y-122832179D01*
X118924063Y-122591119D01*
X118824173Y-122363393D01*
X118688164Y-122155215D01*
X118688163Y-122155214D01*
X118688162Y-122155212D01*
X118519745Y-121972262D01*
X118385558Y-121867821D01*
X118323509Y-121819526D01*
X118104810Y-121701172D01*
X118104805Y-121701170D01*
X118104801Y-121701168D01*
X118104802Y-121701168D01*
X117869615Y-121620429D01*
X117624342Y-121579500D01*
X117624335Y-121579500D01*
X117375665Y-121579500D01*
X117375657Y-121579500D01*
X117130386Y-121620428D01*
X117038885Y-121651840D01*
X117021286Y-121657882D01*
X116898330Y-121679445D01*
X116891735Y-121679500D01*
X116299500Y-121679500D01*
X116176202Y-121659972D01*
X116064974Y-121603298D01*
X115976702Y-121515026D01*
X115920028Y-121403798D01*
X115900500Y-121280500D01*
X115900500Y-121012527D01*
X115920028Y-120889229D01*
X115976702Y-120778001D01*
X116009713Y-120740935D01*
X116008567Y-120739880D01*
X116188162Y-120544787D01*
X116188161Y-120544787D01*
X116188164Y-120544785D01*
X116324173Y-120336607D01*
X116424063Y-120108881D01*
X116485108Y-119867821D01*
X116505643Y-119620000D01*
X116485108Y-119372179D01*
X116424063Y-119131119D01*
X116324173Y-118903393D01*
X116188164Y-118695215D01*
X116188163Y-118695214D01*
X116188162Y-118695212D01*
X116019745Y-118512262D01*
X115876151Y-118400499D01*
X115823509Y-118359526D01*
X115604810Y-118241172D01*
X115604805Y-118241170D01*
X115604801Y-118241168D01*
X115604802Y-118241168D01*
X115369615Y-118160429D01*
X115124342Y-118119500D01*
X115124335Y-118119500D01*
X114875665Y-118119500D01*
X114875657Y-118119500D01*
X114630384Y-118160429D01*
X114395197Y-118241168D01*
X114176492Y-118359525D01*
X113980254Y-118512262D01*
X113811837Y-118695212D01*
X113675828Y-118903391D01*
X113575937Y-119131117D01*
X113514893Y-119372172D01*
X113514892Y-119372177D01*
X113494357Y-119619998D01*
X113494357Y-119620001D01*
X113514892Y-119867822D01*
X113514893Y-119867827D01*
X113575937Y-120108882D01*
X113598548Y-120160429D01*
X113675827Y-120336607D01*
X113675828Y-120336608D01*
X113811837Y-120544787D01*
X113991433Y-120739880D01*
X113989031Y-120742091D01*
X114048190Y-120816791D01*
X114091659Y-120933813D01*
X114099500Y-121012527D01*
X114099500Y-121204212D01*
X114079972Y-121327510D01*
X114023298Y-121438738D01*
X113935026Y-121527010D01*
X113823798Y-121583684D01*
X113766173Y-121597770D01*
X113630384Y-121620429D01*
X113395197Y-121701168D01*
X113176492Y-121819525D01*
X112980254Y-121972262D01*
X112811837Y-122155212D01*
X112675828Y-122363391D01*
X112575937Y-122591117D01*
X112514893Y-122832172D01*
X112514892Y-122832177D01*
X112494357Y-123079998D01*
X112494357Y-123080001D01*
X110505643Y-123080001D01*
X110505643Y-123080000D01*
X110505607Y-123079571D01*
X110498917Y-122998828D01*
X110485108Y-122832179D01*
X110424063Y-122591119D01*
X110324173Y-122363393D01*
X110188164Y-122155215D01*
X110188163Y-122155214D01*
X110188162Y-122155212D01*
X110019745Y-121972262D01*
X109885558Y-121867821D01*
X109823509Y-121819526D01*
X109604810Y-121701172D01*
X109604805Y-121701170D01*
X109604801Y-121701168D01*
X109604802Y-121701168D01*
X109369615Y-121620429D01*
X109124342Y-121579500D01*
X109124335Y-121579500D01*
X108875665Y-121579500D01*
X108875657Y-121579500D01*
X108630384Y-121620429D01*
X108395197Y-121701168D01*
X108176492Y-121819525D01*
X107980254Y-121972262D01*
X107811837Y-122155212D01*
X107675828Y-122363391D01*
X107575937Y-122591117D01*
X107514893Y-122832172D01*
X107514892Y-122832177D01*
X107494357Y-123079998D01*
X107494357Y-123080005D01*
X107496848Y-123110070D01*
X107487568Y-123234559D01*
X107440272Y-123350087D01*
X107381348Y-123425150D01*
X107280852Y-123525647D01*
X107179859Y-123599024D01*
X107061134Y-123637600D01*
X106936300Y-123637601D01*
X106817575Y-123599026D01*
X106716581Y-123525650D01*
X106702212Y-123510509D01*
X106691954Y-123499116D01*
X106678425Y-123483277D01*
X106670119Y-123473020D01*
X106670104Y-123473005D01*
X106660801Y-123463701D01*
X106646430Y-123448557D01*
X106605869Y-123403509D01*
X106590334Y-123389522D01*
X106590368Y-123389484D01*
X106564434Y-123367335D01*
X104772343Y-121575244D01*
X104698967Y-121474250D01*
X104660391Y-121355525D01*
X104660391Y-121230691D01*
X104698967Y-121111966D01*
X104735067Y-121053991D01*
X104743796Y-121042331D01*
X104794091Y-120907483D01*
X104800500Y-120847873D01*
X104800499Y-118152128D01*
X104794091Y-118092517D01*
X104743796Y-117957669D01*
X104657546Y-117842454D01*
X104640248Y-117829505D01*
X104542334Y-117756206D01*
X104542329Y-117756203D01*
X104407482Y-117705908D01*
X104354281Y-117700188D01*
X104347873Y-117699500D01*
X104347872Y-117699500D01*
X101652136Y-117699500D01*
X101652129Y-117699500D01*
X101652128Y-117699501D01*
X101644949Y-117700272D01*
X101592519Y-117705908D01*
X101592517Y-117705909D01*
X101457672Y-117756202D01*
X101457665Y-117756206D01*
X101342458Y-117842450D01*
X101342450Y-117842458D01*
X101256201Y-117957671D01*
X101249692Y-117969593D01*
X101173461Y-118068450D01*
X101070413Y-118138911D01*
X100950635Y-118174080D01*
X100825851Y-118170514D01*
X100708277Y-118128562D01*
X100609420Y-118052331D01*
X100538959Y-117949283D01*
X100503790Y-117829505D01*
X100500500Y-117778370D01*
X100500500Y-109047869D01*
X101999500Y-109047869D01*
X101999501Y-109047872D01*
X102000054Y-109053014D01*
X102005908Y-109107480D01*
X102005909Y-109107482D01*
X102056202Y-109242327D01*
X102056206Y-109242334D01*
X102139596Y-109353729D01*
X102142454Y-109357546D01*
X102257669Y-109443796D01*
X102392517Y-109494091D01*
X102452127Y-109500500D01*
X104547872Y-109500499D01*
X104607483Y-109494091D01*
X104742331Y-109443796D01*
X104857546Y-109357546D01*
X104857548Y-109357542D01*
X104862643Y-109353729D01*
X104973050Y-109295471D01*
X105096057Y-109274183D01*
X105219621Y-109291947D01*
X105291663Y-109322233D01*
X105395387Y-109378366D01*
X105395391Y-109378367D01*
X105630509Y-109459084D01*
X105875703Y-109499999D01*
X105875711Y-109500000D01*
X106124289Y-109500000D01*
X106124296Y-109499999D01*
X106369488Y-109459084D01*
X106604610Y-109378366D01*
X106739617Y-109305302D01*
X105761957Y-108327642D01*
X105874852Y-108385165D01*
X105968519Y-108400000D01*
X106031481Y-108400000D01*
X106125148Y-108385165D01*
X106238045Y-108327641D01*
X106327641Y-108238045D01*
X106385165Y-108125148D01*
X106404986Y-108000000D01*
X106565685Y-108000000D01*
X107307261Y-108741577D01*
X107307262Y-108741577D01*
X107323727Y-108716375D01*
X107323736Y-108716359D01*
X107423585Y-108488724D01*
X107423589Y-108488714D01*
X107484612Y-108247743D01*
X107505141Y-108000000D01*
X107505141Y-107999998D01*
X107484612Y-107752256D01*
X107423589Y-107511285D01*
X107423587Y-107511280D01*
X107323731Y-107283632D01*
X107323725Y-107283621D01*
X107307262Y-107258422D01*
X106565685Y-107999999D01*
X106565685Y-108000000D01*
X106404986Y-108000000D01*
X106385165Y-107874852D01*
X106327641Y-107761955D01*
X106238045Y-107672359D01*
X106125148Y-107614835D01*
X106031481Y-107600000D01*
X105968519Y-107600000D01*
X105874852Y-107614835D01*
X105761957Y-107672357D01*
X106000000Y-107434315D01*
X106739618Y-106694695D01*
X106604608Y-106621632D01*
X106604600Y-106621628D01*
X106369490Y-106540915D01*
X106124297Y-106500000D01*
X106112669Y-106499037D01*
X105997351Y-106470845D01*
X105977674Y-106480872D01*
X105887331Y-106499037D01*
X105875702Y-106500000D01*
X105630510Y-106540915D01*
X105434649Y-106608154D01*
X105311691Y-106629717D01*
X105188088Y-106612230D01*
X105075937Y-106557402D01*
X104986219Y-106470602D01*
X104927714Y-106360325D01*
X104906151Y-106237367D01*
X104923638Y-106113764D01*
X104978466Y-106001613D01*
X105022954Y-105948644D01*
X105152337Y-105819262D01*
X105253331Y-105745887D01*
X105372056Y-105707312D01*
X105434470Y-105702400D01*
X105854376Y-105702400D01*
X105977674Y-105721928D01*
X106002045Y-105734346D01*
X106054089Y-105713041D01*
X106145624Y-105702400D01*
X107054642Y-105702400D01*
X107054646Y-105702400D01*
X107080601Y-105696883D01*
X107121857Y-105690348D01*
X107148256Y-105687574D01*
X107173504Y-105679369D01*
X107213854Y-105668559D01*
X107239803Y-105663044D01*
X107264041Y-105652251D01*
X107303032Y-105637283D01*
X107328284Y-105629079D01*
X107351277Y-105615803D01*
X107388484Y-105596845D01*
X107412730Y-105586051D01*
X107434209Y-105570444D01*
X107469219Y-105547709D01*
X107492216Y-105534433D01*
X107511944Y-105516668D01*
X107544400Y-105490386D01*
X107565871Y-105474788D01*
X107565874Y-105474785D01*
X107583628Y-105455067D01*
X107613167Y-105425528D01*
X107632885Y-105407774D01*
X107632885Y-105407773D01*
X107632888Y-105407771D01*
X107648486Y-105386300D01*
X107674768Y-105353844D01*
X107692533Y-105334116D01*
X107705809Y-105311119D01*
X107728544Y-105276109D01*
X107744151Y-105254630D01*
X107754945Y-105230384D01*
X107773903Y-105193177D01*
X107787179Y-105170184D01*
X107795383Y-105144932D01*
X107810351Y-105105941D01*
X107821144Y-105081703D01*
X107826659Y-105055752D01*
X107837468Y-105015407D01*
X107845674Y-104990156D01*
X107845674Y-104990151D01*
X107850532Y-104975203D01*
X107907210Y-104863976D01*
X107995484Y-104775708D01*
X108106714Y-104719038D01*
X108230013Y-104699513D01*
X108353310Y-104719045D01*
X108464537Y-104775723D01*
X108552805Y-104863997D01*
X108609474Y-104975221D01*
X108614325Y-104990154D01*
X108614326Y-104990156D01*
X108633053Y-105047794D01*
X108633058Y-105047809D01*
X108638986Y-105067825D01*
X108654676Y-105126377D01*
X108662172Y-105145903D01*
X108662123Y-105145921D01*
X108664268Y-105151099D01*
X108664315Y-105151079D01*
X108672819Y-105170180D01*
X108672820Y-105170182D01*
X108672821Y-105170184D01*
X108703134Y-105222687D01*
X108713096Y-105241037D01*
X108723755Y-105261955D01*
X108740616Y-105295047D01*
X108752005Y-105312584D01*
X108751962Y-105312611D01*
X108755137Y-105317232D01*
X108755179Y-105317202D01*
X108767464Y-105334111D01*
X108767467Y-105334116D01*
X108767470Y-105334119D01*
X108767472Y-105334122D01*
X108808040Y-105379179D01*
X108821588Y-105395040D01*
X108829882Y-105405281D01*
X108839193Y-105414592D01*
X108853572Y-105429745D01*
X108894127Y-105474786D01*
X108909669Y-105488780D01*
X108909634Y-105488818D01*
X108935566Y-105510965D01*
X109362636Y-105938035D01*
X109436012Y-106039029D01*
X109474588Y-106157754D01*
X109479500Y-106220171D01*
X109479500Y-107607472D01*
X109459972Y-107730770D01*
X109403298Y-107841998D01*
X109370289Y-107879067D01*
X109371433Y-107880120D01*
X109191837Y-108075212D01*
X109055828Y-108283391D01*
X108955937Y-108511117D01*
X108894893Y-108752172D01*
X108894892Y-108752177D01*
X108874357Y-108999998D01*
X108874357Y-109000001D01*
X108894892Y-109247822D01*
X108894893Y-109247827D01*
X108955937Y-109488882D01*
X108990948Y-109568699D01*
X109055827Y-109716607D01*
X109099562Y-109783549D01*
X109191837Y-109924787D01*
X109360254Y-110107737D01*
X109430357Y-110162300D01*
X109556491Y-110260474D01*
X109775190Y-110378828D01*
X109775196Y-110378830D01*
X109775198Y-110378831D01*
X109775197Y-110378831D01*
X109921717Y-110429131D01*
X110010386Y-110459571D01*
X110173604Y-110486806D01*
X110255657Y-110500499D01*
X110255665Y-110500500D01*
X110504335Y-110500500D01*
X110504342Y-110500499D01*
X110548394Y-110493148D01*
X110749614Y-110459571D01*
X110937758Y-110394981D01*
X110984802Y-110378831D01*
X110984803Y-110378830D01*
X110984810Y-110378828D01*
X111203509Y-110260474D01*
X111399744Y-110107738D01*
X111418478Y-110087388D01*
X111483809Y-110016419D01*
X111568164Y-109924785D01*
X111704173Y-109716607D01*
X111804063Y-109488881D01*
X111865108Y-109247821D01*
X111885643Y-109000000D01*
X111865108Y-108752179D01*
X111804063Y-108511119D01*
X111704173Y-108283393D01*
X111568164Y-108075215D01*
X111568163Y-108075214D01*
X111568162Y-108075212D01*
X111388567Y-107880120D01*
X111390964Y-107877912D01*
X111331770Y-107803137D01*
X111288325Y-107686106D01*
X111280500Y-107607472D01*
X111280500Y-105784172D01*
X111283176Y-105750172D01*
X111283125Y-105750170D01*
X111284219Y-105729288D01*
X111281975Y-105686474D01*
X111281046Y-105668756D01*
X111280500Y-105647875D01*
X111280500Y-105634715D01*
X111280500Y-105634708D01*
X111279120Y-105621584D01*
X111277487Y-105600840D01*
X111274313Y-105540255D01*
X111274311Y-105540249D01*
X111274311Y-105540241D01*
X111271042Y-105519597D01*
X111271092Y-105519589D01*
X111270073Y-105514093D01*
X111270023Y-105514104D01*
X111265674Y-105493653D01*
X111265674Y-105493644D01*
X111246938Y-105435981D01*
X111241010Y-105415969D01*
X111239377Y-105409876D01*
X111225320Y-105357412D01*
X111217825Y-105337887D01*
X111217874Y-105337867D01*
X111215734Y-105332701D01*
X111215686Y-105332723D01*
X111207179Y-105313616D01*
X111176870Y-105261120D01*
X111166898Y-105242754D01*
X111139383Y-105188751D01*
X111139376Y-105188743D01*
X111127990Y-105171208D01*
X111128034Y-105171179D01*
X111124870Y-105166575D01*
X111124828Y-105166607D01*
X111112535Y-105149688D01*
X111112533Y-105149684D01*
X111071937Y-105104597D01*
X111058425Y-105088777D01*
X111050119Y-105078520D01*
X111050104Y-105078505D01*
X111040801Y-105069201D01*
X111026430Y-105054057D01*
X110985869Y-105009009D01*
X110970334Y-104995022D01*
X110970368Y-104994984D01*
X110944434Y-104972835D01*
X110875481Y-104903882D01*
X110802105Y-104802888D01*
X110763529Y-104684163D01*
X110763529Y-104559329D01*
X110802105Y-104440604D01*
X110843947Y-104383012D01*
X110840445Y-104380390D01*
X110879933Y-104327641D01*
X110943796Y-104242331D01*
X110994091Y-104107483D01*
X111000500Y-104047873D01*
X111000499Y-101952128D01*
X110994091Y-101892517D01*
X110943796Y-101757669D01*
X110857546Y-101642454D01*
X110742331Y-101556204D01*
X110742330Y-101556203D01*
X110742329Y-101556203D01*
X110607482Y-101505908D01*
X110554281Y-101500188D01*
X110547873Y-101499500D01*
X110547872Y-101499500D01*
X108452136Y-101499500D01*
X108452129Y-101499500D01*
X108452128Y-101499501D01*
X108444949Y-101500272D01*
X108392519Y-101505908D01*
X108392517Y-101505909D01*
X108257672Y-101556202D01*
X108257665Y-101556206D01*
X108121012Y-101658505D01*
X108010604Y-101716762D01*
X107887598Y-101738050D01*
X107764034Y-101720285D01*
X107691999Y-101690003D01*
X107564810Y-101621172D01*
X107564805Y-101621170D01*
X107564801Y-101621168D01*
X107564802Y-101621168D01*
X107329615Y-101540429D01*
X107084342Y-101499500D01*
X107084335Y-101499500D01*
X106835665Y-101499500D01*
X106835657Y-101499500D01*
X106590384Y-101540429D01*
X106355197Y-101621168D01*
X106136492Y-101739525D01*
X105940254Y-101892262D01*
X105771837Y-102075212D01*
X105635828Y-102283391D01*
X105535937Y-102511117D01*
X105474893Y-102752172D01*
X105474892Y-102752177D01*
X105454357Y-102999998D01*
X105454357Y-103000001D01*
X105474892Y-103247822D01*
X105474893Y-103247827D01*
X105514556Y-103404450D01*
X105525894Y-103528769D01*
X105498260Y-103650506D01*
X105434359Y-103757746D01*
X105340447Y-103839991D01*
X105225716Y-103889190D01*
X105127766Y-103901400D01*
X104998472Y-103901400D01*
X104964469Y-103898724D01*
X104964467Y-103898775D01*
X104943587Y-103897680D01*
X104888154Y-103900585D01*
X104883056Y-103900853D01*
X104862176Y-103901400D01*
X104849002Y-103901400D01*
X104835891Y-103902777D01*
X104815100Y-103904413D01*
X104754557Y-103907586D01*
X104733906Y-103910857D01*
X104733898Y-103910809D01*
X104728383Y-103911831D01*
X104728394Y-103911879D01*
X104707933Y-103916228D01*
X104650273Y-103934962D01*
X104630264Y-103940889D01*
X104571714Y-103956579D01*
X104552183Y-103964076D01*
X104552165Y-103964029D01*
X104546995Y-103966170D01*
X104547016Y-103966217D01*
X104527914Y-103974721D01*
X104475422Y-104005027D01*
X104457077Y-104014988D01*
X104403046Y-104042519D01*
X104385514Y-104053905D01*
X104385487Y-104053863D01*
X104380863Y-104057041D01*
X104380893Y-104057082D01*
X104363986Y-104069364D01*
X104318919Y-104109942D01*
X104303068Y-104123480D01*
X104292834Y-104131768D01*
X104292810Y-104131790D01*
X104283507Y-104141093D01*
X104268367Y-104155460D01*
X104223316Y-104196025D01*
X104209320Y-104211569D01*
X104209282Y-104211534D01*
X104187138Y-104237461D01*
X102935561Y-105489038D01*
X102909634Y-105511182D01*
X102909669Y-105511220D01*
X102894125Y-105525216D01*
X102853560Y-105570267D01*
X102839193Y-105585407D01*
X102829890Y-105594710D01*
X102829868Y-105594734D01*
X102821580Y-105604968D01*
X102808042Y-105620819D01*
X102767464Y-105665886D01*
X102755182Y-105682793D01*
X102755141Y-105682763D01*
X102751963Y-105687387D01*
X102752005Y-105687414D01*
X102740619Y-105704946D01*
X102713088Y-105758977D01*
X102703127Y-105777322D01*
X102672821Y-105829814D01*
X102664317Y-105848916D01*
X102664271Y-105848895D01*
X102662124Y-105854079D01*
X102662171Y-105854098D01*
X102654679Y-105873613D01*
X102638990Y-105932164D01*
X102633060Y-105952183D01*
X102614328Y-106009836D01*
X102609980Y-106030294D01*
X102609930Y-106030283D01*
X102608908Y-106035798D01*
X102608957Y-106035806D01*
X102605686Y-106056454D01*
X102602513Y-106116999D01*
X102600877Y-106137791D01*
X102599500Y-106150901D01*
X102599500Y-106151677D01*
X102599439Y-106152060D01*
X102598953Y-106161341D01*
X102597977Y-106161289D01*
X102579972Y-106274975D01*
X102523298Y-106386203D01*
X102435026Y-106474475D01*
X102339935Y-106525520D01*
X102257674Y-106556201D01*
X102257665Y-106556206D01*
X102142458Y-106642450D01*
X102142450Y-106642458D01*
X102056206Y-106757665D01*
X102056203Y-106757670D01*
X102005908Y-106892517D01*
X101999500Y-106952127D01*
X101999500Y-109047863D01*
X101999500Y-109047869D01*
X100500500Y-109047869D01*
X100500500Y-100899500D01*
X100520028Y-100776202D01*
X100576702Y-100664974D01*
X100664974Y-100576702D01*
X100776202Y-100520028D01*
X100899500Y-100500500D01*
X169100500Y-100500500D01*
X169223798Y-100520028D01*
G37*
%TD.AperFunction*%
%TA.AperFunction,Conductor*%
G36*
X144940245Y-112395522D02*
G01*
X144937722Y-112395523D01*
X144935310Y-112394740D01*
X144940245Y-112395522D01*
G37*
%TD.AperFunction*%
%TA.AperFunction,Conductor*%
G36*
X145062557Y-112395479D02*
G01*
X145060020Y-112395479D01*
X145064958Y-112394697D01*
X145062557Y-112395479D01*
G37*
%TD.AperFunction*%
%TA.AperFunction,Conductor*%
G36*
X144820552Y-112357498D02*
G01*
X144818984Y-112356989D01*
X144817643Y-112356015D01*
X144820552Y-112357498D01*
G37*
%TD.AperFunction*%
%TA.AperFunction,Conductor*%
G36*
X145181268Y-112356861D02*
G01*
X145179690Y-112357374D01*
X145182603Y-112355889D01*
X145181268Y-112356861D01*
G37*
%TD.AperFunction*%
%TA.AperFunction,Conductor*%
G36*
X145356925Y-112181141D02*
G01*
X145355953Y-112182478D01*
X145357435Y-112179570D01*
X145356925Y-112181141D01*
G37*
%TD.AperFunction*%
%TA.AperFunction,Conductor*%
G36*
X145395501Y-112062416D02*
G01*
X145394719Y-112064820D01*
X145395501Y-112059887D01*
X145395501Y-112062416D01*
G37*
%TD.AperFunction*%
%TA.AperFunction,Conductor*%
G36*
X145395501Y-111937582D02*
G01*
X145395501Y-111940112D01*
X145394719Y-111935175D01*
X145395501Y-111937582D01*
G37*
%TD.AperFunction*%
%TA.AperFunction,Conductor*%
G36*
X145356925Y-111818857D02*
G01*
X145357437Y-111820432D01*
X145355950Y-111817516D01*
X145356925Y-111818857D01*
G37*
%TD.AperFunction*%
%TA.AperFunction,Conductor*%
G36*
X124940113Y-109895501D02*
G01*
X124937583Y-109895501D01*
X124935177Y-109894719D01*
X124940113Y-109895501D01*
G37*
%TD.AperFunction*%
%TA.AperFunction,Conductor*%
G36*
X125062417Y-109895501D02*
G01*
X125059887Y-109895501D01*
X125064822Y-109894719D01*
X125062417Y-109895501D01*
G37*
%TD.AperFunction*%
%TA.AperFunction,Conductor*%
G36*
X124820431Y-109857436D02*
G01*
X124818858Y-109856925D01*
X124817519Y-109855952D01*
X124820431Y-109857436D01*
G37*
%TD.AperFunction*%
%TA.AperFunction,Conductor*%
G36*
X125181142Y-109856925D02*
G01*
X125179568Y-109857436D01*
X125182480Y-109855952D01*
X125181142Y-109856925D01*
G37*
%TD.AperFunction*%
%TA.AperFunction,Conductor*%
G36*
X124644047Y-109682481D02*
G01*
X124643074Y-109681141D01*
X124642561Y-109679565D01*
X124644047Y-109682481D01*
G37*
%TD.AperFunction*%
%TA.AperFunction,Conductor*%
G36*
X124605281Y-109564826D02*
G01*
X124604498Y-109562416D01*
X124604498Y-109559881D01*
X124605281Y-109564826D01*
G37*
%TD.AperFunction*%
%TA.AperFunction,Conductor*%
G36*
X124604498Y-109440118D02*
G01*
X124604498Y-109437582D01*
X124605281Y-109435169D01*
X124604498Y-109440118D01*
G37*
%TD.AperFunction*%
%TA.AperFunction,Conductor*%
G36*
X124642560Y-109320438D02*
G01*
X124643074Y-109318857D01*
X124644051Y-109317511D01*
X124642560Y-109320438D01*
G37*
%TD.AperFunction*%
%TA.AperFunction,Conductor*%
G36*
X146940113Y-105895501D02*
G01*
X146937583Y-105895501D01*
X146935177Y-105894719D01*
X146940113Y-105895501D01*
G37*
%TD.AperFunction*%
%TA.AperFunction,Conductor*%
G36*
X147062417Y-105895501D02*
G01*
X147059887Y-105895501D01*
X147064822Y-105894719D01*
X147062417Y-105895501D01*
G37*
%TD.AperFunction*%
%TA.AperFunction,Conductor*%
G36*
X146820431Y-105857436D02*
G01*
X146818858Y-105856925D01*
X146817519Y-105855952D01*
X146820431Y-105857436D01*
G37*
%TD.AperFunction*%
%TA.AperFunction,Conductor*%
G36*
X147181142Y-105856925D02*
G01*
X147179568Y-105857436D01*
X147182480Y-105855952D01*
X147181142Y-105856925D01*
G37*
%TD.AperFunction*%
%TD*%
M02*
