M48
; DRILL file {KiCad 7.0.11+dfsg-1build4} date Wed Oct  7 10:43:53 2026
; FORMAT={-:-/ absolute / metric / decimal}
; #@! TF.CreationDate,2026-10-07T10:43:53+03:00
; #@! TF.GenerationSoftware,Kicad,Pcbnew,7.0.11+dfsg-1build4
; #@! TF.FileFunction,Plated,1,2,PTH
FMAT,2
METRIC
; #@! TA.AperFunction,Plated,PTH,ComponentDrill
T1C0.800
; #@! TA.AperFunction,Plated,PTH,ComponentDrill
T2C1.000
; #@! TA.AperFunction,Plated,PTH,ComponentDrill
T3C1.100
%
G90
G05
T1
X103.5Y-108.0
X106.0Y-108.0
X106.0Y-127.0
X106.0Y-134.62
X109.0Y-123.08
X110.38Y-109.0
X114.0Y-123.08
X115.0Y-112.0
X115.0Y-119.62
X117.5Y-123.08
X118.0Y-109.0
X122.0Y-114.5
X122.5Y-109.5
X125.0Y-109.5
X125.0Y-126.0
X125.0Y-131.0
X125.12Y-123.08
X126.0Y-104.0
X129.62Y-114.5
X130.0Y-118.0
X130.0Y-120.54
X130.0Y-123.08
X130.0Y-125.62
X133.62Y-104.0
X134.38Y-107.0
X137.0Y-138.0
X137.62Y-118.0
X137.62Y-120.54
X137.62Y-123.08
X137.62Y-125.62
X138.5Y-130.0
X140.0Y-112.0
X140.5Y-142.5
X142.0Y-107.0
X142.0Y-122.0
X143.5Y-130.0
X144.62Y-138.0
X145.0Y-112.0
X145.5Y-142.5
X147.0Y-105.5
X147.0Y-108.0
X147.0Y-122.0
X151.38Y-103.0
X152.0Y-114.2
X152.0Y-133.5
X152.0Y-141.12
X153.0Y-108.8
X154.5Y-114.2
X155.0Y-143.0
X159.0Y-103.0
X160.0Y-143.0
X160.62Y-108.8
X161.0Y-114.0
X161.0Y-121.62
X161.0Y-125.0
X161.0Y-130.0
X163.5Y-139.38
X163.5Y-147.0
X164.5Y-116.38
X164.5Y-124.0
T2
X106.96Y-103.0
X109.5Y-103.0
T3
X103.0Y-119.5
X103.0Y-124.1
X143.4Y-147.0
X147.4Y-130.0
X148.0Y-147.0
X152.0Y-130.0
X152.6Y-147.0
X156.6Y-130.0
X163.5Y-103.0
X166.0Y-128.0
X166.0Y-132.6
X167.0Y-108.0
X167.0Y-112.6
M30
