%TF.GenerationSoftware,KiCad,Pcbnew,7.0.11+dfsg-1build4*%
%TF.CreationDate,2026-10-08T00:09:31+03:00*%
%TF.ProjectId,guitar_preamp_smd,67756974-6172-45f7-9072-65616d705f73,smd*%
%TF.SameCoordinates,Original*%
%TF.FileFunction,Soldermask,Bot*%
%TF.FilePolarity,Negative*%
%FSLAX46Y46*%
G04 Gerber Fmt 4.6, Leading zero omitted, Abs format (unit mm)*
G04 Created by KiCad (PCBNEW 7.0.11+dfsg-1build4) date 2026-10-08 00:09:31*
%MOMM*%
%LPD*%
G01*
G04 APERTURE LIST*
G04 Aperture macros list*
%AMRoundRect*
0 Rectangle with rounded corners*
0 $1 Rounding radius*
0 $2 $3 $4 $5 $6 $7 $8 $9 X,Y pos of 4 corners*
0 Add a 4 corners polygon primitive as box body*
4,1,4,$2,$3,$4,$5,$6,$7,$8,$9,$2,$3,0*
0 Add four circle primitives for the rounded corners*
1,1,$1+$1,$2,$3*
1,1,$1+$1,$4,$5*
1,1,$1+$1,$6,$7*
1,1,$1+$1,$8,$9*
0 Add four rect primitives between the rounded corners*
20,1,$1+$1,$2,$3,$4,$5,0*
20,1,$1+$1,$4,$5,$6,$7,0*
20,1,$1+$1,$6,$7,$8,$9,0*
20,1,$1+$1,$8,$9,$2,$3,0*%
G04 Aperture macros list end*
%ADD10R,2.100000X2.100000*%
%ADD11C,2.100000*%
%ADD12RoundRect,0.250000X-0.650000X0.412500X-0.650000X-0.412500X0.650000X-0.412500X0.650000X0.412500X0*%
%ADD13RoundRect,0.250000X0.650000X-0.412500X0.650000X0.412500X-0.650000X0.412500X-0.650000X-0.412500X0*%
%ADD14RoundRect,0.150000X0.150000X-0.825000X0.150000X0.825000X-0.150000X0.825000X-0.150000X-0.825000X0*%
%ADD15RoundRect,0.250000X-0.625000X0.400000X-0.625000X-0.400000X0.625000X-0.400000X0.625000X0.400000X0*%
%ADD16RoundRect,0.250000X0.400000X0.625000X-0.400000X0.625000X-0.400000X-0.625000X0.400000X-0.625000X0*%
%ADD17RoundRect,0.250000X-1.050000X-0.550000X1.050000X-0.550000X1.050000X0.550000X-1.050000X0.550000X0*%
%ADD18RoundRect,0.250000X-0.400000X-0.625000X0.400000X-0.625000X0.400000X0.625000X-0.400000X0.625000X0*%
%ADD19RoundRect,0.250000X-0.412500X-0.650000X0.412500X-0.650000X0.412500X0.650000X-0.412500X0.650000X0*%
%ADD20RoundRect,0.250000X0.625000X-0.400000X0.625000X0.400000X-0.625000X0.400000X-0.625000X-0.400000X0*%
%ADD21RoundRect,0.250000X0.412500X0.650000X-0.412500X0.650000X-0.412500X-0.650000X0.412500X-0.650000X0*%
G04 APERTURE END LIST*
D10*
%TO.C,J2*%
X103500000Y-111500000D03*
%TD*%
%TO.C,J3*%
X156500000Y-104400000D03*
D11*
X156500000Y-101860000D03*
%TD*%
D10*
%TO.C,RV2*%
X156500000Y-109420000D03*
D11*
X156500000Y-111960000D03*
X156500000Y-117039999D03*
%TD*%
D10*
%TO.C,J1*%
X103500000Y-121000000D03*
D11*
X103500000Y-123540000D03*
%TD*%
D10*
%TO.C,RV3*%
X156500000Y-106880000D03*
D11*
X156500000Y-114500000D03*
X156500000Y-119580000D03*
%TD*%
D10*
%TO.C,J7*%
X103500000Y-105040000D03*
D11*
X103500000Y-102500000D03*
%TD*%
D12*
%TO.C,C10*%
X113000000Y-104437500D03*
X113000000Y-107562500D03*
%TD*%
D13*
%TO.C,C5*%
X148000000Y-112542500D03*
X148000000Y-109417500D03*
%TD*%
D14*
%TO.C,U1*%
X126905000Y-117475000D03*
X125635000Y-117475000D03*
X124365000Y-117475000D03*
X123095000Y-117475000D03*
X123095000Y-112525000D03*
X124365000Y-112525000D03*
X125635000Y-112525000D03*
X126905000Y-112525000D03*
%TD*%
D15*
%TO.C,R3*%
X107000000Y-123450000D03*
X107000000Y-126550000D03*
%TD*%
D12*
%TO.C,C1*%
X124500000Y-123187500D03*
X124500000Y-126312500D03*
%TD*%
D15*
%TO.C,R2*%
X116500000Y-114250000D03*
X116500000Y-117350000D03*
%TD*%
D13*
%TO.C,C4*%
X148000000Y-117502500D03*
X148000000Y-114377500D03*
%TD*%
D16*
%TO.C,R15*%
X110050000Y-105040000D03*
X106950000Y-105040000D03*
%TD*%
D17*
%TO.C,C3*%
X138000000Y-124500000D03*
X141600000Y-124500000D03*
%TD*%
D18*
%TO.C,R13*%
X147450000Y-102000000D03*
X150550000Y-102000000D03*
%TD*%
%TO.C,R6*%
X143450000Y-119600000D03*
X146550000Y-119600000D03*
%TD*%
D19*
%TO.C,C6*%
X149437500Y-120600000D03*
X152562500Y-120600000D03*
%TD*%
D12*
%TO.C,C11*%
X120300000Y-115737500D03*
X120300000Y-118862500D03*
%TD*%
D18*
%TO.C,R4*%
X126649999Y-121500000D03*
X129749999Y-121500000D03*
%TD*%
D20*
%TO.C,R12*%
X115500000Y-111050000D03*
X115500000Y-107950000D03*
%TD*%
D18*
%TO.C,JP1*%
X131750000Y-124500000D03*
X134850000Y-124500000D03*
%TD*%
D16*
%TO.C,R7*%
X143550000Y-109420000D03*
X140450000Y-109420000D03*
%TD*%
D18*
%TO.C,R9*%
X140450000Y-104000000D03*
X143550000Y-104000000D03*
%TD*%
D13*
%TO.C,C12*%
X119000000Y-111062500D03*
X119000000Y-107937500D03*
%TD*%
D18*
%TO.C,R10*%
X106950000Y-111500000D03*
X110050000Y-111500000D03*
%TD*%
D17*
%TO.C,C9*%
X133700000Y-103500000D03*
X137300000Y-103500000D03*
%TD*%
D19*
%TO.C,C8*%
X123437500Y-108500000D03*
X126562500Y-108500000D03*
%TD*%
D20*
%TO.C,R8*%
X152500000Y-115060000D03*
X152500000Y-111960000D03*
%TD*%
D21*
%TO.C,C7*%
X143562500Y-106880000D03*
X140437500Y-106880000D03*
%TD*%
D20*
%TO.C,R11*%
X112500000Y-115700000D03*
X112500000Y-112600000D03*
%TD*%
D18*
%TO.C,R1*%
X119950000Y-121000000D03*
X123050000Y-121000000D03*
%TD*%
D19*
%TO.C,C2*%
X107937500Y-121000000D03*
X111062500Y-121000000D03*
%TD*%
D18*
%TO.C,R5*%
X126750000Y-124500000D03*
X129850000Y-124500000D03*
%TD*%
M02*
