%TF.GenerationSoftware,KiCad,Pcbnew,7.0.11+dfsg-1build4*%
%TF.CreationDate,2026-10-08T00:09:31+03:00*%
%TF.ProjectId,guitar_preamp_smd,67756974-6172-45f7-9072-65616d705f73,smd*%
%TF.SameCoordinates,Original*%
%TF.FileFunction,Legend,Top*%
%TF.FilePolarity,Positive*%
%FSLAX46Y46*%
G04 Gerber Fmt 4.6, Leading zero omitted, Abs format (unit mm)*
G04 Created by KiCad (PCBNEW 7.0.11+dfsg-1build4) date 2026-10-08 00:09:31*
%MOMM*%
%LPD*%
G01*
G04 APERTURE LIST*
%ADD10C,0.150000*%
%ADD11C,0.120000*%
G04 APERTURE END LIST*
D10*
X105712969Y-111437128D02*
X105841541Y-111479985D01*
X105841541Y-111479985D02*
X105884398Y-111522842D01*
X105884398Y-111522842D02*
X105927255Y-111608557D01*
X105927255Y-111608557D02*
X105927255Y-111737128D01*
X105927255Y-111737128D02*
X105884398Y-111822842D01*
X105884398Y-111822842D02*
X105841541Y-111865700D01*
X105841541Y-111865700D02*
X105755826Y-111908557D01*
X105755826Y-111908557D02*
X105412969Y-111908557D01*
X105412969Y-111908557D02*
X105412969Y-111008557D01*
X105412969Y-111008557D02*
X105712969Y-111008557D01*
X105712969Y-111008557D02*
X105798684Y-111051414D01*
X105798684Y-111051414D02*
X105841541Y-111094271D01*
X105841541Y-111094271D02*
X105884398Y-111179985D01*
X105884398Y-111179985D02*
X105884398Y-111265700D01*
X105884398Y-111265700D02*
X105841541Y-111351414D01*
X105841541Y-111351414D02*
X105798684Y-111394271D01*
X105798684Y-111394271D02*
X105712969Y-111437128D01*
X105712969Y-111437128D02*
X105412969Y-111437128D01*
X106270112Y-111651414D02*
X106698684Y-111651414D01*
X106184398Y-111908557D02*
X106484398Y-111008557D01*
X106484398Y-111008557D02*
X106784398Y-111908557D01*
X106955827Y-111008557D02*
X107470113Y-111008557D01*
X107212970Y-111908557D02*
X107212970Y-111008557D01*
X107770112Y-111565700D02*
X108455827Y-111565700D01*
X108112969Y-111908557D02*
X108112969Y-111222842D01*
X151929886Y-111897128D02*
X152058458Y-111939985D01*
X152058458Y-111939985D02*
X152101315Y-111982842D01*
X152101315Y-111982842D02*
X152144172Y-112068557D01*
X152144172Y-112068557D02*
X152144172Y-112197128D01*
X152144172Y-112197128D02*
X152101315Y-112282842D01*
X152101315Y-112282842D02*
X152058458Y-112325700D01*
X152058458Y-112325700D02*
X151972743Y-112368557D01*
X151972743Y-112368557D02*
X151629886Y-112368557D01*
X151629886Y-112368557D02*
X151629886Y-111468557D01*
X151629886Y-111468557D02*
X151929886Y-111468557D01*
X151929886Y-111468557D02*
X152015601Y-111511414D01*
X152015601Y-111511414D02*
X152058458Y-111554271D01*
X152058458Y-111554271D02*
X152101315Y-111639985D01*
X152101315Y-111639985D02*
X152101315Y-111725700D01*
X152101315Y-111725700D02*
X152058458Y-111811414D01*
X152058458Y-111811414D02*
X152015601Y-111854271D01*
X152015601Y-111854271D02*
X151929886Y-111897128D01*
X151929886Y-111897128D02*
X151629886Y-111897128D01*
X152487029Y-112111414D02*
X152915601Y-112111414D01*
X152401315Y-112368557D02*
X152701315Y-111468557D01*
X152701315Y-111468557D02*
X153001315Y-112368557D01*
X153258458Y-112325700D02*
X153387030Y-112368557D01*
X153387030Y-112368557D02*
X153601315Y-112368557D01*
X153601315Y-112368557D02*
X153687030Y-112325700D01*
X153687030Y-112325700D02*
X153729887Y-112282842D01*
X153729887Y-112282842D02*
X153772744Y-112197128D01*
X153772744Y-112197128D02*
X153772744Y-112111414D01*
X153772744Y-112111414D02*
X153729887Y-112025700D01*
X153729887Y-112025700D02*
X153687030Y-111982842D01*
X153687030Y-111982842D02*
X153601315Y-111939985D01*
X153601315Y-111939985D02*
X153429887Y-111897128D01*
X153429887Y-111897128D02*
X153344172Y-111854271D01*
X153344172Y-111854271D02*
X153301315Y-111811414D01*
X153301315Y-111811414D02*
X153258458Y-111725700D01*
X153258458Y-111725700D02*
X153258458Y-111639985D01*
X153258458Y-111639985D02*
X153301315Y-111554271D01*
X153301315Y-111554271D02*
X153344172Y-111511414D01*
X153344172Y-111511414D02*
X153429887Y-111468557D01*
X153429887Y-111468557D02*
X153644172Y-111468557D01*
X153644172Y-111468557D02*
X153772744Y-111511414D01*
X154115601Y-111554271D02*
X154158458Y-111511414D01*
X154158458Y-111511414D02*
X154244173Y-111468557D01*
X154244173Y-111468557D02*
X154458458Y-111468557D01*
X154458458Y-111468557D02*
X154544173Y-111511414D01*
X154544173Y-111511414D02*
X154587030Y-111554271D01*
X154587030Y-111554271D02*
X154629887Y-111639985D01*
X154629887Y-111639985D02*
X154629887Y-111725700D01*
X154629887Y-111725700D02*
X154587030Y-111854271D01*
X154587030Y-111854271D02*
X154072744Y-112368557D01*
X154072744Y-112368557D02*
X154629887Y-112368557D01*
X151629887Y-119088557D02*
X152144173Y-119088557D01*
X151887030Y-119988557D02*
X151887030Y-119088557D01*
X152958458Y-119988557D02*
X152658458Y-119559985D01*
X152444172Y-119988557D02*
X152444172Y-119088557D01*
X152444172Y-119088557D02*
X152787029Y-119088557D01*
X152787029Y-119088557D02*
X152872744Y-119131414D01*
X152872744Y-119131414D02*
X152915601Y-119174271D01*
X152915601Y-119174271D02*
X152958458Y-119259985D01*
X152958458Y-119259985D02*
X152958458Y-119388557D01*
X152958458Y-119388557D02*
X152915601Y-119474271D01*
X152915601Y-119474271D02*
X152872744Y-119517128D01*
X152872744Y-119517128D02*
X152787029Y-119559985D01*
X152787029Y-119559985D02*
X152444172Y-119559985D01*
X153344172Y-119517128D02*
X153644172Y-119517128D01*
X153772744Y-119988557D02*
X153344172Y-119988557D01*
X153344172Y-119988557D02*
X153344172Y-119088557D01*
X153344172Y-119088557D02*
X153772744Y-119088557D01*
X154072744Y-119088557D02*
X154629887Y-119088557D01*
X154629887Y-119088557D02*
X154329887Y-119431414D01*
X154329887Y-119431414D02*
X154458458Y-119431414D01*
X154458458Y-119431414D02*
X154544173Y-119474271D01*
X154544173Y-119474271D02*
X154587030Y-119517128D01*
X154587030Y-119517128D02*
X154629887Y-119602842D01*
X154629887Y-119602842D02*
X154629887Y-119817128D01*
X154629887Y-119817128D02*
X154587030Y-119902842D01*
X154587030Y-119902842D02*
X154544173Y-119945700D01*
X154544173Y-119945700D02*
X154458458Y-119988557D01*
X154458458Y-119988557D02*
X154201315Y-119988557D01*
X154201315Y-119988557D02*
X154115601Y-119945700D01*
X154115601Y-119945700D02*
X154072744Y-119902842D01*
X105884398Y-123091414D02*
X105798684Y-123048557D01*
X105798684Y-123048557D02*
X105670112Y-123048557D01*
X105670112Y-123048557D02*
X105541541Y-123091414D01*
X105541541Y-123091414D02*
X105455826Y-123177128D01*
X105455826Y-123177128D02*
X105412969Y-123262842D01*
X105412969Y-123262842D02*
X105370112Y-123434271D01*
X105370112Y-123434271D02*
X105370112Y-123562842D01*
X105370112Y-123562842D02*
X105412969Y-123734271D01*
X105412969Y-123734271D02*
X105455826Y-123819985D01*
X105455826Y-123819985D02*
X105541541Y-123905700D01*
X105541541Y-123905700D02*
X105670112Y-123948557D01*
X105670112Y-123948557D02*
X105755826Y-123948557D01*
X105755826Y-123948557D02*
X105884398Y-123905700D01*
X105884398Y-123905700D02*
X105927255Y-123862842D01*
X105927255Y-123862842D02*
X105927255Y-123562842D01*
X105927255Y-123562842D02*
X105755826Y-123562842D01*
X106312969Y-123948557D02*
X106312969Y-123048557D01*
X106312969Y-123048557D02*
X106827255Y-123948557D01*
X106827255Y-123948557D02*
X106827255Y-123048557D01*
X107255826Y-123948557D02*
X107255826Y-123048557D01*
X107255826Y-123048557D02*
X107470112Y-123048557D01*
X107470112Y-123048557D02*
X107598683Y-123091414D01*
X107598683Y-123091414D02*
X107684398Y-123177128D01*
X107684398Y-123177128D02*
X107727255Y-123262842D01*
X107727255Y-123262842D02*
X107770112Y-123434271D01*
X107770112Y-123434271D02*
X107770112Y-123562842D01*
X107770112Y-123562842D02*
X107727255Y-123734271D01*
X107727255Y-123734271D02*
X107684398Y-123819985D01*
X107684398Y-123819985D02*
X107598683Y-123905700D01*
X107598683Y-123905700D02*
X107470112Y-123948557D01*
X107470112Y-123948557D02*
X107255826Y-123948557D01*
X151629887Y-106388557D02*
X152144173Y-106388557D01*
X151887030Y-107288557D02*
X151887030Y-106388557D01*
X152958458Y-107288557D02*
X152658458Y-106859985D01*
X152444172Y-107288557D02*
X152444172Y-106388557D01*
X152444172Y-106388557D02*
X152787029Y-106388557D01*
X152787029Y-106388557D02*
X152872744Y-106431414D01*
X152872744Y-106431414D02*
X152915601Y-106474271D01*
X152915601Y-106474271D02*
X152958458Y-106559985D01*
X152958458Y-106559985D02*
X152958458Y-106688557D01*
X152958458Y-106688557D02*
X152915601Y-106774271D01*
X152915601Y-106774271D02*
X152872744Y-106817128D01*
X152872744Y-106817128D02*
X152787029Y-106859985D01*
X152787029Y-106859985D02*
X152444172Y-106859985D01*
X153344172Y-106817128D02*
X153644172Y-106817128D01*
X153772744Y-107288557D02*
X153344172Y-107288557D01*
X153344172Y-107288557D02*
X153344172Y-106388557D01*
X153344172Y-106388557D02*
X153772744Y-106388557D01*
X154629887Y-107288557D02*
X154115601Y-107288557D01*
X154372744Y-107288557D02*
X154372744Y-106388557D01*
X154372744Y-106388557D02*
X154287030Y-106517128D01*
X154287030Y-106517128D02*
X154201315Y-106602842D01*
X154201315Y-106602842D02*
X154115601Y-106645700D01*
X105412969Y-121408557D02*
X105412969Y-120508557D01*
X105841540Y-121408557D02*
X105841540Y-120508557D01*
X105841540Y-120508557D02*
X106355826Y-121408557D01*
X106355826Y-121408557D02*
X106355826Y-120508557D01*
X151929886Y-116977127D02*
X152058458Y-117019984D01*
X152058458Y-117019984D02*
X152101315Y-117062841D01*
X152101315Y-117062841D02*
X152144172Y-117148556D01*
X152144172Y-117148556D02*
X152144172Y-117277127D01*
X152144172Y-117277127D02*
X152101315Y-117362841D01*
X152101315Y-117362841D02*
X152058458Y-117405699D01*
X152058458Y-117405699D02*
X151972743Y-117448556D01*
X151972743Y-117448556D02*
X151629886Y-117448556D01*
X151629886Y-117448556D02*
X151629886Y-116548556D01*
X151629886Y-116548556D02*
X151929886Y-116548556D01*
X151929886Y-116548556D02*
X152015601Y-116591413D01*
X152015601Y-116591413D02*
X152058458Y-116634270D01*
X152058458Y-116634270D02*
X152101315Y-116719984D01*
X152101315Y-116719984D02*
X152101315Y-116805699D01*
X152101315Y-116805699D02*
X152058458Y-116891413D01*
X152058458Y-116891413D02*
X152015601Y-116934270D01*
X152015601Y-116934270D02*
X151929886Y-116977127D01*
X151929886Y-116977127D02*
X151629886Y-116977127D01*
X152487029Y-117191413D02*
X152915601Y-117191413D01*
X152401315Y-117448556D02*
X152701315Y-116548556D01*
X152701315Y-116548556D02*
X153001315Y-117448556D01*
X153258458Y-117405699D02*
X153387030Y-117448556D01*
X153387030Y-117448556D02*
X153601315Y-117448556D01*
X153601315Y-117448556D02*
X153687030Y-117405699D01*
X153687030Y-117405699D02*
X153729887Y-117362841D01*
X153729887Y-117362841D02*
X153772744Y-117277127D01*
X153772744Y-117277127D02*
X153772744Y-117191413D01*
X153772744Y-117191413D02*
X153729887Y-117105699D01*
X153729887Y-117105699D02*
X153687030Y-117062841D01*
X153687030Y-117062841D02*
X153601315Y-117019984D01*
X153601315Y-117019984D02*
X153429887Y-116977127D01*
X153429887Y-116977127D02*
X153344172Y-116934270D01*
X153344172Y-116934270D02*
X153301315Y-116891413D01*
X153301315Y-116891413D02*
X153258458Y-116805699D01*
X153258458Y-116805699D02*
X153258458Y-116719984D01*
X153258458Y-116719984D02*
X153301315Y-116634270D01*
X153301315Y-116634270D02*
X153344172Y-116591413D01*
X153344172Y-116591413D02*
X153429887Y-116548556D01*
X153429887Y-116548556D02*
X153644172Y-116548556D01*
X153644172Y-116548556D02*
X153772744Y-116591413D01*
X154072744Y-116548556D02*
X154629887Y-116548556D01*
X154629887Y-116548556D02*
X154329887Y-116891413D01*
X154329887Y-116891413D02*
X154458458Y-116891413D01*
X154458458Y-116891413D02*
X154544173Y-116934270D01*
X154544173Y-116934270D02*
X154587030Y-116977127D01*
X154587030Y-116977127D02*
X154629887Y-117062841D01*
X154629887Y-117062841D02*
X154629887Y-117277127D01*
X154629887Y-117277127D02*
X154587030Y-117362841D01*
X154587030Y-117362841D02*
X154544173Y-117405699D01*
X154544173Y-117405699D02*
X154458458Y-117448556D01*
X154458458Y-117448556D02*
X154201315Y-117448556D01*
X154201315Y-117448556D02*
X154115601Y-117405699D01*
X154115601Y-117405699D02*
X154072744Y-117362841D01*
X152615602Y-103908557D02*
X152787030Y-103908557D01*
X152787030Y-103908557D02*
X152872745Y-103951414D01*
X152872745Y-103951414D02*
X152958459Y-104037128D01*
X152958459Y-104037128D02*
X153001316Y-104208557D01*
X153001316Y-104208557D02*
X153001316Y-104508557D01*
X153001316Y-104508557D02*
X152958459Y-104679985D01*
X152958459Y-104679985D02*
X152872745Y-104765700D01*
X152872745Y-104765700D02*
X152787030Y-104808557D01*
X152787030Y-104808557D02*
X152615602Y-104808557D01*
X152615602Y-104808557D02*
X152529888Y-104765700D01*
X152529888Y-104765700D02*
X152444173Y-104679985D01*
X152444173Y-104679985D02*
X152401316Y-104508557D01*
X152401316Y-104508557D02*
X152401316Y-104208557D01*
X152401316Y-104208557D02*
X152444173Y-104037128D01*
X152444173Y-104037128D02*
X152529888Y-103951414D01*
X152529888Y-103951414D02*
X152615602Y-103908557D01*
X153387030Y-103908557D02*
X153387030Y-104637128D01*
X153387030Y-104637128D02*
X153429887Y-104722842D01*
X153429887Y-104722842D02*
X153472745Y-104765700D01*
X153472745Y-104765700D02*
X153558459Y-104808557D01*
X153558459Y-104808557D02*
X153729887Y-104808557D01*
X153729887Y-104808557D02*
X153815602Y-104765700D01*
X153815602Y-104765700D02*
X153858459Y-104722842D01*
X153858459Y-104722842D02*
X153901316Y-104637128D01*
X153901316Y-104637128D02*
X153901316Y-103908557D01*
X154201316Y-103908557D02*
X154715602Y-103908557D01*
X154458459Y-104808557D02*
X154458459Y-103908557D01*
X151929886Y-109357128D02*
X152058458Y-109399985D01*
X152058458Y-109399985D02*
X152101315Y-109442842D01*
X152101315Y-109442842D02*
X152144172Y-109528557D01*
X152144172Y-109528557D02*
X152144172Y-109657128D01*
X152144172Y-109657128D02*
X152101315Y-109742842D01*
X152101315Y-109742842D02*
X152058458Y-109785700D01*
X152058458Y-109785700D02*
X151972743Y-109828557D01*
X151972743Y-109828557D02*
X151629886Y-109828557D01*
X151629886Y-109828557D02*
X151629886Y-108928557D01*
X151629886Y-108928557D02*
X151929886Y-108928557D01*
X151929886Y-108928557D02*
X152015601Y-108971414D01*
X152015601Y-108971414D02*
X152058458Y-109014271D01*
X152058458Y-109014271D02*
X152101315Y-109099985D01*
X152101315Y-109099985D02*
X152101315Y-109185700D01*
X152101315Y-109185700D02*
X152058458Y-109271414D01*
X152058458Y-109271414D02*
X152015601Y-109314271D01*
X152015601Y-109314271D02*
X151929886Y-109357128D01*
X151929886Y-109357128D02*
X151629886Y-109357128D01*
X152487029Y-109571414D02*
X152915601Y-109571414D01*
X152401315Y-109828557D02*
X152701315Y-108928557D01*
X152701315Y-108928557D02*
X153001315Y-109828557D01*
X153258458Y-109785700D02*
X153387030Y-109828557D01*
X153387030Y-109828557D02*
X153601315Y-109828557D01*
X153601315Y-109828557D02*
X153687030Y-109785700D01*
X153687030Y-109785700D02*
X153729887Y-109742842D01*
X153729887Y-109742842D02*
X153772744Y-109657128D01*
X153772744Y-109657128D02*
X153772744Y-109571414D01*
X153772744Y-109571414D02*
X153729887Y-109485700D01*
X153729887Y-109485700D02*
X153687030Y-109442842D01*
X153687030Y-109442842D02*
X153601315Y-109399985D01*
X153601315Y-109399985D02*
X153429887Y-109357128D01*
X153429887Y-109357128D02*
X153344172Y-109314271D01*
X153344172Y-109314271D02*
X153301315Y-109271414D01*
X153301315Y-109271414D02*
X153258458Y-109185700D01*
X153258458Y-109185700D02*
X153258458Y-109099985D01*
X153258458Y-109099985D02*
X153301315Y-109014271D01*
X153301315Y-109014271D02*
X153344172Y-108971414D01*
X153344172Y-108971414D02*
X153429887Y-108928557D01*
X153429887Y-108928557D02*
X153644172Y-108928557D01*
X153644172Y-108928557D02*
X153772744Y-108971414D01*
X154629887Y-109828557D02*
X154115601Y-109828557D01*
X154372744Y-109828557D02*
X154372744Y-108928557D01*
X154372744Y-108928557D02*
X154287030Y-109057128D01*
X154287030Y-109057128D02*
X154201315Y-109142842D01*
X154201315Y-109142842D02*
X154115601Y-109185700D01*
X105841541Y-105448557D02*
X105412969Y-105448557D01*
X105412969Y-105448557D02*
X105412969Y-104548557D01*
X106141540Y-104977128D02*
X106441540Y-104977128D01*
X106570112Y-105448557D02*
X106141540Y-105448557D01*
X106141540Y-105448557D02*
X106141540Y-104548557D01*
X106141540Y-104548557D02*
X106570112Y-104548557D01*
X106955826Y-105448557D02*
X106955826Y-104548557D01*
X106955826Y-104548557D02*
X107170112Y-104548557D01*
X107170112Y-104548557D02*
X107298683Y-104591414D01*
X107298683Y-104591414D02*
X107384398Y-104677128D01*
X107384398Y-104677128D02*
X107427255Y-104762842D01*
X107427255Y-104762842D02*
X107470112Y-104934271D01*
X107470112Y-104934271D02*
X107470112Y-105062842D01*
X107470112Y-105062842D02*
X107427255Y-105234271D01*
X107427255Y-105234271D02*
X107384398Y-105319985D01*
X107384398Y-105319985D02*
X107298683Y-105405700D01*
X107298683Y-105405700D02*
X107170112Y-105448557D01*
X107170112Y-105448557D02*
X106955826Y-105448557D01*
X107855826Y-105105700D02*
X108541541Y-105105700D01*
X108198683Y-105448557D02*
X108198683Y-104762842D01*
X152744173Y-101411414D02*
X152658459Y-101368557D01*
X152658459Y-101368557D02*
X152529887Y-101368557D01*
X152529887Y-101368557D02*
X152401316Y-101411414D01*
X152401316Y-101411414D02*
X152315601Y-101497128D01*
X152315601Y-101497128D02*
X152272744Y-101582842D01*
X152272744Y-101582842D02*
X152229887Y-101754271D01*
X152229887Y-101754271D02*
X152229887Y-101882842D01*
X152229887Y-101882842D02*
X152272744Y-102054271D01*
X152272744Y-102054271D02*
X152315601Y-102139985D01*
X152315601Y-102139985D02*
X152401316Y-102225700D01*
X152401316Y-102225700D02*
X152529887Y-102268557D01*
X152529887Y-102268557D02*
X152615601Y-102268557D01*
X152615601Y-102268557D02*
X152744173Y-102225700D01*
X152744173Y-102225700D02*
X152787030Y-102182842D01*
X152787030Y-102182842D02*
X152787030Y-101882842D01*
X152787030Y-101882842D02*
X152615601Y-101882842D01*
X153172744Y-102268557D02*
X153172744Y-101368557D01*
X153172744Y-101368557D02*
X153687030Y-102268557D01*
X153687030Y-102268557D02*
X153687030Y-101368557D01*
X154115601Y-102268557D02*
X154115601Y-101368557D01*
X154115601Y-101368557D02*
X154329887Y-101368557D01*
X154329887Y-101368557D02*
X154458458Y-101411414D01*
X154458458Y-101411414D02*
X154544173Y-101497128D01*
X154544173Y-101497128D02*
X154587030Y-101582842D01*
X154587030Y-101582842D02*
X154629887Y-101754271D01*
X154629887Y-101754271D02*
X154629887Y-101882842D01*
X154629887Y-101882842D02*
X154587030Y-102054271D01*
X154587030Y-102054271D02*
X154544173Y-102139985D01*
X154544173Y-102139985D02*
X154458458Y-102225700D01*
X154458458Y-102225700D02*
X154329887Y-102268557D01*
X154329887Y-102268557D02*
X154115601Y-102268557D01*
X151629887Y-114008557D02*
X152144173Y-114008557D01*
X151887030Y-114908557D02*
X151887030Y-114008557D01*
X152958458Y-114908557D02*
X152658458Y-114479985D01*
X152444172Y-114908557D02*
X152444172Y-114008557D01*
X152444172Y-114008557D02*
X152787029Y-114008557D01*
X152787029Y-114008557D02*
X152872744Y-114051414D01*
X152872744Y-114051414D02*
X152915601Y-114094271D01*
X152915601Y-114094271D02*
X152958458Y-114179985D01*
X152958458Y-114179985D02*
X152958458Y-114308557D01*
X152958458Y-114308557D02*
X152915601Y-114394271D01*
X152915601Y-114394271D02*
X152872744Y-114437128D01*
X152872744Y-114437128D02*
X152787029Y-114479985D01*
X152787029Y-114479985D02*
X152444172Y-114479985D01*
X153344172Y-114437128D02*
X153644172Y-114437128D01*
X153772744Y-114908557D02*
X153344172Y-114908557D01*
X153344172Y-114908557D02*
X153344172Y-114008557D01*
X153344172Y-114008557D02*
X153772744Y-114008557D01*
X154115601Y-114094271D02*
X154158458Y-114051414D01*
X154158458Y-114051414D02*
X154244173Y-114008557D01*
X154244173Y-114008557D02*
X154458458Y-114008557D01*
X154458458Y-114008557D02*
X154544173Y-114051414D01*
X154544173Y-114051414D02*
X154587030Y-114094271D01*
X154587030Y-114094271D02*
X154629887Y-114179985D01*
X154629887Y-114179985D02*
X154629887Y-114265700D01*
X154629887Y-114265700D02*
X154587030Y-114394271D01*
X154587030Y-114394271D02*
X154072744Y-114908557D01*
X154072744Y-114908557D02*
X154629887Y-114908557D01*
X105841541Y-102908557D02*
X105412969Y-102908557D01*
X105412969Y-102908557D02*
X105412969Y-102008557D01*
X106141540Y-102437128D02*
X106441540Y-102437128D01*
X106570112Y-102908557D02*
X106141540Y-102908557D01*
X106141540Y-102908557D02*
X106141540Y-102008557D01*
X106141540Y-102008557D02*
X106570112Y-102008557D01*
X106955826Y-102908557D02*
X106955826Y-102008557D01*
X106955826Y-102008557D02*
X107170112Y-102008557D01*
X107170112Y-102008557D02*
X107298683Y-102051414D01*
X107298683Y-102051414D02*
X107384398Y-102137128D01*
X107384398Y-102137128D02*
X107427255Y-102222842D01*
X107427255Y-102222842D02*
X107470112Y-102394271D01*
X107470112Y-102394271D02*
X107470112Y-102522842D01*
X107470112Y-102522842D02*
X107427255Y-102694271D01*
X107427255Y-102694271D02*
X107384398Y-102779985D01*
X107384398Y-102779985D02*
X107298683Y-102865700D01*
X107298683Y-102865700D02*
X107170112Y-102908557D01*
X107170112Y-102908557D02*
X106955826Y-102908557D01*
X107855826Y-102565700D02*
X108541541Y-102565700D01*
X109612969Y-101965700D02*
X108841541Y-103122842D01*
X110384398Y-102051414D02*
X110298684Y-102008557D01*
X110298684Y-102008557D02*
X110170112Y-102008557D01*
X110170112Y-102008557D02*
X110041541Y-102051414D01*
X110041541Y-102051414D02*
X109955826Y-102137128D01*
X109955826Y-102137128D02*
X109912969Y-102222842D01*
X109912969Y-102222842D02*
X109870112Y-102394271D01*
X109870112Y-102394271D02*
X109870112Y-102522842D01*
X109870112Y-102522842D02*
X109912969Y-102694271D01*
X109912969Y-102694271D02*
X109955826Y-102779985D01*
X109955826Y-102779985D02*
X110041541Y-102865700D01*
X110041541Y-102865700D02*
X110170112Y-102908557D01*
X110170112Y-102908557D02*
X110255826Y-102908557D01*
X110255826Y-102908557D02*
X110384398Y-102865700D01*
X110384398Y-102865700D02*
X110427255Y-102822842D01*
X110427255Y-102822842D02*
X110427255Y-102522842D01*
X110427255Y-102522842D02*
X110255826Y-102522842D01*
X110812969Y-102908557D02*
X110812969Y-102008557D01*
X110812969Y-102008557D02*
X111327255Y-102908557D01*
X111327255Y-102908557D02*
X111327255Y-102008557D01*
X111755826Y-102908557D02*
X111755826Y-102008557D01*
X111755826Y-102008557D02*
X111970112Y-102008557D01*
X111970112Y-102008557D02*
X112098683Y-102051414D01*
X112098683Y-102051414D02*
X112184398Y-102137128D01*
X112184398Y-102137128D02*
X112227255Y-102222842D01*
X112227255Y-102222842D02*
X112270112Y-102394271D01*
X112270112Y-102394271D02*
X112270112Y-102522842D01*
X112270112Y-102522842D02*
X112227255Y-102694271D01*
X112227255Y-102694271D02*
X112184398Y-102779985D01*
X112184398Y-102779985D02*
X112098683Y-102865700D01*
X112098683Y-102865700D02*
X111970112Y-102908557D01*
X111970112Y-102908557D02*
X111755826Y-102908557D01*
D11*
%TO.C,J2*%
X102170000Y-110170000D02*
X103500000Y-110170000D01*
X102170000Y-111500000D02*
X102170000Y-110170000D01*
X102170000Y-112770000D02*
X102170000Y-112830000D01*
X102170000Y-112770000D02*
X104830000Y-112770000D01*
X102170000Y-112830000D02*
X104830000Y-112830000D01*
X104830000Y-112770000D02*
X104830000Y-112830000D01*
%TO.C,J3*%
X157830000Y-105730000D02*
X156500000Y-105730000D01*
X157830000Y-104400000D02*
X157830000Y-105730000D01*
X157830000Y-103130000D02*
X157830000Y-100530000D01*
X157830000Y-103130000D02*
X155170000Y-103130000D01*
X157830000Y-100530000D02*
X155170000Y-100530000D01*
X155170000Y-103130000D02*
X155170000Y-100530000D01*
%TO.C,J1*%
X102170000Y-119670000D02*
X103500000Y-119670000D01*
X102170000Y-121000000D02*
X102170000Y-119670000D01*
X102170000Y-122270000D02*
X102170000Y-124870000D01*
X102170000Y-122270000D02*
X104830000Y-122270000D01*
X102170000Y-124870000D02*
X104830000Y-124870000D01*
X104830000Y-122270000D02*
X104830000Y-124870000D01*
%TO.C,J7*%
X104830000Y-106370000D02*
X103500000Y-106370000D01*
X104830000Y-105040000D02*
X104830000Y-106370000D01*
X104830000Y-103770000D02*
X104830000Y-101170000D01*
X104830000Y-103770000D02*
X102170000Y-103770000D01*
X104830000Y-101170000D02*
X102170000Y-101170000D01*
X102170000Y-103770000D02*
X102170000Y-101170000D01*
%TD*%
M02*
